%TF.GenerationSoftware,KiCad,Pcbnew,8.0.4*%
%TF.CreationDate,2024-11-04T15:39:35+01:00*%
%TF.ProjectId,Flipper_Zero_CAN_Module,466c6970-7065-4725-9f5a-65726f5f4341,rev?*%
%TF.SameCoordinates,Original*%
%TF.FileFunction,Copper,L1,Top*%
%TF.FilePolarity,Positive*%
%FSLAX46Y46*%
G04 Gerber Fmt 4.6, Leading zero omitted, Abs format (unit mm)*
G04 Created by KiCad (PCBNEW 8.0.4) date 2024-11-04 15:39:35*
%MOMM*%
%LPD*%
G01*
G04 APERTURE LIST*
G04 Aperture macros list*
%AMRoundRect*
0 Rectangle with rounded corners*
0 $1 Rounding radius*
0 $2 $3 $4 $5 $6 $7 $8 $9 X,Y pos of 4 corners*
0 Add a 4 corners polygon primitive as box body*
4,1,4,$2,$3,$4,$5,$6,$7,$8,$9,$2,$3,0*
0 Add four circle primitives for the rounded corners*
1,1,$1+$1,$2,$3*
1,1,$1+$1,$4,$5*
1,1,$1+$1,$6,$7*
1,1,$1+$1,$8,$9*
0 Add four rect primitives between the rounded corners*
20,1,$1+$1,$2,$3,$4,$5,0*
20,1,$1+$1,$4,$5,$6,$7,0*
20,1,$1+$1,$6,$7,$8,$9,0*
20,1,$1+$1,$8,$9,$2,$3,0*%
G04 Aperture macros list end*
%TA.AperFunction,ComponentPad*%
%ADD10C,1.700000*%
%TD*%
%TA.AperFunction,SMDPad,CuDef*%
%ADD11RoundRect,0.218750X-0.218750X-0.256250X0.218750X-0.256250X0.218750X0.256250X-0.218750X0.256250X0*%
%TD*%
%TA.AperFunction,SMDPad,CuDef*%
%ADD12RoundRect,0.218750X-0.256250X0.218750X-0.256250X-0.218750X0.256250X-0.218750X0.256250X0.218750X0*%
%TD*%
%TA.AperFunction,SMDPad,CuDef*%
%ADD13RoundRect,0.225000X-0.250000X0.225000X-0.250000X-0.225000X0.250000X-0.225000X0.250000X0.225000X0*%
%TD*%
%TA.AperFunction,SMDPad,CuDef*%
%ADD14R,1.100000X1.500000*%
%TD*%
%TA.AperFunction,SMDPad,CuDef*%
%ADD15R,2.300000X5.600000*%
%TD*%
%TA.AperFunction,SMDPad,CuDef*%
%ADD16R,1.400000X3.400000*%
%TD*%
%TA.AperFunction,SMDPad,CuDef*%
%ADD17RoundRect,0.150000X-0.875000X-0.150000X0.875000X-0.150000X0.875000X0.150000X-0.875000X0.150000X0*%
%TD*%
%TA.AperFunction,SMDPad,CuDef*%
%ADD18RoundRect,0.218750X0.218750X0.256250X-0.218750X0.256250X-0.218750X-0.256250X0.218750X-0.256250X0*%
%TD*%
%TA.AperFunction,ComponentPad*%
%ADD19R,1.700000X1.700000*%
%TD*%
%TA.AperFunction,ComponentPad*%
%ADD20O,1.700000X1.700000*%
%TD*%
%TA.AperFunction,SMDPad,CuDef*%
%ADD21RoundRect,0.225000X-0.225000X-0.250000X0.225000X-0.250000X0.225000X0.250000X-0.225000X0.250000X0*%
%TD*%
%TA.AperFunction,SMDPad,CuDef*%
%ADD22R,1.050000X1.300000*%
%TD*%
%TA.AperFunction,SMDPad,CuDef*%
%ADD23C,0.500000*%
%TD*%
%TA.AperFunction,SMDPad,CuDef*%
%ADD24RoundRect,0.225000X0.225000X0.250000X-0.225000X0.250000X-0.225000X-0.250000X0.225000X-0.250000X0*%
%TD*%
%TA.AperFunction,SMDPad,CuDef*%
%ADD25RoundRect,0.150000X0.825000X0.150000X-0.825000X0.150000X-0.825000X-0.150000X0.825000X-0.150000X0*%
%TD*%
%TA.AperFunction,SMDPad,CuDef*%
%ADD26R,1.600000X0.800000*%
%TD*%
%TA.AperFunction,SMDPad,CuDef*%
%ADD27O,1.600000X0.800000*%
%TD*%
%TA.AperFunction,ViaPad*%
%ADD28C,0.800000*%
%TD*%
%TA.AperFunction,Conductor*%
%ADD29C,0.250000*%
%TD*%
%TA.AperFunction,Conductor*%
%ADD30C,0.500000*%
%TD*%
G04 APERTURE END LIST*
D10*
%TO.P,U7,1,5V*%
%TO.N,+5V*%
X115873531Y-87820024D03*
%TO.P,U7,2,A7*%
%TO.N,/Board/SPI_MOSI*%
X118413531Y-87820024D03*
%TO.P,U7,3,A6*%
%TO.N,/Board/SPI_MISO*%
X120953531Y-87820024D03*
%TO.P,U7,4,A4*%
%TO.N,/Board/CAN_FD_1_ChipSelect*%
X123493531Y-87820024D03*
%TO.P,U7,5,B3*%
%TO.N,/Board/SPI_SCK*%
X126033531Y-87820024D03*
%TO.P,U7,6,B2*%
%TO.N,unconnected-(U7-B2-Pad6)*%
X128573531Y-87820024D03*
%TO.P,U7,7,C3*%
%TO.N,/Board/CAN_FD_1_INT*%
X131113531Y-87820024D03*
%TO.P,U7,8,GND*%
%TO.N,GND*%
X133653531Y-87820024D03*
%TO.P,U7,9,3V3*%
%TO.N,+3V3*%
X151433531Y-87820024D03*
%TO.P,U7,10,SWC*%
%TO.N,unconnected-(U7-SWC-Pad10)*%
X153973531Y-87820024D03*
%TO.P,U7,11,GND*%
%TO.N,unconnected-(U7-GND-Pad11)*%
X156513531Y-87820024D03*
%TO.P,U7,12,SIO*%
%TO.N,unconnected-(U7-SIO-Pad12)*%
X159053531Y-87820024D03*
%TO.P,U7,13,TX*%
%TO.N,unconnected-(U7-TX-Pad13)*%
X161593531Y-87820024D03*
%TO.P,U7,14,RX*%
%TO.N,unconnected-(U7-RX-Pad14)*%
X164133531Y-87820024D03*
%TO.P,U7,15,C1*%
%TO.N,unconnected-(U7-C1-Pad15)*%
X166673531Y-87820024D03*
%TO.P,U7,16,C0*%
%TO.N,unconnected-(U7-C0-Pad16)*%
X169213531Y-87820024D03*
%TO.P,U7,17,1W*%
%TO.N,unconnected-(U7-1W-Pad17)*%
X171753531Y-87820024D03*
%TO.P,U7,18,GND*%
%TO.N,unconnected-(U7-GND-Pad18)*%
X174293531Y-87820024D03*
%TD*%
D11*
%TO.P,R3,1*%
%TO.N,+3V3*%
X132812500Y-74550000D03*
%TO.P,R3,2*%
%TO.N,Net-(D3-A1)*%
X134387500Y-74550000D03*
%TD*%
D12*
%TO.P,R15,1*%
%TO.N,/Board/CAN_H_FD_1*%
X165300000Y-81212500D03*
%TO.P,R15,2*%
%TO.N,Net-(R15-Pad2)*%
X165300000Y-82787500D03*
%TD*%
D13*
%TO.P,C9,1*%
%TO.N,+5P*%
X160655000Y-75665000D03*
%TO.P,C9,2*%
%TO.N,GND1*%
X160655000Y-77215000D03*
%TD*%
D11*
%TO.P,D2,1,K*%
%TO.N,GND1*%
X158605000Y-72898000D03*
%TO.P,D2,2,A*%
%TO.N,Net-(D2-A)*%
X160180000Y-72898000D03*
%TD*%
D14*
%TO.P,SW1,1*%
%TO.N,Net-(R15-Pad2)*%
X162290000Y-85500000D03*
%TO.P,SW1,2*%
%TO.N,/Board/CAN_L_FD_1*%
X162290000Y-76600000D03*
%TD*%
D15*
%TO.P,J6,*%
%TO.N,*%
X175950000Y-75800000D03*
X165500000Y-75800000D03*
D16*
%TO.P,J6,1,Pin_1*%
%TO.N,/Board/CAN_H_FD_1*%
X173300000Y-82400000D03*
%TO.P,J6,2,Pin_2*%
%TO.N,/Board/CAN_L_FD_1*%
X170800000Y-82400000D03*
%TO.P,J6,3,Pin_3*%
%TO.N,GND1*%
X168300000Y-82400000D03*
%TD*%
D17*
%TO.P,U4,1,VDD1*%
%TO.N,+3V3*%
X149020000Y-75805000D03*
%TO.P,U4,2,GND1*%
%TO.N,GND*%
X149020000Y-77075000D03*
%TO.P,U4,3,TXD*%
%TO.N,Net-(U2-TXCAN)*%
X149020000Y-78345000D03*
%TO.P,U4,4,NC*%
%TO.N,unconnected-(U4-NC-Pad4)*%
X149020000Y-79615000D03*
%TO.P,U4,5,RXD*%
%TO.N,Net-(U2-RXCAN)*%
X149020000Y-80885000D03*
%TO.P,U4,6,NC*%
%TO.N,unconnected-(U4-NC-Pad6)*%
X149020000Y-82155000D03*
%TO.P,U4,7,GND1*%
%TO.N,GND*%
X149020000Y-83425000D03*
%TO.P,U4,8,GND1*%
X149020000Y-84695000D03*
%TO.P,U4,9,GND2*%
%TO.N,GND1*%
X158320000Y-84695000D03*
%TO.P,U4,10,GND2*%
X158320000Y-83425000D03*
%TO.P,U4,11,VDD2*%
%TO.N,+5P*%
X158320000Y-82155000D03*
%TO.P,U4,12,CANL*%
%TO.N,/Board/CAN_L_FD_1*%
X158320000Y-80885000D03*
%TO.P,U4,13,CANH*%
%TO.N,/Board/CAN_H_FD_1*%
X158320000Y-79615000D03*
%TO.P,U4,14,STB*%
%TO.N,GND1*%
X158320000Y-78345000D03*
%TO.P,U4,15,GND2*%
X158320000Y-77075000D03*
%TO.P,U4,16,VDD2*%
%TO.N,+5P*%
X158320000Y-75805000D03*
%TD*%
D11*
%TO.P,R4,1*%
%TO.N,+3V3*%
X132812500Y-73000000D03*
%TO.P,R4,2*%
%TO.N,Net-(D3-A2)*%
X134387500Y-73000000D03*
%TD*%
D18*
%TO.P,D1,1,K*%
%TO.N,GND*%
X148742500Y-73025000D03*
%TO.P,D1,2,A*%
%TO.N,Net-(D1-A)*%
X147167500Y-73025000D03*
%TD*%
D19*
%TO.P,J1,1,Pin_1*%
%TO.N,/Board/CAN_H_FD_1*%
X176700000Y-80975000D03*
D20*
%TO.P,J1,2,Pin_2*%
%TO.N,/Board/CAN_L_FD_1*%
X176700000Y-83515000D03*
%TO.P,J1,3,Pin_3*%
%TO.N,GND1*%
X176700000Y-86055000D03*
%TD*%
D11*
%TO.P,R1,1*%
%TO.N,+5V*%
X143992500Y-73025000D03*
%TO.P,R1,2*%
%TO.N,Net-(D1-A)*%
X145567500Y-73025000D03*
%TD*%
D18*
%TO.P,R2,1*%
%TO.N,+5P*%
X163347500Y-72888000D03*
%TO.P,R2,2*%
%TO.N,Net-(D2-A)*%
X161772500Y-72888000D03*
%TD*%
D21*
%TO.P,C4,1*%
%TO.N,Net-(U2-OSC1)*%
X143025000Y-75385000D03*
%TO.P,C4,2*%
%TO.N,GND*%
X144575000Y-75385000D03*
%TD*%
D22*
%TO.P,Y1,1,1*%
%TO.N,Net-(U2-OSC2)*%
X144675000Y-79360000D03*
%TO.P,Y1,2,2*%
%TO.N,GND*%
X144675000Y-77060000D03*
%TO.P,Y1,3,3*%
%TO.N,Net-(U2-OSC1)*%
X142820000Y-77060000D03*
%TO.P,Y1,4,4*%
%TO.N,GND*%
X142820000Y-79360000D03*
%TD*%
D23*
%TO.P,FID1,*%
%TO.N,*%
X113000000Y-73000000D03*
%TD*%
D24*
%TO.P,C3,1*%
%TO.N,Net-(U2-OSC2)*%
X144575000Y-81100000D03*
%TO.P,C3,2*%
%TO.N,GND*%
X143025000Y-81100000D03*
%TD*%
D25*
%TO.P,U2,1,TXCAN*%
%TO.N,Net-(U2-TXCAN)*%
X140400000Y-83780000D03*
%TO.P,U2,2,RXCAN*%
%TO.N,Net-(U2-RXCAN)*%
X140400000Y-82510000D03*
%TO.P,U2,3,CLKO*%
%TO.N,unconnected-(U2-CLKO-Pad3)*%
X140400000Y-81240000D03*
%TO.P,U2,4,INT*%
%TO.N,/Board/CAN_FD_1_INT*%
X140400000Y-79970000D03*
%TO.P,U2,5,OSC2*%
%TO.N,Net-(U2-OSC2)*%
X140400000Y-78700000D03*
%TO.P,U2,6,OSC1*%
%TO.N,Net-(U2-OSC1)*%
X140400000Y-77430000D03*
%TO.P,U2,7,VSS*%
%TO.N,GND*%
X140400000Y-76160000D03*
%TO.P,U2,8,INT1*%
%TO.N,/Board/RX_CAN_INT*%
X135450000Y-76160000D03*
%TO.P,U2,9,INT0*%
%TO.N,/Board/TX_CAN_INT*%
X135450000Y-77430000D03*
%TO.P,U2,10,SCK*%
%TO.N,/Board/SPI_SCK*%
X135450000Y-78700000D03*
%TO.P,U2,11,SDI*%
%TO.N,/Board/SPI_MOSI*%
X135450000Y-79970000D03*
%TO.P,U2,12,SDO*%
%TO.N,/Board/SPI_MISO*%
X135450000Y-81240000D03*
%TO.P,U2,13,nCS*%
%TO.N,/Board/CAN_FD_1_ChipSelect*%
X135450000Y-82510000D03*
%TO.P,U2,14,VDD*%
%TO.N,+3V3*%
X135450000Y-83780000D03*
%TD*%
D21*
%TO.P,C1,1*%
%TO.N,+3V3*%
X136825000Y-85360000D03*
%TO.P,C1,2*%
%TO.N,GND*%
X138375000Y-85360000D03*
%TD*%
D26*
%TO.P,D3,1,A1*%
%TO.N,Net-(D3-A1)*%
X136275000Y-74475000D03*
D27*
%TO.P,D3,2,K1*%
%TO.N,/Board/RX_CAN_INT*%
X139475000Y-74475000D03*
%TO.P,D3,3,A2*%
%TO.N,Net-(D3-A2)*%
X136275000Y-73075000D03*
%TO.P,D3,4,K2*%
%TO.N,/Board/TX_CAN_INT*%
X139475000Y-73075000D03*
%TD*%
D13*
%TO.P,C7,1*%
%TO.N,+3V3*%
X146750320Y-75665000D03*
%TO.P,C7,2*%
%TO.N,GND*%
X146750320Y-77215000D03*
%TD*%
D28*
%TO.N,+3V3*%
X133525000Y-77125000D03*
X137450000Y-83800000D03*
%TO.N,GND*%
X140325000Y-85375000D03*
X141475000Y-74475000D03*
X142040000Y-81100000D03*
X145750000Y-78200000D03*
%TO.N,+5P*%
X156286200Y-82169000D03*
X161000000Y-83000000D03*
%TO.N,GND1*%
X156972000Y-72898000D03*
X161100000Y-78500000D03*
X165750000Y-84750000D03*
X163110000Y-74940000D03*
X160050000Y-83650000D03*
X165750000Y-84750000D03*
X163110000Y-74940000D03*
%TO.N,/Board/CAN_H_FD_1*%
X160158400Y-79615000D03*
X165300000Y-80238600D03*
%TO.N,+5V*%
X142773400Y-73025000D03*
%TO.N,Net-(U2-TXCAN)*%
X142671800Y-83845400D03*
X146761200Y-78638400D03*
%TO.N,/Board/CAN_FD_1_INT*%
X131114800Y-84556600D03*
X138099800Y-79984600D03*
%TO.N,/Board/SPI_SCK*%
X131891400Y-78700000D03*
%TO.N,/Board/SPI_MOSI*%
X125120400Y-79959200D03*
%TO.N,/Board/TX_CAN_INT*%
X137900000Y-73874500D03*
X137900000Y-77400000D03*
%TD*%
D29*
%TO.N,+3V3*%
X146890320Y-75805000D02*
X146750320Y-75665000D01*
X135450000Y-84980200D02*
X135450000Y-83780000D01*
X136825000Y-85360000D02*
X135829800Y-85360000D01*
D30*
X150836600Y-75805000D02*
X151433531Y-76401931D01*
D29*
X132812500Y-75787500D02*
X133525000Y-76500000D01*
X135470000Y-83800000D02*
X135450000Y-83780000D01*
D30*
X149020000Y-75805000D02*
X150836600Y-75805000D01*
X136855200Y-86588600D02*
X136855200Y-85390200D01*
D29*
X135829800Y-85360000D02*
X135450000Y-84980200D01*
X137450000Y-83800000D02*
X135470000Y-83800000D01*
X132812500Y-74550000D02*
X132812500Y-75787500D01*
D30*
X138086624Y-87820024D02*
X136855200Y-86588600D01*
X151433531Y-87820024D02*
X138086624Y-87820024D01*
D29*
X136855200Y-85390200D02*
X136825000Y-85360000D01*
X149020000Y-75805000D02*
X146890320Y-75805000D01*
D30*
X151433531Y-76401931D02*
X151433531Y-87820024D01*
D29*
X133525000Y-76500000D02*
X133525000Y-77125000D01*
X132812500Y-73000000D02*
X132812500Y-74550000D01*
%TO.N,GND*%
X145750000Y-78200000D02*
X144675000Y-77125000D01*
X144675000Y-77125000D02*
X144675000Y-77060000D01*
X150725000Y-77500000D02*
X150725000Y-83000000D01*
X149020000Y-77075000D02*
X150300000Y-77075000D01*
X146890320Y-77075000D02*
X146750320Y-77215000D01*
X143025000Y-81100000D02*
X142040000Y-81100000D01*
X149020000Y-83425000D02*
X149020000Y-84695000D01*
X140400000Y-75550000D02*
X141475000Y-74475000D01*
X150300000Y-77075000D02*
X150725000Y-77500000D01*
X138375000Y-85360000D02*
X140310000Y-85360000D01*
X140400000Y-76160000D02*
X140400000Y-75550000D01*
X140310000Y-85360000D02*
X140325000Y-85375000D01*
X150725000Y-83000000D02*
X150300000Y-83425000D01*
X150300000Y-83425000D02*
X149020000Y-83425000D01*
X149020000Y-77075000D02*
X146890320Y-77075000D01*
%TO.N,Net-(U2-OSC2)*%
X142123000Y-78232000D02*
X141655000Y-78700000D01*
X143713200Y-78232000D02*
X142123000Y-78232000D01*
X144675000Y-79360000D02*
X144675000Y-79193800D01*
X141655000Y-78700000D02*
X140400000Y-78700000D01*
X144575000Y-81100000D02*
X144575000Y-79460000D01*
X144575000Y-79460000D02*
X144675000Y-79360000D01*
X144675000Y-79193800D02*
X143713200Y-78232000D01*
%TO.N,Net-(U2-OSC1)*%
X143025000Y-76855000D02*
X142820000Y-77060000D01*
X141695800Y-77430000D02*
X140400000Y-77430000D01*
X142820000Y-77060000D02*
X142065800Y-77060000D01*
X142065800Y-77060000D02*
X141695800Y-77430000D01*
X143025000Y-75385000D02*
X143025000Y-76855000D01*
%TO.N,+5P*%
X160655000Y-75665000D02*
X160782000Y-75538000D01*
X162385500Y-73850000D02*
X163347500Y-72888000D01*
X158320000Y-75805000D02*
X160515000Y-75805000D01*
D30*
X156286200Y-76327000D02*
X156808200Y-75805000D01*
X156808200Y-75805000D02*
X158320000Y-75805000D01*
D29*
X161050000Y-73850000D02*
X162385500Y-73850000D01*
X160782000Y-74118000D02*
X161050000Y-73850000D01*
D30*
X158320000Y-82155000D02*
X160155000Y-82155000D01*
X156286200Y-82169000D02*
X156286200Y-76327000D01*
X158320000Y-82155000D02*
X156300200Y-82155000D01*
D29*
X160515000Y-75805000D02*
X160655000Y-75665000D01*
X156300200Y-82155000D02*
X156286200Y-82169000D01*
D30*
X160155000Y-82155000D02*
X161000000Y-83000000D01*
D29*
X160782000Y-75538000D02*
X160782000Y-74118000D01*
%TO.N,GND1*%
X160655000Y-77215000D02*
X160655000Y-78055000D01*
X158605000Y-72898000D02*
X156972000Y-72898000D01*
X158320000Y-83425000D02*
X158320000Y-84695000D01*
X159695000Y-84695000D02*
X160500000Y-85500000D01*
X158320000Y-77075000D02*
X158320000Y-78345000D01*
X158320000Y-83425000D02*
X159825000Y-83425000D01*
X160500000Y-86000000D02*
X161075000Y-86575000D01*
X160655000Y-78055000D02*
X161100000Y-78500000D01*
X164000000Y-86000000D02*
X164000000Y-85500000D01*
X159892000Y-77215000D02*
X159752000Y-77075000D01*
X158320000Y-84695000D02*
X159695000Y-84695000D01*
X161075000Y-86575000D02*
X163425000Y-86575000D01*
X159825000Y-83425000D02*
X160050000Y-83650000D01*
X164000000Y-85500000D02*
X164750000Y-84750000D01*
X163425000Y-86575000D02*
X164000000Y-86000000D01*
X160655000Y-77215000D02*
X159892000Y-77215000D01*
X160500000Y-85500000D02*
X160500000Y-86000000D01*
X159752000Y-77075000D02*
X158320000Y-77075000D01*
X164750000Y-84750000D02*
X165750000Y-84750000D01*
%TO.N,Net-(D1-A)*%
X145567500Y-73025000D02*
X147167500Y-73025000D01*
%TO.N,Net-(D2-A)*%
X160180000Y-72898000D02*
X161762500Y-72898000D01*
X161762500Y-72898000D02*
X161772500Y-72888000D01*
%TO.N,/Board/CAN_H_FD_1*%
X175158600Y-80975000D02*
X174828200Y-81305400D01*
X160172400Y-79629000D02*
X160158400Y-79615000D01*
X176700000Y-80975000D02*
X175158600Y-80975000D01*
X174368600Y-82400000D02*
X173300000Y-82400000D01*
X158320000Y-79615000D02*
X160158400Y-79615000D01*
X174828200Y-81940400D02*
X174368600Y-82400000D01*
X174828200Y-81305400D02*
X174828200Y-81940400D01*
X165300000Y-80238600D02*
X165300000Y-81212500D01*
%TO.N,/Board/CAN_L_FD_1*%
X176700000Y-83515000D02*
X175328200Y-84886800D01*
X161611400Y-79460000D02*
X162600000Y-79460000D01*
X170800000Y-82400000D02*
X170800000Y-80223600D01*
X170800000Y-80223600D02*
X170027600Y-79451200D01*
X162290000Y-76600000D02*
X162290000Y-78781400D01*
X160186400Y-80885000D02*
X161611400Y-79460000D01*
X170018800Y-79460000D02*
X162600000Y-79460000D01*
X158320000Y-80885000D02*
X160186400Y-80885000D01*
X162290000Y-78781400D02*
X161611400Y-79460000D01*
X170027600Y-79451200D02*
X170018800Y-79460000D01*
X170800000Y-84287600D02*
X170800000Y-82400000D01*
X175328200Y-84886800D02*
X171399200Y-84886800D01*
X171399200Y-84886800D02*
X170800000Y-84287600D01*
%TO.N,+5V*%
X143992500Y-73025000D02*
X142773400Y-73025000D01*
%TO.N,Net-(U2-TXCAN)*%
X147054600Y-78345000D02*
X146761200Y-78638400D01*
X142671800Y-83845400D02*
X140465400Y-83845400D01*
X140465400Y-83845400D02*
X140400000Y-83780000D01*
X149020000Y-78345000D02*
X147054600Y-78345000D01*
%TO.N,Net-(U2-RXCAN)*%
X144820000Y-82510000D02*
X146431000Y-80899000D01*
X149006000Y-80899000D02*
X149020000Y-80885000D01*
X140400000Y-82510000D02*
X144820000Y-82510000D01*
X146431000Y-80899000D02*
X149006000Y-80899000D01*
%TO.N,/Board/CAN_FD_1_INT*%
X140400000Y-79970000D02*
X138114400Y-79970000D01*
X131113531Y-87820024D02*
X131113531Y-84557869D01*
X138114400Y-79970000D02*
X138099800Y-79984600D01*
X131113531Y-84557869D02*
X131114800Y-84556600D01*
%TO.N,/Board/SPI_SCK*%
X131876800Y-78714600D02*
X131891400Y-78700000D01*
X135450000Y-78700000D02*
X131891400Y-78700000D01*
%TO.N,/Board/SPI_MOSI*%
X125120400Y-79959200D02*
X125131200Y-79970000D01*
X125131200Y-79970000D02*
X135450000Y-79970000D01*
%TO.N,/Board/SPI_MISO*%
X121579000Y-81240000D02*
X120953531Y-81865469D01*
X135450000Y-81240000D02*
X121579000Y-81240000D01*
X120953531Y-81865469D02*
X120953531Y-87820024D01*
%TO.N,/Board/CAN_FD_1_ChipSelect*%
X135450000Y-82510000D02*
X124881000Y-82510000D01*
X123493531Y-83897469D02*
X123493531Y-87820024D01*
X124881000Y-82510000D02*
X123493531Y-83897469D01*
%TO.N,Net-(R15-Pad2)*%
X162390000Y-85400000D02*
X162290000Y-85500000D01*
X165240300Y-82727800D02*
X163245800Y-82727800D01*
X165300000Y-82787500D02*
X165240300Y-82727800D01*
X163245800Y-82727800D02*
X162390000Y-83583600D01*
X162390000Y-83583600D02*
X162390000Y-85400000D01*
%TO.N,Net-(D3-A1)*%
X134387500Y-74550000D02*
X136200000Y-74550000D01*
X136200000Y-74550000D02*
X136275000Y-74475000D01*
%TO.N,/Board/RX_CAN_INT*%
X137790000Y-76160000D02*
X135450000Y-76160000D01*
X139475000Y-74475000D02*
X137790000Y-76160000D01*
%TO.N,Net-(D3-A2)*%
X134387500Y-73000000D02*
X136200000Y-73000000D01*
X136200000Y-73000000D02*
X136275000Y-73075000D01*
%TO.N,/Board/TX_CAN_INT*%
X139475000Y-73075000D02*
X138699500Y-73075000D01*
X135480000Y-77400000D02*
X135450000Y-77430000D01*
X138699500Y-73075000D02*
X137900000Y-73874500D01*
X137900000Y-77400000D02*
X135480000Y-77400000D01*
%TD*%
%TA.AperFunction,Conductor*%
%TO.N,GND*%
G36*
X132088005Y-72019685D02*
G01*
X132133760Y-72072489D01*
X132143704Y-72141647D01*
X132114679Y-72205203D01*
X132108647Y-72211681D01*
X132025719Y-72294608D01*
X132025716Y-72294612D01*
X131937455Y-72437704D01*
X131937450Y-72437715D01*
X131929096Y-72462927D01*
X131884564Y-72597315D01*
X131884564Y-72597316D01*
X131884563Y-72597316D01*
X131874500Y-72695818D01*
X131874500Y-73304181D01*
X131884563Y-73402683D01*
X131937450Y-73562284D01*
X131937452Y-73562289D01*
X132028502Y-73709903D01*
X132046942Y-73777295D01*
X132028502Y-73840097D01*
X131937452Y-73987710D01*
X131937450Y-73987715D01*
X131933380Y-73999998D01*
X131884564Y-74147315D01*
X131884564Y-74147316D01*
X131884563Y-74147316D01*
X131874500Y-74245818D01*
X131874500Y-74854181D01*
X131884563Y-74952683D01*
X131937450Y-75112284D01*
X131937455Y-75112295D01*
X132025716Y-75255387D01*
X132025719Y-75255391D01*
X132149716Y-75379388D01*
X132147632Y-75381471D01*
X132180286Y-75427584D01*
X132187000Y-75467832D01*
X132187000Y-75849109D01*
X132192929Y-75878915D01*
X132192929Y-75878917D01*
X132211035Y-75969945D01*
X132211037Y-75969952D01*
X132218284Y-75987448D01*
X132218285Y-75987452D01*
X132218286Y-75987452D01*
X132258185Y-76083780D01*
X132258190Y-76083789D01*
X132292414Y-76135007D01*
X132292415Y-76135009D01*
X132326641Y-76186233D01*
X132418086Y-76277678D01*
X132418108Y-76277698D01*
X132703490Y-76563080D01*
X132736975Y-76624403D01*
X132731991Y-76694095D01*
X132723198Y-76712758D01*
X132697821Y-76756714D01*
X132639327Y-76936740D01*
X132639326Y-76936744D01*
X132619540Y-77125000D01*
X132639326Y-77313256D01*
X132639327Y-77313259D01*
X132697818Y-77493277D01*
X132697821Y-77493284D01*
X132792467Y-77657216D01*
X132919129Y-77797888D01*
X132982015Y-77843577D01*
X132991106Y-77850182D01*
X133033771Y-77905512D01*
X133039750Y-77975125D01*
X133007144Y-78036920D01*
X132946305Y-78071278D01*
X132918220Y-78074500D01*
X132595148Y-78074500D01*
X132528109Y-78054815D01*
X132503000Y-78033474D01*
X132497273Y-78027114D01*
X132497269Y-78027110D01*
X132344134Y-77915851D01*
X132344129Y-77915848D01*
X132171207Y-77838857D01*
X132171202Y-77838855D01*
X132025401Y-77807865D01*
X131986046Y-77799500D01*
X131796754Y-77799500D01*
X131764297Y-77806398D01*
X131611597Y-77838855D01*
X131611592Y-77838857D01*
X131438670Y-77915848D01*
X131438665Y-77915851D01*
X131285529Y-78027111D01*
X131158866Y-78167785D01*
X131064221Y-78331715D01*
X131064218Y-78331722D01*
X131014641Y-78484306D01*
X131005726Y-78511744D01*
X130985940Y-78700000D01*
X131005726Y-78888256D01*
X131005727Y-78888259D01*
X131064218Y-79068277D01*
X131064221Y-79068284D01*
X131116307Y-79158500D01*
X131132780Y-79226401D01*
X131109927Y-79292427D01*
X131055006Y-79335618D01*
X131008920Y-79344500D01*
X125833872Y-79344500D01*
X125766833Y-79324815D01*
X125741722Y-79303472D01*
X125730822Y-79291366D01*
X125726271Y-79286312D01*
X125726270Y-79286311D01*
X125726264Y-79286306D01*
X125573134Y-79175051D01*
X125573129Y-79175048D01*
X125400207Y-79098057D01*
X125400202Y-79098055D01*
X125254401Y-79067065D01*
X125215046Y-79058700D01*
X125025754Y-79058700D01*
X124993297Y-79065598D01*
X124840597Y-79098055D01*
X124840592Y-79098057D01*
X124667670Y-79175048D01*
X124667665Y-79175051D01*
X124514529Y-79286311D01*
X124387866Y-79426985D01*
X124293221Y-79590915D01*
X124293218Y-79590922D01*
X124234727Y-79770940D01*
X124234726Y-79770944D01*
X124214940Y-79959200D01*
X124234726Y-80147456D01*
X124234727Y-80147459D01*
X124293218Y-80327477D01*
X124293220Y-80327481D01*
X124293221Y-80327484D01*
X124319164Y-80372418D01*
X124351543Y-80428501D01*
X124368015Y-80496401D01*
X124345162Y-80562428D01*
X124290240Y-80605618D01*
X124244155Y-80614500D01*
X121517394Y-80614500D01*
X121456971Y-80626518D01*
X121396546Y-80638537D01*
X121382415Y-80644391D01*
X121382414Y-80644390D01*
X121282715Y-80685686D01*
X121272627Y-80692428D01*
X121272626Y-80692429D01*
X121180268Y-80754140D01*
X121151789Y-80782620D01*
X121093142Y-80841267D01*
X120467675Y-81466733D01*
X120467669Y-81466741D01*
X120399221Y-81569177D01*
X120399219Y-81569182D01*
X120352071Y-81683007D01*
X120352066Y-81683023D01*
X120337102Y-81758257D01*
X120328031Y-81803858D01*
X120328031Y-86544797D01*
X120308346Y-86611836D01*
X120275154Y-86646372D01*
X120082128Y-86781529D01*
X119915036Y-86948621D01*
X119785106Y-87134182D01*
X119730529Y-87177807D01*
X119661031Y-87185001D01*
X119598676Y-87153478D01*
X119581956Y-87134182D01*
X119452025Y-86948621D01*
X119284933Y-86781530D01*
X119284926Y-86781525D01*
X119091365Y-86645991D01*
X119091361Y-86645989D01*
X119039031Y-86621587D01*
X118877194Y-86546121D01*
X118877190Y-86546120D01*
X118877186Y-86546118D01*
X118648944Y-86484962D01*
X118648934Y-86484960D01*
X118413532Y-86464365D01*
X118413530Y-86464365D01*
X118178127Y-86484960D01*
X118178117Y-86484962D01*
X117949875Y-86546118D01*
X117949866Y-86546122D01*
X117735702Y-86645988D01*
X117735700Y-86645989D01*
X117542128Y-86781529D01*
X117375036Y-86948621D01*
X117245106Y-87134182D01*
X117190529Y-87177807D01*
X117121031Y-87185001D01*
X117058676Y-87153478D01*
X117041956Y-87134182D01*
X116912025Y-86948621D01*
X116744933Y-86781530D01*
X116744926Y-86781525D01*
X116551365Y-86645991D01*
X116551361Y-86645989D01*
X116499031Y-86621587D01*
X116337194Y-86546121D01*
X116337190Y-86546120D01*
X116337186Y-86546118D01*
X116108944Y-86484962D01*
X116108934Y-86484960D01*
X115873532Y-86464365D01*
X115873530Y-86464365D01*
X115638127Y-86484960D01*
X115638117Y-86484962D01*
X115409875Y-86546118D01*
X115409866Y-86546122D01*
X115195702Y-86645988D01*
X115195700Y-86645989D01*
X115002128Y-86781529D01*
X114835036Y-86948621D01*
X114699496Y-87142193D01*
X114699495Y-87142195D01*
X114599629Y-87356359D01*
X114599625Y-87356368D01*
X114538469Y-87584610D01*
X114538467Y-87584620D01*
X114517872Y-87820023D01*
X114517872Y-87820024D01*
X114538467Y-88055427D01*
X114538469Y-88055437D01*
X114599625Y-88283679D01*
X114599627Y-88283683D01*
X114599628Y-88283687D01*
X114699496Y-88497854D01*
X114835036Y-88691425D01*
X115002130Y-88858519D01*
X115098915Y-88926289D01*
X115195696Y-88994056D01*
X115195698Y-88994057D01*
X115195701Y-88994059D01*
X115409868Y-89093927D01*
X115638123Y-89155087D01*
X115826449Y-89171563D01*
X115873530Y-89175683D01*
X115873531Y-89175683D01*
X115873532Y-89175683D01*
X115920256Y-89171595D01*
X116108939Y-89155087D01*
X116337194Y-89093927D01*
X116551361Y-88994059D01*
X116744932Y-88858519D01*
X116912026Y-88691425D01*
X117041956Y-88505866D01*
X117096533Y-88462241D01*
X117166031Y-88455047D01*
X117228386Y-88486570D01*
X117245106Y-88505866D01*
X117375031Y-88691419D01*
X117375036Y-88691425D01*
X117542130Y-88858519D01*
X117638915Y-88926289D01*
X117735696Y-88994056D01*
X117735698Y-88994057D01*
X117735701Y-88994059D01*
X117949868Y-89093927D01*
X118178123Y-89155087D01*
X118366449Y-89171563D01*
X118413530Y-89175683D01*
X118413531Y-89175683D01*
X118413532Y-89175683D01*
X118460256Y-89171595D01*
X118648939Y-89155087D01*
X118877194Y-89093927D01*
X119091361Y-88994059D01*
X119284932Y-88858519D01*
X119452026Y-88691425D01*
X119581956Y-88505866D01*
X119636533Y-88462241D01*
X119706031Y-88455047D01*
X119768386Y-88486570D01*
X119785106Y-88505866D01*
X119915031Y-88691419D01*
X119915036Y-88691425D01*
X120082130Y-88858519D01*
X120178915Y-88926289D01*
X120275696Y-88994056D01*
X120275698Y-88994057D01*
X120275701Y-88994059D01*
X120489868Y-89093927D01*
X120718123Y-89155087D01*
X120906449Y-89171563D01*
X120953530Y-89175683D01*
X120953531Y-89175683D01*
X120953532Y-89175683D01*
X121000256Y-89171595D01*
X121188939Y-89155087D01*
X121417194Y-89093927D01*
X121631361Y-88994059D01*
X121824932Y-88858519D01*
X121992026Y-88691425D01*
X122121956Y-88505866D01*
X122176533Y-88462241D01*
X122246031Y-88455047D01*
X122308386Y-88486570D01*
X122325106Y-88505866D01*
X122455031Y-88691419D01*
X122455036Y-88691425D01*
X122622130Y-88858519D01*
X122718915Y-88926289D01*
X122815696Y-88994056D01*
X122815698Y-88994057D01*
X122815701Y-88994059D01*
X123029868Y-89093927D01*
X123258123Y-89155087D01*
X123446449Y-89171563D01*
X123493530Y-89175683D01*
X123493531Y-89175683D01*
X123493532Y-89175683D01*
X123540256Y-89171595D01*
X123728939Y-89155087D01*
X123957194Y-89093927D01*
X124171361Y-88994059D01*
X124364932Y-88858519D01*
X124532026Y-88691425D01*
X124661956Y-88505866D01*
X124716533Y-88462241D01*
X124786031Y-88455047D01*
X124848386Y-88486570D01*
X124865106Y-88505866D01*
X124995031Y-88691419D01*
X124995036Y-88691425D01*
X125162130Y-88858519D01*
X125258915Y-88926289D01*
X125355696Y-88994056D01*
X125355698Y-88994057D01*
X125355701Y-88994059D01*
X125569868Y-89093927D01*
X125798123Y-89155087D01*
X125986449Y-89171563D01*
X126033530Y-89175683D01*
X126033531Y-89175683D01*
X126033532Y-89175683D01*
X126080256Y-89171595D01*
X126268939Y-89155087D01*
X126497194Y-89093927D01*
X126711361Y-88994059D01*
X126904932Y-88858519D01*
X127072026Y-88691425D01*
X127201956Y-88505866D01*
X127256533Y-88462241D01*
X127326031Y-88455047D01*
X127388386Y-88486570D01*
X127405106Y-88505866D01*
X127535031Y-88691419D01*
X127535036Y-88691425D01*
X127702130Y-88858519D01*
X127798915Y-88926289D01*
X127895696Y-88994056D01*
X127895698Y-88994057D01*
X127895701Y-88994059D01*
X128109868Y-89093927D01*
X128338123Y-89155087D01*
X128526449Y-89171563D01*
X128573530Y-89175683D01*
X128573531Y-89175683D01*
X128573532Y-89175683D01*
X128620256Y-89171595D01*
X128808939Y-89155087D01*
X129037194Y-89093927D01*
X129251361Y-88994059D01*
X129444932Y-88858519D01*
X129612026Y-88691425D01*
X129741956Y-88505866D01*
X129796533Y-88462241D01*
X129866031Y-88455047D01*
X129928386Y-88486570D01*
X129945106Y-88505866D01*
X130075031Y-88691419D01*
X130075036Y-88691425D01*
X130242130Y-88858519D01*
X130338915Y-88926289D01*
X130435696Y-88994056D01*
X130435698Y-88994057D01*
X130435701Y-88994059D01*
X130649868Y-89093927D01*
X130878123Y-89155087D01*
X131066449Y-89171563D01*
X131113530Y-89175683D01*
X131113531Y-89175683D01*
X131113532Y-89175683D01*
X131160256Y-89171595D01*
X131348939Y-89155087D01*
X131577194Y-89093927D01*
X131791361Y-88994059D01*
X131984932Y-88858519D01*
X132152026Y-88691425D01*
X132282263Y-88505427D01*
X132336838Y-88461804D01*
X132406336Y-88454610D01*
X132468691Y-88486133D01*
X132485411Y-88505429D01*
X132538604Y-88581397D01*
X133170568Y-87949433D01*
X133187606Y-88013017D01*
X133253432Y-88127031D01*
X133346524Y-88220123D01*
X133460538Y-88285949D01*
X133524121Y-88302986D01*
X132892156Y-88934949D01*
X132975952Y-88993623D01*
X133190038Y-89093453D01*
X133190047Y-89093457D01*
X133418204Y-89154591D01*
X133418215Y-89154593D01*
X133653529Y-89175181D01*
X133653533Y-89175181D01*
X133888846Y-89154593D01*
X133888857Y-89154591D01*
X134117014Y-89093457D01*
X134117023Y-89093453D01*
X134331109Y-88993624D01*
X134331113Y-88993622D01*
X134414904Y-88934950D01*
X134414904Y-88934949D01*
X133782940Y-88302986D01*
X133846524Y-88285949D01*
X133960538Y-88220123D01*
X134053630Y-88127031D01*
X134119456Y-88013017D01*
X134136493Y-87949433D01*
X134768456Y-88581397D01*
X134768457Y-88581397D01*
X134827129Y-88497606D01*
X134827131Y-88497602D01*
X134926960Y-88283516D01*
X134926964Y-88283507D01*
X134988098Y-88055350D01*
X134988100Y-88055339D01*
X135008688Y-87820025D01*
X135008688Y-87820022D01*
X134988100Y-87584708D01*
X134988098Y-87584697D01*
X134926964Y-87356540D01*
X134926960Y-87356531D01*
X134827131Y-87142447D01*
X134827130Y-87142445D01*
X134768456Y-87058650D01*
X134768456Y-87058649D01*
X134136493Y-87690613D01*
X134119456Y-87627031D01*
X134053630Y-87513017D01*
X133960538Y-87419925D01*
X133846524Y-87354099D01*
X133782941Y-87337061D01*
X134414904Y-86705097D01*
X134414904Y-86705096D01*
X134331114Y-86646426D01*
X134331110Y-86646424D01*
X134117023Y-86546594D01*
X134117014Y-86546590D01*
X133888857Y-86485456D01*
X133888846Y-86485454D01*
X133653533Y-86464867D01*
X133653529Y-86464867D01*
X133418215Y-86485454D01*
X133418204Y-86485456D01*
X133190047Y-86546590D01*
X133190038Y-86546594D01*
X132975950Y-86646425D01*
X132892156Y-86705096D01*
X133524121Y-87337061D01*
X133460538Y-87354099D01*
X133346524Y-87419925D01*
X133253432Y-87513017D01*
X133187606Y-87627031D01*
X133170568Y-87690613D01*
X132538604Y-87058650D01*
X132485412Y-87134618D01*
X132430835Y-87178243D01*
X132361337Y-87185437D01*
X132298982Y-87153915D01*
X132282261Y-87134618D01*
X132152025Y-86948621D01*
X131984933Y-86781530D01*
X131984932Y-86781529D01*
X131814967Y-86662518D01*
X131791907Y-86646371D01*
X131748282Y-86591794D01*
X131739031Y-86544796D01*
X131739031Y-85256696D01*
X131758716Y-85189657D01*
X131770881Y-85173724D01*
X131780851Y-85162651D01*
X131847333Y-85088816D01*
X131941979Y-84924884D01*
X132000474Y-84744856D01*
X132020260Y-84556600D01*
X132000474Y-84368344D01*
X131945912Y-84200423D01*
X131941981Y-84188322D01*
X131941980Y-84188321D01*
X131941979Y-84188316D01*
X131847333Y-84024384D01*
X131720671Y-83883712D01*
X131720670Y-83883711D01*
X131567534Y-83772451D01*
X131567529Y-83772448D01*
X131394607Y-83695457D01*
X131394602Y-83695455D01*
X131248801Y-83664465D01*
X131209446Y-83656100D01*
X131020154Y-83656100D01*
X130987697Y-83662998D01*
X130834997Y-83695455D01*
X130834992Y-83695457D01*
X130662070Y-83772448D01*
X130662065Y-83772451D01*
X130508929Y-83883711D01*
X130382266Y-84024385D01*
X130287621Y-84188315D01*
X130287618Y-84188322D01*
X130231597Y-84360738D01*
X130229126Y-84368344D01*
X130209340Y-84556600D01*
X130229126Y-84744856D01*
X130229127Y-84744859D01*
X130287618Y-84924877D01*
X130287621Y-84924884D01*
X130382264Y-85088812D01*
X130382265Y-85088814D01*
X130382267Y-85088816D01*
X130456182Y-85170906D01*
X130486411Y-85233896D01*
X130488031Y-85253877D01*
X130488031Y-86544797D01*
X130468346Y-86611836D01*
X130435154Y-86646372D01*
X130242128Y-86781529D01*
X130075036Y-86948621D01*
X129945106Y-87134182D01*
X129890529Y-87177807D01*
X129821031Y-87185001D01*
X129758676Y-87153478D01*
X129741956Y-87134182D01*
X129612025Y-86948621D01*
X129444933Y-86781530D01*
X129444926Y-86781525D01*
X129251365Y-86645991D01*
X129251361Y-86645989D01*
X129199031Y-86621587D01*
X129037194Y-86546121D01*
X129037190Y-86546120D01*
X129037186Y-86546118D01*
X128808944Y-86484962D01*
X128808934Y-86484960D01*
X128573532Y-86464365D01*
X128573530Y-86464365D01*
X128338127Y-86484960D01*
X128338117Y-86484962D01*
X128109875Y-86546118D01*
X128109866Y-86546122D01*
X127895702Y-86645988D01*
X127895700Y-86645989D01*
X127702128Y-86781529D01*
X127535036Y-86948621D01*
X127405106Y-87134182D01*
X127350529Y-87177807D01*
X127281031Y-87185001D01*
X127218676Y-87153478D01*
X127201956Y-87134182D01*
X127072025Y-86948621D01*
X126904933Y-86781530D01*
X126904926Y-86781525D01*
X126711365Y-86645991D01*
X126711361Y-86645989D01*
X126659031Y-86621587D01*
X126497194Y-86546121D01*
X126497190Y-86546120D01*
X126497186Y-86546118D01*
X126268944Y-86484962D01*
X126268934Y-86484960D01*
X126033532Y-86464365D01*
X126033530Y-86464365D01*
X125798127Y-86484960D01*
X125798117Y-86484962D01*
X125569875Y-86546118D01*
X125569866Y-86546122D01*
X125355702Y-86645988D01*
X125355700Y-86645989D01*
X125162128Y-86781529D01*
X124995036Y-86948621D01*
X124865106Y-87134182D01*
X124810529Y-87177807D01*
X124741031Y-87185001D01*
X124678676Y-87153478D01*
X124661956Y-87134182D01*
X124532025Y-86948621D01*
X124364933Y-86781530D01*
X124364932Y-86781529D01*
X124194967Y-86662518D01*
X124171907Y-86646371D01*
X124128282Y-86591794D01*
X124119031Y-86544796D01*
X124119031Y-84207921D01*
X124138716Y-84140882D01*
X124155350Y-84120240D01*
X125103772Y-83171819D01*
X125165095Y-83138334D01*
X125191453Y-83135500D01*
X133944308Y-83135500D01*
X134011347Y-83155185D01*
X134057102Y-83207989D01*
X134067046Y-83277147D01*
X134051041Y-83322620D01*
X134023254Y-83369605D01*
X134023254Y-83369606D01*
X133977402Y-83527426D01*
X133977401Y-83527432D01*
X133974500Y-83564298D01*
X133974500Y-83995701D01*
X133977401Y-84032567D01*
X133977402Y-84032573D01*
X134023254Y-84190393D01*
X134023255Y-84190396D01*
X134106917Y-84331862D01*
X134106923Y-84331870D01*
X134223129Y-84448076D01*
X134223133Y-84448079D01*
X134223135Y-84448081D01*
X134364602Y-84531744D01*
X134406224Y-84543836D01*
X134522426Y-84577597D01*
X134522429Y-84577597D01*
X134522431Y-84577598D01*
X134559306Y-84580500D01*
X134700500Y-84580500D01*
X134767539Y-84600185D01*
X134813294Y-84652989D01*
X134824500Y-84704500D01*
X134824500Y-85041811D01*
X134848535Y-85162644D01*
X134848540Y-85162661D01*
X134895685Y-85276481D01*
X134895689Y-85276488D01*
X134910324Y-85298389D01*
X134910325Y-85298394D01*
X134910327Y-85298394D01*
X134964141Y-85378932D01*
X134964144Y-85378936D01*
X135055586Y-85470378D01*
X135055608Y-85470398D01*
X135340816Y-85755606D01*
X135340845Y-85755637D01*
X135431063Y-85845855D01*
X135431067Y-85845858D01*
X135533507Y-85914307D01*
X135533516Y-85914312D01*
X135554539Y-85923020D01*
X135647348Y-85961463D01*
X135707771Y-85973481D01*
X135768193Y-85985500D01*
X135768194Y-85985500D01*
X135909996Y-85985500D01*
X135977035Y-86005185D01*
X136015535Y-86044404D01*
X136027031Y-86063043D01*
X136068381Y-86104393D01*
X136101866Y-86165716D01*
X136104700Y-86192074D01*
X136104700Y-86662518D01*
X136104700Y-86662520D01*
X136104699Y-86662520D01*
X136133540Y-86807507D01*
X136133542Y-86807513D01*
X136190116Y-86944095D01*
X136193134Y-86948611D01*
X136193138Y-86948625D01*
X136193142Y-86948623D01*
X136266657Y-87058649D01*
X136272251Y-87067020D01*
X136272252Y-87067021D01*
X137503673Y-88298440D01*
X137608208Y-88402975D01*
X137608211Y-88402977D01*
X137608212Y-88402978D01*
X137731118Y-88485101D01*
X137731120Y-88485102D01*
X137731129Y-88485108D01*
X137761899Y-88497853D01*
X137761900Y-88497854D01*
X137761901Y-88497854D01*
X137781243Y-88505866D01*
X137794698Y-88511439D01*
X137849101Y-88555280D01*
X137871166Y-88621574D01*
X137853887Y-88689274D01*
X137802749Y-88736884D01*
X137747245Y-88750000D01*
X135249999Y-88750000D01*
X134750000Y-89249999D01*
X134750000Y-90876000D01*
X134730315Y-90943039D01*
X134677511Y-90988794D01*
X134626000Y-91000000D01*
X114874000Y-91000000D01*
X114806961Y-90980315D01*
X114761206Y-90927511D01*
X114750000Y-90876000D01*
X114750000Y-89250000D01*
X114250000Y-88750000D01*
X112551362Y-88750000D01*
X112484323Y-88730315D01*
X112463681Y-88713681D01*
X111786319Y-88036319D01*
X111752834Y-87974996D01*
X111750000Y-87948638D01*
X111750000Y-73000000D01*
X112494353Y-73000000D01*
X112514834Y-73142456D01*
X112574622Y-73273371D01*
X112574623Y-73273373D01*
X112668872Y-73382143D01*
X112789947Y-73459953D01*
X112789950Y-73459954D01*
X112789949Y-73459954D01*
X112928036Y-73500499D01*
X112928038Y-73500500D01*
X112928039Y-73500500D01*
X113071962Y-73500500D01*
X113071962Y-73500499D01*
X113210053Y-73459953D01*
X113331128Y-73382143D01*
X113425377Y-73273373D01*
X113485165Y-73142457D01*
X113505647Y-73000000D01*
X113485165Y-72857543D01*
X113425377Y-72726627D01*
X113331128Y-72617857D01*
X113210053Y-72540047D01*
X113210051Y-72540046D01*
X113210049Y-72540045D01*
X113210050Y-72540045D01*
X113071963Y-72499500D01*
X113071961Y-72499500D01*
X112928039Y-72499500D01*
X112928036Y-72499500D01*
X112789949Y-72540045D01*
X112668873Y-72617856D01*
X112574623Y-72726626D01*
X112574622Y-72726628D01*
X112514834Y-72857543D01*
X112494353Y-73000000D01*
X111750000Y-73000000D01*
X111750000Y-72801362D01*
X111769685Y-72734323D01*
X111786319Y-72713681D01*
X112463681Y-72036319D01*
X112525004Y-72002834D01*
X112551362Y-72000000D01*
X132020966Y-72000000D01*
X132088005Y-72019685D01*
G37*
%TD.AperFunction*%
%TA.AperFunction,Conductor*%
G36*
X138904913Y-77717343D02*
G01*
X138951168Y-77769709D01*
X138957944Y-77787696D01*
X138973254Y-77840393D01*
X138973255Y-77840396D01*
X138973256Y-77840398D01*
X138988008Y-77865343D01*
X139056917Y-77981862D01*
X139061702Y-77988031D01*
X139059256Y-77989927D01*
X139085857Y-78038642D01*
X139080873Y-78108334D01*
X139060069Y-78140703D01*
X139061702Y-78141969D01*
X139056917Y-78148137D01*
X138973255Y-78289603D01*
X138973254Y-78289606D01*
X138927402Y-78447426D01*
X138927401Y-78447432D01*
X138924500Y-78484298D01*
X138924500Y-78915701D01*
X138927401Y-78952567D01*
X138927402Y-78952573D01*
X138973254Y-79110393D01*
X138973254Y-79110394D01*
X138973255Y-79110396D01*
X138973256Y-79110398D01*
X138980979Y-79123457D01*
X139001041Y-79157380D01*
X139018222Y-79225104D01*
X138996062Y-79291366D01*
X138941596Y-79335129D01*
X138894308Y-79344500D01*
X138789685Y-79344500D01*
X138722646Y-79324815D01*
X138706714Y-79312651D01*
X138705669Y-79311710D01*
X138552534Y-79200451D01*
X138552529Y-79200448D01*
X138379607Y-79123457D01*
X138379602Y-79123455D01*
X138233801Y-79092465D01*
X138194446Y-79084100D01*
X138005154Y-79084100D01*
X137972697Y-79090998D01*
X137819997Y-79123455D01*
X137819992Y-79123457D01*
X137647070Y-79200448D01*
X137647065Y-79200451D01*
X137493929Y-79311711D01*
X137367266Y-79452385D01*
X137272621Y-79616315D01*
X137272618Y-79616322D01*
X137222380Y-79770940D01*
X137214126Y-79796344D01*
X137194340Y-79984600D01*
X137214126Y-80172856D01*
X137214127Y-80172859D01*
X137272618Y-80352877D01*
X137272621Y-80352884D01*
X137367267Y-80516816D01*
X137482136Y-80644391D01*
X137493929Y-80657488D01*
X137647065Y-80768748D01*
X137647070Y-80768751D01*
X137819992Y-80845742D01*
X137819997Y-80845744D01*
X138005154Y-80885100D01*
X138005155Y-80885100D01*
X138194444Y-80885100D01*
X138194446Y-80885100D01*
X138379603Y-80845744D01*
X138552530Y-80768751D01*
X138705671Y-80657488D01*
X138724543Y-80636528D01*
X138784028Y-80599880D01*
X138816693Y-80595500D01*
X138894308Y-80595500D01*
X138961347Y-80615185D01*
X139007102Y-80667989D01*
X139017046Y-80737147D01*
X139001041Y-80782620D01*
X138973254Y-80829605D01*
X138973254Y-80829606D01*
X138927402Y-80987426D01*
X138927401Y-80987432D01*
X138924500Y-81024298D01*
X138924500Y-81455701D01*
X138927401Y-81492567D01*
X138927402Y-81492573D01*
X138973254Y-81650393D01*
X138973255Y-81650396D01*
X139056917Y-81791862D01*
X139061702Y-81798031D01*
X139059256Y-81799927D01*
X139085857Y-81848642D01*
X139080873Y-81918334D01*
X139060069Y-81950703D01*
X139061702Y-81951969D01*
X139056917Y-81958137D01*
X138973255Y-82099603D01*
X138973254Y-82099606D01*
X138927402Y-82257426D01*
X138927401Y-82257432D01*
X138924500Y-82294298D01*
X138924500Y-82725701D01*
X138927401Y-82762567D01*
X138927402Y-82762573D01*
X138973254Y-82920393D01*
X138973255Y-82920396D01*
X138973256Y-82920398D01*
X138984172Y-82938856D01*
X139056917Y-83061862D01*
X139061702Y-83068031D01*
X139059256Y-83069927D01*
X139085857Y-83118642D01*
X139080873Y-83188334D01*
X139060069Y-83220703D01*
X139061702Y-83221969D01*
X139056917Y-83228137D01*
X138973255Y-83369603D01*
X138973254Y-83369606D01*
X138927402Y-83527426D01*
X138927401Y-83527432D01*
X138924500Y-83564298D01*
X138924500Y-83995701D01*
X138927401Y-84032567D01*
X138927402Y-84032573D01*
X138973254Y-84190393D01*
X138973254Y-84190394D01*
X139010327Y-84253082D01*
X139027509Y-84320806D01*
X139005348Y-84387068D01*
X138950882Y-84430831D01*
X138881402Y-84438200D01*
X138864590Y-84433908D01*
X138747607Y-84395144D01*
X138648322Y-84385000D01*
X138625000Y-84385000D01*
X138625000Y-85110000D01*
X139324999Y-85110000D01*
X139324999Y-85061692D01*
X139324998Y-85061677D01*
X139314855Y-84962392D01*
X139309092Y-84945001D01*
X147497704Y-84945001D01*
X147497899Y-84947486D01*
X147543718Y-85105198D01*
X147627314Y-85246552D01*
X147627321Y-85246561D01*
X147743438Y-85362678D01*
X147743447Y-85362685D01*
X147884803Y-85446282D01*
X147884806Y-85446283D01*
X148042504Y-85492099D01*
X148042510Y-85492100D01*
X148079350Y-85494999D01*
X148079366Y-85495000D01*
X148770000Y-85495000D01*
X148770000Y-84945000D01*
X147497705Y-84945000D01*
X147497704Y-84945001D01*
X139309092Y-84945001D01*
X139261547Y-84801518D01*
X139261544Y-84801511D01*
X139216233Y-84728052D01*
X139197792Y-84660659D01*
X139218714Y-84593996D01*
X139272356Y-84549226D01*
X139341686Y-84540564D01*
X139356366Y-84543878D01*
X139472426Y-84577597D01*
X139472429Y-84577597D01*
X139472431Y-84577598D01*
X139509306Y-84580500D01*
X139509314Y-84580500D01*
X141290686Y-84580500D01*
X141290694Y-84580500D01*
X141327569Y-84577598D01*
X141327571Y-84577597D01*
X141327573Y-84577597D01*
X141369191Y-84565505D01*
X141485398Y-84531744D01*
X141559081Y-84488167D01*
X141622202Y-84470900D01*
X141968052Y-84470900D01*
X142035091Y-84490585D01*
X142060200Y-84511926D01*
X142065926Y-84518285D01*
X142065930Y-84518289D01*
X142219065Y-84629548D01*
X142219070Y-84629551D01*
X142391992Y-84706542D01*
X142391997Y-84706544D01*
X142577154Y-84745900D01*
X142577155Y-84745900D01*
X142766444Y-84745900D01*
X142766446Y-84745900D01*
X142951603Y-84706544D01*
X143124530Y-84629551D01*
X143277671Y-84518288D01*
X143404333Y-84377616D01*
X143498979Y-84213684D01*
X143557474Y-84033656D01*
X143577260Y-83845400D01*
X143559351Y-83675001D01*
X147497704Y-83675001D01*
X147497899Y-83677486D01*
X147543718Y-83835198D01*
X147627314Y-83976552D01*
X147632100Y-83982722D01*
X147629753Y-83984542D01*
X147656564Y-84033642D01*
X147651580Y-84103334D01*
X147630541Y-84136069D01*
X147632100Y-84137278D01*
X147627314Y-84143447D01*
X147543718Y-84284801D01*
X147497899Y-84442513D01*
X147497704Y-84444998D01*
X147497705Y-84445000D01*
X148770000Y-84445000D01*
X148770000Y-83675000D01*
X147497705Y-83675000D01*
X147497704Y-83675001D01*
X143559351Y-83675001D01*
X143557474Y-83657144D01*
X143498979Y-83477116D01*
X143409134Y-83321499D01*
X143392662Y-83253599D01*
X143415515Y-83187572D01*
X143470437Y-83144382D01*
X143516522Y-83135500D01*
X144881607Y-83135500D01*
X144942029Y-83123481D01*
X145002452Y-83111463D01*
X145002455Y-83111461D01*
X145002458Y-83111461D01*
X145035787Y-83097654D01*
X145035786Y-83097654D01*
X145035792Y-83097652D01*
X145116286Y-83064312D01*
X145188814Y-83015849D01*
X145218733Y-82995858D01*
X145305858Y-82908733D01*
X145305859Y-82908731D01*
X145312925Y-82901665D01*
X145312927Y-82901661D01*
X146653771Y-81560819D01*
X146715094Y-81527334D01*
X146741452Y-81524500D01*
X147456029Y-81524500D01*
X147523068Y-81544185D01*
X147568823Y-81596989D01*
X147578767Y-81666147D01*
X147562761Y-81711621D01*
X147543255Y-81744603D01*
X147543254Y-81744606D01*
X147497402Y-81902426D01*
X147497401Y-81902432D01*
X147494500Y-81939298D01*
X147494500Y-82370701D01*
X147497401Y-82407567D01*
X147497402Y-82407573D01*
X147543254Y-82565393D01*
X147543255Y-82565396D01*
X147626917Y-82706862D01*
X147631702Y-82713031D01*
X147629369Y-82714840D01*
X147656210Y-82763995D01*
X147651226Y-82833687D01*
X147630470Y-82866021D01*
X147632097Y-82867283D01*
X147627313Y-82873449D01*
X147543718Y-83014801D01*
X147497899Y-83172513D01*
X147497704Y-83174998D01*
X147497705Y-83175000D01*
X149146000Y-83175000D01*
X149213039Y-83194685D01*
X149258794Y-83247489D01*
X149270000Y-83299000D01*
X149270000Y-85495000D01*
X149960634Y-85495000D01*
X149960649Y-85494999D01*
X149997489Y-85492100D01*
X149997495Y-85492099D01*
X150155193Y-85446283D01*
X150155196Y-85446282D01*
X150296552Y-85362685D01*
X150296561Y-85362678D01*
X150412678Y-85246561D01*
X150412684Y-85246552D01*
X150452299Y-85179569D01*
X150503368Y-85131886D01*
X150572110Y-85119382D01*
X150636699Y-85146027D01*
X150676629Y-85203363D01*
X150683031Y-85242690D01*
X150683031Y-86632322D01*
X150663346Y-86699361D01*
X150630156Y-86733896D01*
X150562126Y-86781531D01*
X150395036Y-86948621D01*
X150347405Y-87016647D01*
X150292828Y-87060272D01*
X150245830Y-87069524D01*
X138448853Y-87069524D01*
X138381814Y-87049839D01*
X138361172Y-87033205D01*
X137849539Y-86521571D01*
X137816054Y-86460248D01*
X137821038Y-86390556D01*
X137862910Y-86334623D01*
X137928374Y-86310206D01*
X137976225Y-86316184D01*
X138002394Y-86324856D01*
X138101683Y-86334999D01*
X138625000Y-86334999D01*
X138648308Y-86334999D01*
X138648322Y-86334998D01*
X138747607Y-86324855D01*
X138908481Y-86271547D01*
X138908492Y-86271542D01*
X139052728Y-86182575D01*
X139052732Y-86182572D01*
X139172572Y-86062732D01*
X139172575Y-86062728D01*
X139261542Y-85918492D01*
X139261547Y-85918481D01*
X139314855Y-85757606D01*
X139324999Y-85658322D01*
X139325000Y-85658309D01*
X139325000Y-85610000D01*
X138625000Y-85610000D01*
X138625000Y-86334999D01*
X138101683Y-86334999D01*
X138125000Y-86334998D01*
X138125000Y-84443711D01*
X138144685Y-84376672D01*
X138156847Y-84360742D01*
X138182533Y-84332216D01*
X138277179Y-84168284D01*
X138335674Y-83988256D01*
X138355460Y-83800000D01*
X138335674Y-83611744D01*
X138277179Y-83431716D01*
X138182533Y-83267784D01*
X138055871Y-83127112D01*
X138055870Y-83127111D01*
X137902732Y-83015850D01*
X137902729Y-83015848D01*
X137729807Y-82938857D01*
X137729802Y-82938855D01*
X137584001Y-82907865D01*
X137544646Y-82899500D01*
X137355354Y-82899500D01*
X137322897Y-82906398D01*
X137170197Y-82938855D01*
X137170192Y-82938857D01*
X137071027Y-82983009D01*
X137001777Y-82992294D01*
X136938500Y-82962666D01*
X136901287Y-82903531D01*
X136901514Y-82835136D01*
X136922598Y-82762569D01*
X136925500Y-82725694D01*
X136925500Y-82294306D01*
X136922598Y-82257431D01*
X136876744Y-82099602D01*
X136793081Y-81958135D01*
X136793078Y-81958132D01*
X136788298Y-81951969D01*
X136790750Y-81950066D01*
X136764155Y-81901421D01*
X136769104Y-81831726D01*
X136789940Y-81799304D01*
X136788298Y-81798031D01*
X136793075Y-81791870D01*
X136793081Y-81791865D01*
X136876744Y-81650398D01*
X136913321Y-81524500D01*
X136922597Y-81492573D01*
X136922598Y-81492567D01*
X136925500Y-81455694D01*
X136925500Y-81024306D01*
X136922598Y-80987431D01*
X136907531Y-80935572D01*
X136882022Y-80847769D01*
X136876744Y-80829602D01*
X136793081Y-80688135D01*
X136793078Y-80688132D01*
X136788298Y-80681969D01*
X136790750Y-80680066D01*
X136764155Y-80631421D01*
X136769104Y-80561726D01*
X136789940Y-80529304D01*
X136788298Y-80528031D01*
X136793075Y-80521870D01*
X136793081Y-80521865D01*
X136876744Y-80380398D01*
X136913952Y-80252328D01*
X136922597Y-80222573D01*
X136922598Y-80222567D01*
X136925499Y-80185701D01*
X136925500Y-80185694D01*
X136925500Y-79754306D01*
X136922598Y-79717431D01*
X136876744Y-79559602D01*
X136793081Y-79418135D01*
X136793078Y-79418132D01*
X136788298Y-79411969D01*
X136790750Y-79410066D01*
X136764155Y-79361421D01*
X136769104Y-79291726D01*
X136789940Y-79259304D01*
X136788298Y-79258031D01*
X136793075Y-79251870D01*
X136793081Y-79251865D01*
X136876744Y-79110398D01*
X136910505Y-78994191D01*
X136922597Y-78952573D01*
X136922598Y-78952567D01*
X136925499Y-78915701D01*
X136925500Y-78915694D01*
X136925500Y-78484306D01*
X136922598Y-78447431D01*
X136876744Y-78289602D01*
X136855109Y-78253019D01*
X136831218Y-78212620D01*
X136814035Y-78144896D01*
X136836195Y-78078634D01*
X136890662Y-78034871D01*
X136937950Y-78025500D01*
X137196252Y-78025500D01*
X137263291Y-78045185D01*
X137288400Y-78066526D01*
X137294126Y-78072885D01*
X137294130Y-78072889D01*
X137447265Y-78184148D01*
X137447270Y-78184151D01*
X137620192Y-78261142D01*
X137620197Y-78261144D01*
X137805354Y-78300500D01*
X137805355Y-78300500D01*
X137994644Y-78300500D01*
X137994646Y-78300500D01*
X138179803Y-78261144D01*
X138352730Y-78184151D01*
X138505871Y-78072888D01*
X138632533Y-77932216D01*
X138727179Y-77768284D01*
X138727179Y-77768282D01*
X138730428Y-77762656D01*
X138732426Y-77763809D01*
X138770840Y-77718618D01*
X138837689Y-77698297D01*
X138904913Y-77717343D01*
G37*
%TD.AperFunction*%
%TA.AperFunction,Conductor*%
G36*
X143013039Y-79129685D02*
G01*
X143058794Y-79182489D01*
X143070000Y-79234000D01*
X143070000Y-80082000D01*
X143151000Y-80082000D01*
X143218039Y-80101685D01*
X143263794Y-80154489D01*
X143275000Y-80206000D01*
X143275000Y-81226000D01*
X143255315Y-81293039D01*
X143202511Y-81338794D01*
X143151000Y-81350000D01*
X142899000Y-81350000D01*
X142831961Y-81330315D01*
X142786206Y-81277511D01*
X142775000Y-81226000D01*
X142775000Y-80553000D01*
X142694000Y-80553000D01*
X142626961Y-80533315D01*
X142581206Y-80480511D01*
X142570000Y-80429000D01*
X142570000Y-79234000D01*
X142589685Y-79166961D01*
X142642489Y-79121206D01*
X142694000Y-79110000D01*
X142946000Y-79110000D01*
X143013039Y-79129685D01*
G37*
%TD.AperFunction*%
%TA.AperFunction,Conductor*%
G36*
X141976911Y-80396460D02*
G01*
X142052907Y-80453351D01*
X142059251Y-80456815D01*
X142108657Y-80506219D01*
X142123510Y-80574491D01*
X142117532Y-80604652D01*
X142085144Y-80702392D01*
X142075000Y-80801677D01*
X142075000Y-80812834D01*
X142055315Y-80879873D01*
X142002511Y-80925628D01*
X141933353Y-80935572D01*
X141869797Y-80906547D01*
X141832023Y-80847769D01*
X141831924Y-80847430D01*
X141826745Y-80829604D01*
X141826744Y-80829603D01*
X141826744Y-80829602D01*
X141743081Y-80688135D01*
X141743078Y-80688132D01*
X141738298Y-80681969D01*
X141740750Y-80680066D01*
X141714155Y-80631421D01*
X141719104Y-80561726D01*
X141739940Y-80529304D01*
X141738298Y-80528031D01*
X141743073Y-80521872D01*
X141743081Y-80521865D01*
X141795870Y-80432603D01*
X141846936Y-80384922D01*
X141915678Y-80372418D01*
X141976911Y-80396460D01*
G37*
%TD.AperFunction*%
%TA.AperFunction,Conductor*%
G36*
X145851314Y-77799842D02*
G01*
X145897427Y-77843577D01*
X145927746Y-77892731D01*
X146002576Y-77967561D01*
X146036061Y-78028884D01*
X146031077Y-78098576D01*
X146022282Y-78117241D01*
X145934023Y-78270110D01*
X145934018Y-78270122D01*
X145874403Y-78453599D01*
X145834965Y-78511275D01*
X145770607Y-78538473D01*
X145701760Y-78526558D01*
X145650285Y-78479314D01*
X145647640Y-78474708D01*
X145643795Y-78467666D01*
X145557547Y-78352455D01*
X145499437Y-78308953D01*
X145457567Y-78253019D01*
X145452583Y-78183327D01*
X145486069Y-78122004D01*
X145499439Y-78110420D01*
X145557189Y-78067188D01*
X145557190Y-78067187D01*
X145643350Y-77952093D01*
X145643355Y-77952084D01*
X145675707Y-77865343D01*
X145717577Y-77809409D01*
X145783041Y-77784991D01*
X145851314Y-77799842D01*
G37*
%TD.AperFunction*%
%TA.AperFunction,Conductor*%
G36*
X142345291Y-72019685D02*
G01*
X142391046Y-72072489D01*
X142400990Y-72141647D01*
X142371965Y-72205203D01*
X142328690Y-72237278D01*
X142325809Y-72238561D01*
X142320667Y-72240850D01*
X142320665Y-72240851D01*
X142167529Y-72352111D01*
X142040866Y-72492785D01*
X141946221Y-72656715D01*
X141946218Y-72656722D01*
X141899222Y-72801362D01*
X141887726Y-72836744D01*
X141867940Y-73025000D01*
X141887726Y-73213256D01*
X141887727Y-73213259D01*
X141946218Y-73393277D01*
X141946221Y-73393284D01*
X142040867Y-73557216D01*
X142123544Y-73649038D01*
X142167529Y-73697888D01*
X142320665Y-73809148D01*
X142320670Y-73809151D01*
X142493592Y-73886142D01*
X142493597Y-73886144D01*
X142678754Y-73925500D01*
X142678755Y-73925500D01*
X142868044Y-73925500D01*
X142868046Y-73925500D01*
X143053203Y-73886144D01*
X143188648Y-73825838D01*
X143257897Y-73816554D01*
X143318752Y-73845048D01*
X143318946Y-73844803D01*
X143319987Y-73845626D01*
X143321174Y-73846182D01*
X143323739Y-73848593D01*
X143324612Y-73849283D01*
X143467704Y-73937544D01*
X143467707Y-73937545D01*
X143467713Y-73937549D01*
X143627315Y-73990436D01*
X143725826Y-74000500D01*
X143725831Y-74000500D01*
X144259169Y-74000500D01*
X144259174Y-74000500D01*
X144357685Y-73990436D01*
X144517287Y-73937549D01*
X144660391Y-73849281D01*
X144692319Y-73817353D01*
X144753642Y-73783868D01*
X144823334Y-73788852D01*
X144867681Y-73817353D01*
X144899608Y-73849280D01*
X144899612Y-73849283D01*
X145042704Y-73937544D01*
X145042707Y-73937545D01*
X145042713Y-73937549D01*
X145202315Y-73990436D01*
X145300826Y-74000500D01*
X145300831Y-74000500D01*
X145834169Y-74000500D01*
X145834174Y-74000500D01*
X145932685Y-73990436D01*
X146092287Y-73937549D01*
X146235391Y-73849281D01*
X146279819Y-73804853D01*
X146341142Y-73771368D01*
X146410834Y-73776352D01*
X146455181Y-73804853D01*
X146499608Y-73849280D01*
X146499612Y-73849283D01*
X146642704Y-73937544D01*
X146642707Y-73937545D01*
X146642713Y-73937549D01*
X146802315Y-73990436D01*
X146900826Y-74000500D01*
X146900831Y-74000500D01*
X147434169Y-74000500D01*
X147434174Y-74000500D01*
X147532685Y-73990436D01*
X147692287Y-73937549D01*
X147835391Y-73849281D01*
X147867672Y-73817000D01*
X147928995Y-73783515D01*
X147998687Y-73788499D01*
X148043034Y-73817000D01*
X148074919Y-73848885D01*
X148217922Y-73937091D01*
X148217927Y-73937093D01*
X148377416Y-73989942D01*
X148475856Y-73999999D01*
X148992500Y-73999999D01*
X149009136Y-73999999D01*
X149009152Y-73999998D01*
X149107583Y-73989943D01*
X149267072Y-73937093D01*
X149267077Y-73937091D01*
X149410080Y-73848885D01*
X149528885Y-73730080D01*
X149617091Y-73587077D01*
X149617093Y-73587072D01*
X149669942Y-73427583D01*
X149679999Y-73329150D01*
X149680000Y-73329137D01*
X149680000Y-73275000D01*
X148992500Y-73275000D01*
X148992500Y-73999999D01*
X148475856Y-73999999D01*
X148492500Y-73999998D01*
X148492500Y-72899000D01*
X148512185Y-72831961D01*
X148564989Y-72786206D01*
X148616500Y-72775000D01*
X149679999Y-72775000D01*
X149679999Y-72720864D01*
X149679998Y-72720847D01*
X149669943Y-72622416D01*
X149617093Y-72462927D01*
X149617091Y-72462922D01*
X149528885Y-72319919D01*
X149420647Y-72211681D01*
X149387162Y-72150358D01*
X149392146Y-72080666D01*
X149434018Y-72024733D01*
X149499482Y-72000316D01*
X149508328Y-72000000D01*
X151376000Y-72000000D01*
X151443039Y-72019685D01*
X151488794Y-72072489D01*
X151500000Y-72124000D01*
X151500000Y-75113663D01*
X151480315Y-75180702D01*
X151427511Y-75226457D01*
X151358353Y-75236401D01*
X151307111Y-75216766D01*
X151209376Y-75151463D01*
X151209375Y-75151461D01*
X151195577Y-75142243D01*
X151192095Y-75139916D01*
X151192093Y-75139915D01*
X151192090Y-75139913D01*
X151055517Y-75083343D01*
X151055507Y-75083340D01*
X150910520Y-75054500D01*
X150910518Y-75054500D01*
X150177328Y-75054500D01*
X150142733Y-75049576D01*
X149997573Y-75007402D01*
X149997567Y-75007401D01*
X149960701Y-75004500D01*
X149960694Y-75004500D01*
X148079306Y-75004500D01*
X148079298Y-75004500D01*
X148042432Y-75007401D01*
X148042426Y-75007402D01*
X147884606Y-75053254D01*
X147884605Y-75053254D01*
X147791222Y-75108480D01*
X147723498Y-75125661D01*
X147657236Y-75103501D01*
X147622565Y-75066846D01*
X147573288Y-74986956D01*
X147453364Y-74867032D01*
X147453360Y-74867029D01*
X147309025Y-74778001D01*
X147309019Y-74777998D01*
X147309017Y-74777997D01*
X147274252Y-74766477D01*
X147148029Y-74724651D01*
X147048666Y-74714500D01*
X146451982Y-74714500D01*
X146451964Y-74714501D01*
X146352612Y-74724650D01*
X146352609Y-74724651D01*
X146191625Y-74777996D01*
X146191614Y-74778001D01*
X146047279Y-74867029D01*
X146047275Y-74867032D01*
X145927352Y-74986955D01*
X145927349Y-74986959D01*
X145838321Y-75131294D01*
X145838316Y-75131305D01*
X145784971Y-75292290D01*
X145774820Y-75391647D01*
X145774820Y-75938337D01*
X145774822Y-75938360D01*
X145777291Y-75962532D01*
X145764520Y-76031224D01*
X145716639Y-76082108D01*
X145648849Y-76099027D01*
X145582673Y-76076610D01*
X145564023Y-76058518D01*
X145563460Y-76059082D01*
X145557187Y-76052809D01*
X145523010Y-76027224D01*
X145481139Y-75971290D01*
X145476155Y-75901599D01*
X145479615Y-75888953D01*
X145514856Y-75782605D01*
X145524999Y-75683322D01*
X145525000Y-75683309D01*
X145525000Y-75635000D01*
X144825000Y-75635000D01*
X144825000Y-75867000D01*
X144834976Y-75876976D01*
X144868039Y-75886685D01*
X144913794Y-75939489D01*
X144925000Y-75991000D01*
X144925000Y-76810000D01*
X145651551Y-76810000D01*
X145718590Y-76829685D01*
X145764345Y-76882489D01*
X145775048Y-76938528D01*
X145775320Y-76938528D01*
X145775320Y-76939951D01*
X145775390Y-76940318D01*
X145775320Y-76941690D01*
X145775320Y-76965000D01*
X147452000Y-76965000D01*
X147452000Y-76949000D01*
X147471685Y-76881961D01*
X147524489Y-76836206D01*
X147576000Y-76825000D01*
X149146000Y-76825000D01*
X149213039Y-76844685D01*
X149258794Y-76897489D01*
X149270000Y-76949000D01*
X149270000Y-77201000D01*
X149250315Y-77268039D01*
X149197511Y-77313794D01*
X149146000Y-77325000D01*
X147768320Y-77325000D01*
X147768320Y-77341000D01*
X147748635Y-77408039D01*
X147695831Y-77453794D01*
X147644320Y-77465000D01*
X145824000Y-77465000D01*
X145756961Y-77445315D01*
X145711206Y-77392511D01*
X145700000Y-77341000D01*
X145700000Y-77310000D01*
X144549000Y-77310000D01*
X144481961Y-77290315D01*
X144436206Y-77237511D01*
X144425000Y-77186000D01*
X144425000Y-76403000D01*
X144415023Y-76393023D01*
X144381961Y-76383315D01*
X144336206Y-76330511D01*
X144325000Y-76279000D01*
X144325000Y-75135000D01*
X144825000Y-75135000D01*
X145524999Y-75135000D01*
X145524999Y-75086692D01*
X145524998Y-75086677D01*
X145514855Y-74987392D01*
X145461547Y-74826518D01*
X145461542Y-74826507D01*
X145372575Y-74682271D01*
X145372572Y-74682267D01*
X145252732Y-74562427D01*
X145252728Y-74562424D01*
X145108492Y-74473457D01*
X145108481Y-74473452D01*
X144947606Y-74420144D01*
X144848322Y-74410000D01*
X144825000Y-74410000D01*
X144825000Y-75135000D01*
X144325000Y-75135000D01*
X144325000Y-74409999D01*
X144301693Y-74410000D01*
X144301674Y-74410001D01*
X144202392Y-74420144D01*
X144041518Y-74473452D01*
X144041507Y-74473457D01*
X143897271Y-74562424D01*
X143897265Y-74562428D01*
X143888031Y-74571663D01*
X143826707Y-74605146D01*
X143757015Y-74600159D01*
X143712672Y-74571660D01*
X143703044Y-74562032D01*
X143703040Y-74562029D01*
X143558705Y-74473001D01*
X143558699Y-74472998D01*
X143558697Y-74472997D01*
X143558694Y-74472996D01*
X143397709Y-74419651D01*
X143298346Y-74409500D01*
X142751662Y-74409500D01*
X142751644Y-74409501D01*
X142652292Y-74419650D01*
X142652289Y-74419651D01*
X142491305Y-74472996D01*
X142491294Y-74473001D01*
X142346959Y-74562029D01*
X142346955Y-74562032D01*
X142227032Y-74681955D01*
X142227029Y-74681959D01*
X142138001Y-74826294D01*
X142137996Y-74826305D01*
X142084651Y-74987290D01*
X142074500Y-75086647D01*
X142074500Y-75683337D01*
X142074501Y-75683355D01*
X142080672Y-75743757D01*
X142067902Y-75812450D01*
X142020021Y-75863334D01*
X141952231Y-75880254D01*
X141886055Y-75857838D01*
X141842503Y-75803203D01*
X141838238Y-75790953D01*
X141826283Y-75749806D01*
X141826282Y-75749803D01*
X141742685Y-75608447D01*
X141742678Y-75608438D01*
X141626561Y-75492321D01*
X141626552Y-75492314D01*
X141485196Y-75408717D01*
X141485193Y-75408716D01*
X141327495Y-75362900D01*
X141327489Y-75362899D01*
X141290649Y-75360000D01*
X140562862Y-75360000D01*
X140495823Y-75340315D01*
X140450068Y-75287511D01*
X140440124Y-75218353D01*
X140469149Y-75154797D01*
X140475181Y-75148319D01*
X140574461Y-75049038D01*
X140574464Y-75049035D01*
X140673013Y-74901547D01*
X140740894Y-74737666D01*
X140741297Y-74735644D01*
X140775499Y-74563695D01*
X140775500Y-74563693D01*
X140775500Y-74386306D01*
X140775499Y-74386304D01*
X140740896Y-74212341D01*
X140740893Y-74212332D01*
X140673016Y-74048459D01*
X140673009Y-74048446D01*
X140574464Y-73900965D01*
X140574461Y-73900961D01*
X140536181Y-73862682D01*
X140502695Y-73801360D01*
X140507679Y-73731668D01*
X140536181Y-73687318D01*
X140574461Y-73649038D01*
X140574464Y-73649035D01*
X140673013Y-73501547D01*
X140740894Y-73337666D01*
X140742584Y-73329174D01*
X140775499Y-73163695D01*
X140775500Y-73163693D01*
X140775500Y-72986306D01*
X140775499Y-72986304D01*
X140740896Y-72812341D01*
X140740893Y-72812332D01*
X140730071Y-72786206D01*
X140705394Y-72726628D01*
X140673016Y-72648459D01*
X140673009Y-72648446D01*
X140574464Y-72500965D01*
X140574461Y-72500961D01*
X140449038Y-72375538D01*
X140449034Y-72375535D01*
X140301553Y-72276990D01*
X140301540Y-72276983D01*
X140208778Y-72238561D01*
X140154374Y-72194721D01*
X140132309Y-72128427D01*
X140149588Y-72060727D01*
X140200725Y-72013116D01*
X140256230Y-72000000D01*
X142278252Y-72000000D01*
X142345291Y-72019685D01*
G37*
%TD.AperFunction*%
%TA.AperFunction,Conductor*%
G36*
X140593039Y-75929685D02*
G01*
X140638794Y-75982489D01*
X140650000Y-76034000D01*
X140650000Y-76286000D01*
X140630315Y-76353039D01*
X140577511Y-76398794D01*
X140526000Y-76410000D01*
X138927705Y-76410000D01*
X138927704Y-76410001D01*
X138927899Y-76412486D01*
X138973718Y-76570198D01*
X139057314Y-76711552D01*
X139062100Y-76717722D01*
X139059640Y-76719629D01*
X139086210Y-76768288D01*
X139081226Y-76837980D01*
X139060162Y-76870781D01*
X139061699Y-76871974D01*
X139056915Y-76878140D01*
X138973255Y-77019603D01*
X138967687Y-77038769D01*
X138930080Y-77097654D01*
X138866607Y-77126859D01*
X138797420Y-77117112D01*
X138744486Y-77071508D01*
X138730680Y-77042490D01*
X138727181Y-77031721D01*
X138727178Y-77031715D01*
X138632533Y-76867784D01*
X138505871Y-76727112D01*
X138505870Y-76727111D01*
X138392581Y-76644802D01*
X138349915Y-76589472D01*
X138343936Y-76519859D01*
X138376542Y-76458064D01*
X138377710Y-76456879D01*
X138888272Y-75946317D01*
X138949592Y-75912834D01*
X138975950Y-75910000D01*
X140526000Y-75910000D01*
X140593039Y-75929685D01*
G37*
%TD.AperFunction*%
%TD*%
%TA.AperFunction,Conductor*%
%TO.N,GND1*%
G36*
X167281016Y-80105185D02*
G01*
X167326771Y-80157989D01*
X167336715Y-80227147D01*
X167307690Y-80290703D01*
X167288289Y-80308766D01*
X167242809Y-80342812D01*
X167156649Y-80457906D01*
X167156645Y-80457913D01*
X167106403Y-80592620D01*
X167106401Y-80592627D01*
X167100000Y-80652155D01*
X167100000Y-82150000D01*
X168426000Y-82150000D01*
X168493039Y-82169685D01*
X168538794Y-82222489D01*
X168550000Y-82274000D01*
X168550000Y-84600000D01*
X169047828Y-84600000D01*
X169047844Y-84599999D01*
X169107372Y-84593598D01*
X169107379Y-84593596D01*
X169242086Y-84543354D01*
X169242093Y-84543350D01*
X169357187Y-84457190D01*
X169357190Y-84457187D01*
X169448669Y-84334989D01*
X169450868Y-84336635D01*
X169490262Y-84297225D01*
X169558531Y-84282358D01*
X169624001Y-84306761D01*
X169649546Y-84336235D01*
X169650888Y-84335231D01*
X169742452Y-84457544D01*
X169742455Y-84457547D01*
X169857664Y-84543793D01*
X169857671Y-84543797D01*
X169883668Y-84553493D01*
X169992517Y-84594091D01*
X170052127Y-84600500D01*
X170190510Y-84600499D01*
X170257549Y-84620183D01*
X170293612Y-84655609D01*
X170314138Y-84686328D01*
X170314144Y-84686336D01*
X170405586Y-84777778D01*
X170405608Y-84777798D01*
X170910216Y-85282406D01*
X170910245Y-85282437D01*
X171000464Y-85372656D01*
X171000467Y-85372658D01*
X171077390Y-85424056D01*
X171102910Y-85441109D01*
X171102913Y-85441111D01*
X171102915Y-85441112D01*
X171152391Y-85461605D01*
X171152392Y-85461606D01*
X171152393Y-85461606D01*
X171216748Y-85488263D01*
X171277171Y-85500281D01*
X171337593Y-85512300D01*
X175286193Y-85512300D01*
X175353232Y-85531985D01*
X175398987Y-85584789D01*
X175408931Y-85653947D01*
X175405968Y-85668394D01*
X175369364Y-85804999D01*
X175369364Y-85805000D01*
X176266988Y-85805000D01*
X176234075Y-85862007D01*
X176200000Y-85989174D01*
X176200000Y-86120826D01*
X176234075Y-86247993D01*
X176266988Y-86305000D01*
X175369364Y-86305000D01*
X175426567Y-86518486D01*
X175426570Y-86518492D01*
X175526399Y-86732578D01*
X175661894Y-86926082D01*
X175828917Y-87093105D01*
X176022421Y-87228600D01*
X176236507Y-87328429D01*
X176236516Y-87328433D01*
X176450000Y-87385634D01*
X176450000Y-86488012D01*
X176507007Y-86520925D01*
X176634174Y-86555000D01*
X176765826Y-86555000D01*
X176892993Y-86520925D01*
X176950000Y-86488012D01*
X176950000Y-87385633D01*
X177163483Y-87328433D01*
X177163492Y-87328429D01*
X177377578Y-87228600D01*
X177571082Y-87093105D01*
X177738105Y-86926082D01*
X177873600Y-86732578D01*
X177973429Y-86518492D01*
X177973433Y-86518483D01*
X178006225Y-86396102D01*
X178042590Y-86336441D01*
X178105437Y-86305912D01*
X178174812Y-86314207D01*
X178228690Y-86358692D01*
X178249965Y-86425244D01*
X178250000Y-86428195D01*
X178250000Y-87948638D01*
X178230315Y-88015677D01*
X178213681Y-88036319D01*
X177786319Y-88463681D01*
X177724996Y-88497166D01*
X177698638Y-88500000D01*
X175999999Y-88500000D01*
X175500000Y-88999999D01*
X175500000Y-91126000D01*
X175480315Y-91193039D01*
X175427511Y-91238794D01*
X175376000Y-91250000D01*
X165124000Y-91250000D01*
X165056961Y-91230315D01*
X165011206Y-91177511D01*
X165000000Y-91126000D01*
X165000000Y-88914813D01*
X165019685Y-88847774D01*
X165036319Y-88827132D01*
X165172026Y-88691425D01*
X165301956Y-88505866D01*
X165356533Y-88462241D01*
X165426031Y-88455047D01*
X165488386Y-88486570D01*
X165505106Y-88505866D01*
X165635031Y-88691419D01*
X165635036Y-88691425D01*
X165802130Y-88858519D01*
X165882526Y-88914813D01*
X165995696Y-88994056D01*
X165995698Y-88994057D01*
X165995701Y-88994059D01*
X166209868Y-89093927D01*
X166438123Y-89155087D01*
X166626449Y-89171563D01*
X166673530Y-89175683D01*
X166673531Y-89175683D01*
X166673532Y-89175683D01*
X166712765Y-89172250D01*
X166908939Y-89155087D01*
X167137194Y-89093927D01*
X167351361Y-88994059D01*
X167544932Y-88858519D01*
X167712026Y-88691425D01*
X167841956Y-88505866D01*
X167896533Y-88462241D01*
X167966031Y-88455047D01*
X168028386Y-88486570D01*
X168045106Y-88505866D01*
X168175031Y-88691419D01*
X168175036Y-88691425D01*
X168342130Y-88858519D01*
X168422526Y-88914813D01*
X168535696Y-88994056D01*
X168535698Y-88994057D01*
X168535701Y-88994059D01*
X168749868Y-89093927D01*
X168978123Y-89155087D01*
X169166449Y-89171563D01*
X169213530Y-89175683D01*
X169213531Y-89175683D01*
X169213532Y-89175683D01*
X169252765Y-89172250D01*
X169448939Y-89155087D01*
X169677194Y-89093927D01*
X169891361Y-88994059D01*
X170084932Y-88858519D01*
X170252026Y-88691425D01*
X170381956Y-88505866D01*
X170436533Y-88462241D01*
X170506031Y-88455047D01*
X170568386Y-88486570D01*
X170585106Y-88505866D01*
X170715031Y-88691419D01*
X170715036Y-88691425D01*
X170882130Y-88858519D01*
X170962526Y-88914813D01*
X171075696Y-88994056D01*
X171075698Y-88994057D01*
X171075701Y-88994059D01*
X171289868Y-89093927D01*
X171518123Y-89155087D01*
X171706449Y-89171563D01*
X171753530Y-89175683D01*
X171753531Y-89175683D01*
X171753532Y-89175683D01*
X171792765Y-89172250D01*
X171988939Y-89155087D01*
X172217194Y-89093927D01*
X172431361Y-88994059D01*
X172624932Y-88858519D01*
X172792026Y-88691425D01*
X172921956Y-88505866D01*
X172976533Y-88462241D01*
X173046031Y-88455047D01*
X173108386Y-88486570D01*
X173125106Y-88505866D01*
X173255031Y-88691419D01*
X173255036Y-88691425D01*
X173422130Y-88858519D01*
X173502526Y-88914813D01*
X173615696Y-88994056D01*
X173615698Y-88994057D01*
X173615701Y-88994059D01*
X173829868Y-89093927D01*
X174058123Y-89155087D01*
X174246449Y-89171563D01*
X174293530Y-89175683D01*
X174293531Y-89175683D01*
X174293532Y-89175683D01*
X174332765Y-89172250D01*
X174528939Y-89155087D01*
X174757194Y-89093927D01*
X174971361Y-88994059D01*
X175164932Y-88858519D01*
X175332026Y-88691425D01*
X175467566Y-88497854D01*
X175567434Y-88283687D01*
X175628594Y-88055432D01*
X175649190Y-87820024D01*
X175628594Y-87584616D01*
X175567434Y-87356361D01*
X175467566Y-87142195D01*
X175461956Y-87134182D01*
X175332025Y-86948621D01*
X175164933Y-86781530D01*
X175164926Y-86781525D01*
X174971365Y-86645991D01*
X174971361Y-86645989D01*
X174888920Y-86607546D01*
X174757194Y-86546121D01*
X174757190Y-86546120D01*
X174757186Y-86546118D01*
X174528944Y-86484962D01*
X174528934Y-86484960D01*
X174293532Y-86464365D01*
X174293530Y-86464365D01*
X174058127Y-86484960D01*
X174058117Y-86484962D01*
X173829875Y-86546118D01*
X173829866Y-86546122D01*
X173615702Y-86645988D01*
X173615700Y-86645989D01*
X173422128Y-86781529D01*
X173255036Y-86948621D01*
X173125106Y-87134182D01*
X173070529Y-87177807D01*
X173001031Y-87185001D01*
X172938676Y-87153478D01*
X172921956Y-87134182D01*
X172792025Y-86948621D01*
X172624933Y-86781530D01*
X172624926Y-86781525D01*
X172431365Y-86645991D01*
X172431361Y-86645989D01*
X172348920Y-86607546D01*
X172217194Y-86546121D01*
X172217190Y-86546120D01*
X172217186Y-86546118D01*
X171988944Y-86484962D01*
X171988934Y-86484960D01*
X171753532Y-86464365D01*
X171753530Y-86464365D01*
X171518127Y-86484960D01*
X171518117Y-86484962D01*
X171289875Y-86546118D01*
X171289866Y-86546122D01*
X171075702Y-86645988D01*
X171075700Y-86645989D01*
X170882128Y-86781529D01*
X170715036Y-86948621D01*
X170585106Y-87134182D01*
X170530529Y-87177807D01*
X170461031Y-87185001D01*
X170398676Y-87153478D01*
X170381956Y-87134182D01*
X170252025Y-86948621D01*
X170084933Y-86781530D01*
X170084926Y-86781525D01*
X169891365Y-86645991D01*
X169891361Y-86645989D01*
X169808920Y-86607546D01*
X169677194Y-86546121D01*
X169677190Y-86546120D01*
X169677186Y-86546118D01*
X169448944Y-86484962D01*
X169448934Y-86484960D01*
X169213532Y-86464365D01*
X169213530Y-86464365D01*
X168978127Y-86484960D01*
X168978117Y-86484962D01*
X168749875Y-86546118D01*
X168749866Y-86546122D01*
X168535702Y-86645988D01*
X168535700Y-86645989D01*
X168342128Y-86781529D01*
X168175036Y-86948621D01*
X168045106Y-87134182D01*
X167990529Y-87177807D01*
X167921031Y-87185001D01*
X167858676Y-87153478D01*
X167841956Y-87134182D01*
X167712025Y-86948621D01*
X167544933Y-86781530D01*
X167544926Y-86781525D01*
X167351365Y-86645991D01*
X167351361Y-86645989D01*
X167268920Y-86607546D01*
X167137194Y-86546121D01*
X167137190Y-86546120D01*
X167137186Y-86546118D01*
X166908944Y-86484962D01*
X166908934Y-86484960D01*
X166673532Y-86464365D01*
X166673530Y-86464365D01*
X166438127Y-86484960D01*
X166438117Y-86484962D01*
X166209875Y-86546118D01*
X166209866Y-86546122D01*
X165995702Y-86645988D01*
X165995700Y-86645989D01*
X165802128Y-86781529D01*
X165635036Y-86948621D01*
X165505106Y-87134182D01*
X165450529Y-87177807D01*
X165381031Y-87185001D01*
X165318676Y-87153478D01*
X165301956Y-87134182D01*
X165172025Y-86948621D01*
X165036319Y-86812915D01*
X165002834Y-86751592D01*
X165000000Y-86725234D01*
X165000000Y-84147844D01*
X167100000Y-84147844D01*
X167106401Y-84207372D01*
X167106403Y-84207379D01*
X167156645Y-84342086D01*
X167156649Y-84342093D01*
X167242809Y-84457187D01*
X167242812Y-84457190D01*
X167357906Y-84543350D01*
X167357913Y-84543354D01*
X167492620Y-84593596D01*
X167492627Y-84593598D01*
X167552155Y-84599999D01*
X167552172Y-84600000D01*
X168050000Y-84600000D01*
X168050000Y-82650000D01*
X167100000Y-82650000D01*
X167100000Y-84147844D01*
X165000000Y-84147844D01*
X165000000Y-83849500D01*
X165019685Y-83782461D01*
X165072489Y-83736706D01*
X165124000Y-83725500D01*
X165604169Y-83725500D01*
X165604174Y-83725500D01*
X165702685Y-83715436D01*
X165862287Y-83662549D01*
X166005391Y-83574281D01*
X166124281Y-83455391D01*
X166212549Y-83312287D01*
X166265436Y-83152685D01*
X166275500Y-83054174D01*
X166275500Y-82520826D01*
X166265436Y-82422315D01*
X166212549Y-82262713D01*
X166212545Y-82262707D01*
X166212544Y-82262704D01*
X166124283Y-82119612D01*
X166124280Y-82119608D01*
X166092353Y-82087681D01*
X166058868Y-82026358D01*
X166063852Y-81956666D01*
X166092353Y-81912319D01*
X166124281Y-81880391D01*
X166212549Y-81737287D01*
X166265436Y-81577685D01*
X166275500Y-81479174D01*
X166275500Y-80945826D01*
X166265436Y-80847315D01*
X166212549Y-80687713D01*
X166212545Y-80687707D01*
X166212544Y-80687704D01*
X166169557Y-80618012D01*
X166151116Y-80550620D01*
X166157164Y-80514598D01*
X166185674Y-80426856D01*
X166205460Y-80238600D01*
X166204083Y-80225500D01*
X166203764Y-80222458D01*
X166216335Y-80153729D01*
X166264068Y-80102706D01*
X166327085Y-80085500D01*
X167213977Y-80085500D01*
X167281016Y-80105185D01*
G37*
%TD.AperFunction*%
%TA.AperFunction,Conductor*%
G36*
X159831039Y-76844685D02*
G01*
X159876794Y-76897489D01*
X159888000Y-76949000D01*
X159888000Y-76965000D01*
X160781000Y-76965000D01*
X160848039Y-76984685D01*
X160893794Y-77037489D01*
X160905000Y-77089000D01*
X160905000Y-78164999D01*
X160953308Y-78164999D01*
X160953322Y-78164998D01*
X161052607Y-78154855D01*
X161213481Y-78101547D01*
X161213492Y-78101542D01*
X161357728Y-78012575D01*
X161357732Y-78012572D01*
X161452819Y-77917486D01*
X161514142Y-77884001D01*
X161583834Y-77888985D01*
X161639767Y-77930857D01*
X161664184Y-77996321D01*
X161664500Y-78005167D01*
X161664500Y-78470947D01*
X161644815Y-78537986D01*
X161628181Y-78558628D01*
X161432954Y-78753855D01*
X161212669Y-78974140D01*
X161212666Y-78974143D01*
X161143016Y-79043793D01*
X161083198Y-79103611D01*
X161021875Y-79137095D01*
X160952183Y-79132111D01*
X160896250Y-79090239D01*
X160894787Y-79088020D01*
X160894755Y-79088044D01*
X160890934Y-79082785D01*
X160764270Y-78942111D01*
X160611134Y-78830851D01*
X160611129Y-78830848D01*
X160438207Y-78753857D01*
X160438202Y-78753855D01*
X160292401Y-78722865D01*
X160253046Y-78714500D01*
X160063754Y-78714500D01*
X159991387Y-78729881D01*
X159921722Y-78724565D01*
X159865989Y-78682427D01*
X159841884Y-78616847D01*
X159841991Y-78598863D01*
X159842295Y-78595000D01*
X158194000Y-78595000D01*
X158126961Y-78575315D01*
X158081206Y-78522511D01*
X158070000Y-78471000D01*
X158070000Y-78095000D01*
X158570000Y-78095000D01*
X159842296Y-78095000D01*
X159861473Y-78074254D01*
X159921434Y-78038387D01*
X159991268Y-78040632D01*
X160017626Y-78052887D01*
X160096507Y-78101542D01*
X160096518Y-78101547D01*
X160257393Y-78154855D01*
X160356683Y-78164999D01*
X160404999Y-78164998D01*
X160405000Y-78164998D01*
X160405000Y-77465000D01*
X159761000Y-77465000D01*
X159693961Y-77445315D01*
X159648206Y-77392511D01*
X159637000Y-77341000D01*
X159637000Y-77325000D01*
X158570000Y-77325000D01*
X158570000Y-78095000D01*
X158070000Y-78095000D01*
X158070000Y-76949000D01*
X158089685Y-76881961D01*
X158142489Y-76836206D01*
X158194000Y-76825000D01*
X159764000Y-76825000D01*
X159831039Y-76844685D01*
G37*
%TD.AperFunction*%
%TA.AperFunction,Conductor*%
G36*
X163781590Y-73866183D02*
G01*
X163832475Y-73914063D01*
X163849500Y-73976772D01*
X163849500Y-78647870D01*
X163849501Y-78647872D01*
X163854808Y-78697245D01*
X163854809Y-78697246D01*
X163842403Y-78766005D01*
X163794792Y-78817142D01*
X163731519Y-78834500D01*
X163039500Y-78834500D01*
X162972461Y-78814815D01*
X162926706Y-78762011D01*
X162915500Y-78710500D01*
X162915500Y-77942115D01*
X162935185Y-77875076D01*
X162987989Y-77829321D01*
X162996167Y-77825933D01*
X163082328Y-77793797D01*
X163082327Y-77793797D01*
X163082331Y-77793796D01*
X163197546Y-77707546D01*
X163283796Y-77592331D01*
X163334091Y-77457483D01*
X163340500Y-77397873D01*
X163340499Y-75802128D01*
X163334091Y-75742517D01*
X163283796Y-75607669D01*
X163283795Y-75607668D01*
X163283793Y-75607664D01*
X163197547Y-75492455D01*
X163197544Y-75492452D01*
X163082335Y-75406206D01*
X163082328Y-75406202D01*
X162947482Y-75355908D01*
X162947483Y-75355908D01*
X162887883Y-75349501D01*
X162887881Y-75349500D01*
X162887873Y-75349500D01*
X162887865Y-75349500D01*
X161728847Y-75349500D01*
X161661808Y-75329815D01*
X161616053Y-75277011D01*
X161611141Y-75264504D01*
X161607153Y-75252470D01*
X161567003Y-75131303D01*
X161566999Y-75131297D01*
X161566998Y-75131294D01*
X161477970Y-74986959D01*
X161477967Y-74986955D01*
X161443819Y-74952807D01*
X161410334Y-74891484D01*
X161407500Y-74865126D01*
X161407500Y-74599500D01*
X161427185Y-74532461D01*
X161479989Y-74486706D01*
X161531500Y-74475500D01*
X162447107Y-74475500D01*
X162507529Y-74463481D01*
X162567952Y-74451463D01*
X162567955Y-74451461D01*
X162567958Y-74451461D01*
X162601287Y-74437654D01*
X162601286Y-74437654D01*
X162601292Y-74437652D01*
X162681786Y-74404312D01*
X162733009Y-74370084D01*
X162784233Y-74335858D01*
X162871358Y-74248733D01*
X162871358Y-74248731D01*
X162881566Y-74238524D01*
X162881567Y-74238521D01*
X163220271Y-73899819D01*
X163281594Y-73866334D01*
X163307952Y-73863500D01*
X163614169Y-73863500D01*
X163614174Y-73863500D01*
X163712685Y-73853436D01*
X163712686Y-73853435D01*
X163712897Y-73853414D01*
X163781590Y-73866183D01*
G37*
%TD.AperFunction*%
%TA.AperFunction,Conductor*%
G36*
X157782472Y-72019685D02*
G01*
X157828227Y-72072489D01*
X157838171Y-72141647D01*
X157820972Y-72189097D01*
X157730408Y-72335922D01*
X157730406Y-72335927D01*
X157677557Y-72495416D01*
X157667500Y-72593849D01*
X157667500Y-72648000D01*
X158731000Y-72648000D01*
X158798039Y-72667685D01*
X158843794Y-72720489D01*
X158855000Y-72772000D01*
X158855000Y-73872999D01*
X158871636Y-73872999D01*
X158871652Y-73872998D01*
X158970083Y-73862943D01*
X159129572Y-73810093D01*
X159129577Y-73810091D01*
X159272580Y-73721885D01*
X159304466Y-73690000D01*
X159365789Y-73656515D01*
X159435481Y-73661499D01*
X159479828Y-73690000D01*
X159512108Y-73722280D01*
X159512112Y-73722283D01*
X159655204Y-73810544D01*
X159655207Y-73810545D01*
X159655213Y-73810549D01*
X159814815Y-73863436D01*
X159913326Y-73873500D01*
X160041785Y-73873500D01*
X160108824Y-73893185D01*
X160154579Y-73945989D01*
X160164523Y-74015147D01*
X160163403Y-74021690D01*
X160156500Y-74056395D01*
X160156500Y-74671659D01*
X160136815Y-74738698D01*
X160097598Y-74777197D01*
X159951956Y-74867031D01*
X159832031Y-74986956D01*
X159765296Y-75095150D01*
X159713348Y-75141874D01*
X159644385Y-75153095D01*
X159596637Y-75136784D01*
X159526237Y-75095150D01*
X159455398Y-75053256D01*
X159455397Y-75053255D01*
X159455396Y-75053255D01*
X159455393Y-75053254D01*
X159297573Y-75007402D01*
X159297567Y-75007401D01*
X159260701Y-75004500D01*
X159260694Y-75004500D01*
X157379306Y-75004500D01*
X157379298Y-75004500D01*
X157342432Y-75007401D01*
X157342426Y-75007402D01*
X157197267Y-75049576D01*
X157162672Y-75054500D01*
X156734280Y-75054500D01*
X156589292Y-75083340D01*
X156589282Y-75083343D01*
X156452711Y-75139912D01*
X156452698Y-75139919D01*
X156329784Y-75222048D01*
X156329780Y-75222051D01*
X156211681Y-75340151D01*
X156150358Y-75373636D01*
X156080666Y-75368652D01*
X156024733Y-75326780D01*
X156000316Y-75261316D01*
X156000000Y-75252470D01*
X156000000Y-73202152D01*
X157667501Y-73202152D01*
X157677556Y-73300583D01*
X157730406Y-73460072D01*
X157730408Y-73460077D01*
X157818614Y-73603080D01*
X157937419Y-73721885D01*
X158080422Y-73810091D01*
X158080427Y-73810093D01*
X158239916Y-73862942D01*
X158338356Y-73872999D01*
X158355000Y-73872998D01*
X158355000Y-73148000D01*
X157667501Y-73148000D01*
X157667501Y-73202152D01*
X156000000Y-73202152D01*
X156000000Y-72124000D01*
X156019685Y-72056961D01*
X156072489Y-72011206D01*
X156124000Y-72000000D01*
X157715433Y-72000000D01*
X157782472Y-72019685D01*
G37*
%TD.AperFunction*%
%TD*%
M02*
