%TF.GenerationSoftware,KiCad,Pcbnew,8.0.4*%
%TF.CreationDate,2024-11-04T15:39:35+01:00*%
%TF.ProjectId,Flipper_Zero_CAN_Module,466c6970-7065-4725-9f5a-65726f5f4341,rev?*%
%TF.SameCoordinates,Original*%
%TF.FileFunction,Legend,Top*%
%TF.FilePolarity,Positive*%
%FSLAX46Y46*%
G04 Gerber Fmt 4.6, Leading zero omitted, Abs format (unit mm)*
G04 Created by KiCad (PCBNEW 8.0.4) date 2024-11-04 15:39:35*
%MOMM*%
%LPD*%
G01*
G04 APERTURE LIST*
%ADD10C,0.150000*%
%ADD11C,0.125000*%
%ADD12C,0.100000*%
%ADD13C,0.200000*%
%ADD14C,0.120000*%
%ADD15C,0.000000*%
G04 APERTURE END LIST*
D10*
X133000000Y-85000000D02*
X133000000Y-75971400D01*
D11*
X174333690Y-85708240D02*
X174295595Y-85784430D01*
X174295595Y-85784430D02*
X174295595Y-85898716D01*
X174295595Y-85898716D02*
X174333690Y-86013002D01*
X174333690Y-86013002D02*
X174409880Y-86089192D01*
X174409880Y-86089192D02*
X174486071Y-86127287D01*
X174486071Y-86127287D02*
X174638452Y-86165383D01*
X174638452Y-86165383D02*
X174752738Y-86165383D01*
X174752738Y-86165383D02*
X174905119Y-86127287D01*
X174905119Y-86127287D02*
X174981309Y-86089192D01*
X174981309Y-86089192D02*
X175057500Y-86013002D01*
X175057500Y-86013002D02*
X175095595Y-85898716D01*
X175095595Y-85898716D02*
X175095595Y-85822525D01*
X175095595Y-85822525D02*
X175057500Y-85708240D01*
X175057500Y-85708240D02*
X175019404Y-85670144D01*
X175019404Y-85670144D02*
X174752738Y-85670144D01*
X174752738Y-85670144D02*
X174752738Y-85822525D01*
X166895595Y-82358240D02*
X166895595Y-82815383D01*
X166895595Y-82586811D02*
X166095595Y-82586811D01*
X166095595Y-82586811D02*
X166209880Y-82663002D01*
X166209880Y-82663002D02*
X166286071Y-82739192D01*
X166286071Y-82739192D02*
X166324166Y-82815383D01*
X166171785Y-82053478D02*
X166133690Y-82015382D01*
X166133690Y-82015382D02*
X166095595Y-81939192D01*
X166095595Y-81939192D02*
X166095595Y-81748716D01*
X166095595Y-81748716D02*
X166133690Y-81672525D01*
X166133690Y-81672525D02*
X166171785Y-81634430D01*
X166171785Y-81634430D02*
X166247976Y-81596335D01*
X166247976Y-81596335D02*
X166324166Y-81596335D01*
X166324166Y-81596335D02*
X166438452Y-81634430D01*
X166438452Y-81634430D02*
X166895595Y-82091573D01*
X166895595Y-82091573D02*
X166895595Y-81596335D01*
X166095595Y-81101096D02*
X166095595Y-81024906D01*
X166095595Y-81024906D02*
X166133690Y-80948715D01*
X166133690Y-80948715D02*
X166171785Y-80910620D01*
X166171785Y-80910620D02*
X166247976Y-80872525D01*
X166247976Y-80872525D02*
X166400357Y-80834430D01*
X166400357Y-80834430D02*
X166590833Y-80834430D01*
X166590833Y-80834430D02*
X166743214Y-80872525D01*
X166743214Y-80872525D02*
X166819404Y-80910620D01*
X166819404Y-80910620D02*
X166857500Y-80948715D01*
X166857500Y-80948715D02*
X166895595Y-81024906D01*
X166895595Y-81024906D02*
X166895595Y-81101096D01*
X166895595Y-81101096D02*
X166857500Y-81177287D01*
X166857500Y-81177287D02*
X166819404Y-81215382D01*
X166819404Y-81215382D02*
X166743214Y-81253477D01*
X166743214Y-81253477D02*
X166590833Y-81291573D01*
X166590833Y-81291573D02*
X166400357Y-81291573D01*
X166400357Y-81291573D02*
X166247976Y-81253477D01*
X166247976Y-81253477D02*
X166171785Y-81215382D01*
X166171785Y-81215382D02*
X166133690Y-81177287D01*
X166133690Y-81177287D02*
X166095595Y-81101096D01*
D12*
X126856265Y-85596895D02*
X126856265Y-85063561D01*
X126856265Y-85215942D02*
X126894360Y-85139752D01*
X126894360Y-85139752D02*
X126932455Y-85101657D01*
X126932455Y-85101657D02*
X127008646Y-85063561D01*
X127008646Y-85063561D02*
X127084836Y-85063561D01*
X127656265Y-85558800D02*
X127580074Y-85596895D01*
X127580074Y-85596895D02*
X127427693Y-85596895D01*
X127427693Y-85596895D02*
X127351503Y-85558800D01*
X127351503Y-85558800D02*
X127313407Y-85482609D01*
X127313407Y-85482609D02*
X127313407Y-85177847D01*
X127313407Y-85177847D02*
X127351503Y-85101657D01*
X127351503Y-85101657D02*
X127427693Y-85063561D01*
X127427693Y-85063561D02*
X127580074Y-85063561D01*
X127580074Y-85063561D02*
X127656265Y-85101657D01*
X127656265Y-85101657D02*
X127694360Y-85177847D01*
X127694360Y-85177847D02*
X127694360Y-85254038D01*
X127694360Y-85254038D02*
X127313407Y-85330228D01*
X127961026Y-85063561D02*
X128151502Y-85596895D01*
X128151502Y-85596895D02*
X128341979Y-85063561D01*
X128799122Y-84796895D02*
X128875312Y-84796895D01*
X128875312Y-84796895D02*
X128951503Y-84834990D01*
X128951503Y-84834990D02*
X128989598Y-84873085D01*
X128989598Y-84873085D02*
X129027693Y-84949276D01*
X129027693Y-84949276D02*
X129065788Y-85101657D01*
X129065788Y-85101657D02*
X129065788Y-85292133D01*
X129065788Y-85292133D02*
X129027693Y-85444514D01*
X129027693Y-85444514D02*
X128989598Y-85520704D01*
X128989598Y-85520704D02*
X128951503Y-85558800D01*
X128951503Y-85558800D02*
X128875312Y-85596895D01*
X128875312Y-85596895D02*
X128799122Y-85596895D01*
X128799122Y-85596895D02*
X128722931Y-85558800D01*
X128722931Y-85558800D02*
X128684836Y-85520704D01*
X128684836Y-85520704D02*
X128646741Y-85444514D01*
X128646741Y-85444514D02*
X128608645Y-85292133D01*
X128608645Y-85292133D02*
X128608645Y-85101657D01*
X128608645Y-85101657D02*
X128646741Y-84949276D01*
X128646741Y-84949276D02*
X128684836Y-84873085D01*
X128684836Y-84873085D02*
X128722931Y-84834990D01*
X128722931Y-84834990D02*
X128799122Y-84796895D01*
D13*
X114643482Y-81967576D02*
X114583958Y-82027100D01*
X114583958Y-82027100D02*
X114405387Y-82086623D01*
X114405387Y-82086623D02*
X114286339Y-82086623D01*
X114286339Y-82086623D02*
X114107768Y-82027100D01*
X114107768Y-82027100D02*
X113988720Y-81908052D01*
X113988720Y-81908052D02*
X113929197Y-81789004D01*
X113929197Y-81789004D02*
X113869673Y-81550909D01*
X113869673Y-81550909D02*
X113869673Y-81372338D01*
X113869673Y-81372338D02*
X113929197Y-81134242D01*
X113929197Y-81134242D02*
X113988720Y-81015195D01*
X113988720Y-81015195D02*
X114107768Y-80896147D01*
X114107768Y-80896147D02*
X114286339Y-80836623D01*
X114286339Y-80836623D02*
X114405387Y-80836623D01*
X114405387Y-80836623D02*
X114583958Y-80896147D01*
X114583958Y-80896147D02*
X114643482Y-80955671D01*
X115119673Y-81729480D02*
X115714911Y-81729480D01*
X115000625Y-82086623D02*
X115417292Y-80836623D01*
X115417292Y-80836623D02*
X115833958Y-82086623D01*
X116250626Y-82086623D02*
X116250626Y-80836623D01*
X116250626Y-80836623D02*
X116964911Y-82086623D01*
X116964911Y-82086623D02*
X116964911Y-80836623D01*
X118929197Y-81431861D02*
X118512531Y-81431861D01*
X118512531Y-82086623D02*
X118512531Y-80836623D01*
X118512531Y-80836623D02*
X119107769Y-80836623D01*
X119583960Y-82086623D02*
X119583960Y-80836623D01*
X119583960Y-80836623D02*
X119881579Y-80836623D01*
X119881579Y-80836623D02*
X120060150Y-80896147D01*
X120060150Y-80896147D02*
X120179198Y-81015195D01*
X120179198Y-81015195D02*
X120238721Y-81134242D01*
X120238721Y-81134242D02*
X120298245Y-81372338D01*
X120298245Y-81372338D02*
X120298245Y-81550909D01*
X120298245Y-81550909D02*
X120238721Y-81789004D01*
X120238721Y-81789004D02*
X120179198Y-81908052D01*
X120179198Y-81908052D02*
X120060150Y-82027100D01*
X120060150Y-82027100D02*
X119881579Y-82086623D01*
X119881579Y-82086623D02*
X119583960Y-82086623D01*
X121726817Y-80777100D02*
X120655388Y-82384242D01*
X122143484Y-82086623D02*
X122143484Y-80836623D01*
X122143484Y-81431861D02*
X122857769Y-81431861D01*
X122857769Y-82086623D02*
X122857769Y-80836623D01*
X123393484Y-82027100D02*
X123572055Y-82086623D01*
X123572055Y-82086623D02*
X123869674Y-82086623D01*
X123869674Y-82086623D02*
X123988722Y-82027100D01*
X123988722Y-82027100D02*
X124048246Y-81967576D01*
X124048246Y-81967576D02*
X124107769Y-81848528D01*
X124107769Y-81848528D02*
X124107769Y-81729480D01*
X124107769Y-81729480D02*
X124048246Y-81610433D01*
X124048246Y-81610433D02*
X123988722Y-81550909D01*
X123988722Y-81550909D02*
X123869674Y-81491385D01*
X123869674Y-81491385D02*
X123631579Y-81431861D01*
X123631579Y-81431861D02*
X123512531Y-81372338D01*
X123512531Y-81372338D02*
X123453008Y-81312814D01*
X123453008Y-81312814D02*
X123393484Y-81193766D01*
X123393484Y-81193766D02*
X123393484Y-81074719D01*
X123393484Y-81074719D02*
X123453008Y-80955671D01*
X123453008Y-80955671D02*
X123512531Y-80896147D01*
X123512531Y-80896147D02*
X123631579Y-80836623D01*
X123631579Y-80836623D02*
X123929198Y-80836623D01*
X123929198Y-80836623D02*
X124107769Y-80896147D01*
X125595865Y-82086623D02*
X125595865Y-80836623D01*
X125595865Y-80836623D02*
X126012531Y-81729480D01*
X126012531Y-81729480D02*
X126429198Y-80836623D01*
X126429198Y-80836623D02*
X126429198Y-82086623D01*
X127203007Y-82086623D02*
X127083959Y-82027100D01*
X127083959Y-82027100D02*
X127024436Y-81967576D01*
X127024436Y-81967576D02*
X126964912Y-81848528D01*
X126964912Y-81848528D02*
X126964912Y-81491385D01*
X126964912Y-81491385D02*
X127024436Y-81372338D01*
X127024436Y-81372338D02*
X127083959Y-81312814D01*
X127083959Y-81312814D02*
X127203007Y-81253290D01*
X127203007Y-81253290D02*
X127381578Y-81253290D01*
X127381578Y-81253290D02*
X127500626Y-81312814D01*
X127500626Y-81312814D02*
X127560150Y-81372338D01*
X127560150Y-81372338D02*
X127619674Y-81491385D01*
X127619674Y-81491385D02*
X127619674Y-81848528D01*
X127619674Y-81848528D02*
X127560150Y-81967576D01*
X127560150Y-81967576D02*
X127500626Y-82027100D01*
X127500626Y-82027100D02*
X127381578Y-82086623D01*
X127381578Y-82086623D02*
X127203007Y-82086623D01*
X128691102Y-82086623D02*
X128691102Y-80836623D01*
X128691102Y-82027100D02*
X128572054Y-82086623D01*
X128572054Y-82086623D02*
X128333959Y-82086623D01*
X128333959Y-82086623D02*
X128214911Y-82027100D01*
X128214911Y-82027100D02*
X128155388Y-81967576D01*
X128155388Y-81967576D02*
X128095864Y-81848528D01*
X128095864Y-81848528D02*
X128095864Y-81491385D01*
X128095864Y-81491385D02*
X128155388Y-81372338D01*
X128155388Y-81372338D02*
X128214911Y-81312814D01*
X128214911Y-81312814D02*
X128333959Y-81253290D01*
X128333959Y-81253290D02*
X128572054Y-81253290D01*
X128572054Y-81253290D02*
X128691102Y-81312814D01*
X129822054Y-81253290D02*
X129822054Y-82086623D01*
X129286340Y-81253290D02*
X129286340Y-81908052D01*
X129286340Y-81908052D02*
X129345863Y-82027100D01*
X129345863Y-82027100D02*
X129464911Y-82086623D01*
X129464911Y-82086623D02*
X129643482Y-82086623D01*
X129643482Y-82086623D02*
X129762530Y-82027100D01*
X129762530Y-82027100D02*
X129822054Y-81967576D01*
X130595863Y-82086623D02*
X130476815Y-82027100D01*
X130476815Y-82027100D02*
X130417292Y-81908052D01*
X130417292Y-81908052D02*
X130417292Y-80836623D01*
X131548244Y-82027100D02*
X131429196Y-82086623D01*
X131429196Y-82086623D02*
X131191101Y-82086623D01*
X131191101Y-82086623D02*
X131072054Y-82027100D01*
X131072054Y-82027100D02*
X131012530Y-81908052D01*
X131012530Y-81908052D02*
X131012530Y-81431861D01*
X131012530Y-81431861D02*
X131072054Y-81312814D01*
X131072054Y-81312814D02*
X131191101Y-81253290D01*
X131191101Y-81253290D02*
X131429196Y-81253290D01*
X131429196Y-81253290D02*
X131548244Y-81312814D01*
X131548244Y-81312814D02*
X131607768Y-81431861D01*
X131607768Y-81431861D02*
X131607768Y-81550909D01*
X131607768Y-81550909D02*
X131012530Y-81669957D01*
D12*
X114056265Y-85796895D02*
X114056265Y-84996895D01*
X114056265Y-84996895D02*
X114513408Y-85796895D01*
X114513408Y-85796895D02*
X114513408Y-84996895D01*
X115008645Y-85796895D02*
X114932455Y-85758800D01*
X114932455Y-85758800D02*
X114894360Y-85720704D01*
X114894360Y-85720704D02*
X114856264Y-85644514D01*
X114856264Y-85644514D02*
X114856264Y-85415942D01*
X114856264Y-85415942D02*
X114894360Y-85339752D01*
X114894360Y-85339752D02*
X114932455Y-85301657D01*
X114932455Y-85301657D02*
X115008645Y-85263561D01*
X115008645Y-85263561D02*
X115122931Y-85263561D01*
X115122931Y-85263561D02*
X115199122Y-85301657D01*
X115199122Y-85301657D02*
X115237217Y-85339752D01*
X115237217Y-85339752D02*
X115275312Y-85415942D01*
X115275312Y-85415942D02*
X115275312Y-85644514D01*
X115275312Y-85644514D02*
X115237217Y-85720704D01*
X115237217Y-85720704D02*
X115199122Y-85758800D01*
X115199122Y-85758800D02*
X115122931Y-85796895D01*
X115122931Y-85796895D02*
X115008645Y-85796895D01*
X115541979Y-85263561D02*
X115732455Y-85796895D01*
X115732455Y-85796895D02*
X115922932Y-85263561D01*
X116532456Y-85758800D02*
X116456265Y-85796895D01*
X116456265Y-85796895D02*
X116303884Y-85796895D01*
X116303884Y-85796895D02*
X116227694Y-85758800D01*
X116227694Y-85758800D02*
X116189598Y-85682609D01*
X116189598Y-85682609D02*
X116189598Y-85377847D01*
X116189598Y-85377847D02*
X116227694Y-85301657D01*
X116227694Y-85301657D02*
X116303884Y-85263561D01*
X116303884Y-85263561D02*
X116456265Y-85263561D01*
X116456265Y-85263561D02*
X116532456Y-85301657D01*
X116532456Y-85301657D02*
X116570551Y-85377847D01*
X116570551Y-85377847D02*
X116570551Y-85454038D01*
X116570551Y-85454038D02*
X116189598Y-85530228D01*
X116913408Y-85796895D02*
X116913408Y-85263561D01*
X116913408Y-85339752D02*
X116951503Y-85301657D01*
X116951503Y-85301657D02*
X117027693Y-85263561D01*
X117027693Y-85263561D02*
X117141979Y-85263561D01*
X117141979Y-85263561D02*
X117218170Y-85301657D01*
X117218170Y-85301657D02*
X117256265Y-85377847D01*
X117256265Y-85377847D02*
X117256265Y-85796895D01*
X117256265Y-85377847D02*
X117294360Y-85301657D01*
X117294360Y-85301657D02*
X117370551Y-85263561D01*
X117370551Y-85263561D02*
X117484836Y-85263561D01*
X117484836Y-85263561D02*
X117561027Y-85301657D01*
X117561027Y-85301657D02*
X117599122Y-85377847D01*
X117599122Y-85377847D02*
X117599122Y-85796895D01*
X117980075Y-85796895D02*
X117980075Y-84996895D01*
X117980075Y-85301657D02*
X118056265Y-85263561D01*
X118056265Y-85263561D02*
X118208646Y-85263561D01*
X118208646Y-85263561D02*
X118284837Y-85301657D01*
X118284837Y-85301657D02*
X118322932Y-85339752D01*
X118322932Y-85339752D02*
X118361027Y-85415942D01*
X118361027Y-85415942D02*
X118361027Y-85644514D01*
X118361027Y-85644514D02*
X118322932Y-85720704D01*
X118322932Y-85720704D02*
X118284837Y-85758800D01*
X118284837Y-85758800D02*
X118208646Y-85796895D01*
X118208646Y-85796895D02*
X118056265Y-85796895D01*
X118056265Y-85796895D02*
X117980075Y-85758800D01*
X119008647Y-85758800D02*
X118932456Y-85796895D01*
X118932456Y-85796895D02*
X118780075Y-85796895D01*
X118780075Y-85796895D02*
X118703885Y-85758800D01*
X118703885Y-85758800D02*
X118665789Y-85682609D01*
X118665789Y-85682609D02*
X118665789Y-85377847D01*
X118665789Y-85377847D02*
X118703885Y-85301657D01*
X118703885Y-85301657D02*
X118780075Y-85263561D01*
X118780075Y-85263561D02*
X118932456Y-85263561D01*
X118932456Y-85263561D02*
X119008647Y-85301657D01*
X119008647Y-85301657D02*
X119046742Y-85377847D01*
X119046742Y-85377847D02*
X119046742Y-85454038D01*
X119046742Y-85454038D02*
X118665789Y-85530228D01*
X119389599Y-85796895D02*
X119389599Y-85263561D01*
X119389599Y-85415942D02*
X119427694Y-85339752D01*
X119427694Y-85339752D02*
X119465789Y-85301657D01*
X119465789Y-85301657D02*
X119541980Y-85263561D01*
X119541980Y-85263561D02*
X119618170Y-85263561D01*
X120456265Y-85073085D02*
X120494361Y-85034990D01*
X120494361Y-85034990D02*
X120570551Y-84996895D01*
X120570551Y-84996895D02*
X120761027Y-84996895D01*
X120761027Y-84996895D02*
X120837218Y-85034990D01*
X120837218Y-85034990D02*
X120875313Y-85073085D01*
X120875313Y-85073085D02*
X120913408Y-85149276D01*
X120913408Y-85149276D02*
X120913408Y-85225466D01*
X120913408Y-85225466D02*
X120875313Y-85339752D01*
X120875313Y-85339752D02*
X120418170Y-85796895D01*
X120418170Y-85796895D02*
X120913408Y-85796895D01*
X121408647Y-84996895D02*
X121484837Y-84996895D01*
X121484837Y-84996895D02*
X121561028Y-85034990D01*
X121561028Y-85034990D02*
X121599123Y-85073085D01*
X121599123Y-85073085D02*
X121637218Y-85149276D01*
X121637218Y-85149276D02*
X121675313Y-85301657D01*
X121675313Y-85301657D02*
X121675313Y-85492133D01*
X121675313Y-85492133D02*
X121637218Y-85644514D01*
X121637218Y-85644514D02*
X121599123Y-85720704D01*
X121599123Y-85720704D02*
X121561028Y-85758800D01*
X121561028Y-85758800D02*
X121484837Y-85796895D01*
X121484837Y-85796895D02*
X121408647Y-85796895D01*
X121408647Y-85796895D02*
X121332456Y-85758800D01*
X121332456Y-85758800D02*
X121294361Y-85720704D01*
X121294361Y-85720704D02*
X121256266Y-85644514D01*
X121256266Y-85644514D02*
X121218170Y-85492133D01*
X121218170Y-85492133D02*
X121218170Y-85301657D01*
X121218170Y-85301657D02*
X121256266Y-85149276D01*
X121256266Y-85149276D02*
X121294361Y-85073085D01*
X121294361Y-85073085D02*
X121332456Y-85034990D01*
X121332456Y-85034990D02*
X121408647Y-84996895D01*
X121980075Y-85073085D02*
X122018171Y-85034990D01*
X122018171Y-85034990D02*
X122094361Y-84996895D01*
X122094361Y-84996895D02*
X122284837Y-84996895D01*
X122284837Y-84996895D02*
X122361028Y-85034990D01*
X122361028Y-85034990D02*
X122399123Y-85073085D01*
X122399123Y-85073085D02*
X122437218Y-85149276D01*
X122437218Y-85149276D02*
X122437218Y-85225466D01*
X122437218Y-85225466D02*
X122399123Y-85339752D01*
X122399123Y-85339752D02*
X121941980Y-85796895D01*
X121941980Y-85796895D02*
X122437218Y-85796895D01*
X122703885Y-84996895D02*
X123199123Y-84996895D01*
X123199123Y-84996895D02*
X122932457Y-85301657D01*
X122932457Y-85301657D02*
X123046742Y-85301657D01*
X123046742Y-85301657D02*
X123122933Y-85339752D01*
X123122933Y-85339752D02*
X123161028Y-85377847D01*
X123161028Y-85377847D02*
X123199123Y-85454038D01*
X123199123Y-85454038D02*
X123199123Y-85644514D01*
X123199123Y-85644514D02*
X123161028Y-85720704D01*
X123161028Y-85720704D02*
X123122933Y-85758800D01*
X123122933Y-85758800D02*
X123046742Y-85796895D01*
X123046742Y-85796895D02*
X122818171Y-85796895D01*
X122818171Y-85796895D02*
X122741980Y-85758800D01*
X122741980Y-85758800D02*
X122703885Y-85720704D01*
D13*
X113874435Y-83300552D02*
X114064911Y-83967219D01*
X114064911Y-83967219D02*
X114255387Y-83491028D01*
X114255387Y-83491028D02*
X114445863Y-83967219D01*
X114445863Y-83967219D02*
X114636339Y-83300552D01*
X116303006Y-83014838D02*
X116207768Y-82967219D01*
X116207768Y-82967219D02*
X116064911Y-82967219D01*
X116064911Y-82967219D02*
X115922054Y-83014838D01*
X115922054Y-83014838D02*
X115826816Y-83110076D01*
X115826816Y-83110076D02*
X115779197Y-83205314D01*
X115779197Y-83205314D02*
X115731578Y-83395790D01*
X115731578Y-83395790D02*
X115731578Y-83538647D01*
X115731578Y-83538647D02*
X115779197Y-83729123D01*
X115779197Y-83729123D02*
X115826816Y-83824361D01*
X115826816Y-83824361D02*
X115922054Y-83919600D01*
X115922054Y-83919600D02*
X116064911Y-83967219D01*
X116064911Y-83967219D02*
X116160149Y-83967219D01*
X116160149Y-83967219D02*
X116303006Y-83919600D01*
X116303006Y-83919600D02*
X116350625Y-83871980D01*
X116350625Y-83871980D02*
X116350625Y-83538647D01*
X116350625Y-83538647D02*
X116160149Y-83538647D01*
X117207768Y-83967219D02*
X117207768Y-83443409D01*
X117207768Y-83443409D02*
X117160149Y-83348171D01*
X117160149Y-83348171D02*
X117064911Y-83300552D01*
X117064911Y-83300552D02*
X116874435Y-83300552D01*
X116874435Y-83300552D02*
X116779197Y-83348171D01*
X117207768Y-83919600D02*
X117112530Y-83967219D01*
X117112530Y-83967219D02*
X116874435Y-83967219D01*
X116874435Y-83967219D02*
X116779197Y-83919600D01*
X116779197Y-83919600D02*
X116731578Y-83824361D01*
X116731578Y-83824361D02*
X116731578Y-83729123D01*
X116731578Y-83729123D02*
X116779197Y-83633885D01*
X116779197Y-83633885D02*
X116874435Y-83586266D01*
X116874435Y-83586266D02*
X117112530Y-83586266D01*
X117112530Y-83586266D02*
X117207768Y-83538647D01*
X117826816Y-83967219D02*
X117731578Y-83919600D01*
X117731578Y-83919600D02*
X117683959Y-83824361D01*
X117683959Y-83824361D02*
X117683959Y-82967219D01*
X118112531Y-83300552D02*
X118350626Y-83967219D01*
X118350626Y-83967219D02*
X118588721Y-83300552D01*
X119398245Y-83967219D02*
X119398245Y-83443409D01*
X119398245Y-83443409D02*
X119350626Y-83348171D01*
X119350626Y-83348171D02*
X119255388Y-83300552D01*
X119255388Y-83300552D02*
X119064912Y-83300552D01*
X119064912Y-83300552D02*
X118969674Y-83348171D01*
X119398245Y-83919600D02*
X119303007Y-83967219D01*
X119303007Y-83967219D02*
X119064912Y-83967219D01*
X119064912Y-83967219D02*
X118969674Y-83919600D01*
X118969674Y-83919600D02*
X118922055Y-83824361D01*
X118922055Y-83824361D02*
X118922055Y-83729123D01*
X118922055Y-83729123D02*
X118969674Y-83633885D01*
X118969674Y-83633885D02*
X119064912Y-83586266D01*
X119064912Y-83586266D02*
X119303007Y-83586266D01*
X119303007Y-83586266D02*
X119398245Y-83538647D01*
X119874436Y-83300552D02*
X119874436Y-83967219D01*
X119874436Y-83395790D02*
X119922055Y-83348171D01*
X119922055Y-83348171D02*
X120017293Y-83300552D01*
X120017293Y-83300552D02*
X120160150Y-83300552D01*
X120160150Y-83300552D02*
X120255388Y-83348171D01*
X120255388Y-83348171D02*
X120303007Y-83443409D01*
X120303007Y-83443409D02*
X120303007Y-83967219D01*
X120779198Y-83967219D02*
X120779198Y-83300552D01*
X120779198Y-82967219D02*
X120731579Y-83014838D01*
X120731579Y-83014838D02*
X120779198Y-83062457D01*
X120779198Y-83062457D02*
X120826817Y-83014838D01*
X120826817Y-83014838D02*
X120779198Y-82967219D01*
X120779198Y-82967219D02*
X120779198Y-83062457D01*
X121683959Y-83919600D02*
X121588721Y-83967219D01*
X121588721Y-83967219D02*
X121398245Y-83967219D01*
X121398245Y-83967219D02*
X121303007Y-83919600D01*
X121303007Y-83919600D02*
X121255388Y-83871980D01*
X121255388Y-83871980D02*
X121207769Y-83776742D01*
X121207769Y-83776742D02*
X121207769Y-83491028D01*
X121207769Y-83491028D02*
X121255388Y-83395790D01*
X121255388Y-83395790D02*
X121303007Y-83348171D01*
X121303007Y-83348171D02*
X121398245Y-83300552D01*
X121398245Y-83300552D02*
X121588721Y-83300552D01*
X121588721Y-83300552D02*
X121683959Y-83348171D01*
X122874436Y-83967219D02*
X122874436Y-82967219D01*
X123303007Y-83919600D02*
X123398245Y-83967219D01*
X123398245Y-83967219D02*
X123588721Y-83967219D01*
X123588721Y-83967219D02*
X123683959Y-83919600D01*
X123683959Y-83919600D02*
X123731578Y-83824361D01*
X123731578Y-83824361D02*
X123731578Y-83776742D01*
X123731578Y-83776742D02*
X123683959Y-83681504D01*
X123683959Y-83681504D02*
X123588721Y-83633885D01*
X123588721Y-83633885D02*
X123445864Y-83633885D01*
X123445864Y-83633885D02*
X123350626Y-83586266D01*
X123350626Y-83586266D02*
X123303007Y-83491028D01*
X123303007Y-83491028D02*
X123303007Y-83443409D01*
X123303007Y-83443409D02*
X123350626Y-83348171D01*
X123350626Y-83348171D02*
X123445864Y-83300552D01*
X123445864Y-83300552D02*
X123588721Y-83300552D01*
X123588721Y-83300552D02*
X123683959Y-83348171D01*
X124303007Y-83967219D02*
X124207769Y-83919600D01*
X124207769Y-83919600D02*
X124160150Y-83871980D01*
X124160150Y-83871980D02*
X124112531Y-83776742D01*
X124112531Y-83776742D02*
X124112531Y-83491028D01*
X124112531Y-83491028D02*
X124160150Y-83395790D01*
X124160150Y-83395790D02*
X124207769Y-83348171D01*
X124207769Y-83348171D02*
X124303007Y-83300552D01*
X124303007Y-83300552D02*
X124445864Y-83300552D01*
X124445864Y-83300552D02*
X124541102Y-83348171D01*
X124541102Y-83348171D02*
X124588721Y-83395790D01*
X124588721Y-83395790D02*
X124636340Y-83491028D01*
X124636340Y-83491028D02*
X124636340Y-83776742D01*
X124636340Y-83776742D02*
X124588721Y-83871980D01*
X124588721Y-83871980D02*
X124541102Y-83919600D01*
X124541102Y-83919600D02*
X124445864Y-83967219D01*
X124445864Y-83967219D02*
X124303007Y-83967219D01*
X125207769Y-83967219D02*
X125112531Y-83919600D01*
X125112531Y-83919600D02*
X125064912Y-83824361D01*
X125064912Y-83824361D02*
X125064912Y-82967219D01*
X126017293Y-83967219D02*
X126017293Y-83443409D01*
X126017293Y-83443409D02*
X125969674Y-83348171D01*
X125969674Y-83348171D02*
X125874436Y-83300552D01*
X125874436Y-83300552D02*
X125683960Y-83300552D01*
X125683960Y-83300552D02*
X125588722Y-83348171D01*
X126017293Y-83919600D02*
X125922055Y-83967219D01*
X125922055Y-83967219D02*
X125683960Y-83967219D01*
X125683960Y-83967219D02*
X125588722Y-83919600D01*
X125588722Y-83919600D02*
X125541103Y-83824361D01*
X125541103Y-83824361D02*
X125541103Y-83729123D01*
X125541103Y-83729123D02*
X125588722Y-83633885D01*
X125588722Y-83633885D02*
X125683960Y-83586266D01*
X125683960Y-83586266D02*
X125922055Y-83586266D01*
X125922055Y-83586266D02*
X126017293Y-83538647D01*
X126350627Y-83300552D02*
X126731579Y-83300552D01*
X126493484Y-82967219D02*
X126493484Y-83824361D01*
X126493484Y-83824361D02*
X126541103Y-83919600D01*
X126541103Y-83919600D02*
X126636341Y-83967219D01*
X126636341Y-83967219D02*
X126731579Y-83967219D01*
X127064913Y-83967219D02*
X127064913Y-83300552D01*
X127064913Y-82967219D02*
X127017294Y-83014838D01*
X127017294Y-83014838D02*
X127064913Y-83062457D01*
X127064913Y-83062457D02*
X127112532Y-83014838D01*
X127112532Y-83014838D02*
X127064913Y-82967219D01*
X127064913Y-82967219D02*
X127064913Y-83062457D01*
X127683960Y-83967219D02*
X127588722Y-83919600D01*
X127588722Y-83919600D02*
X127541103Y-83871980D01*
X127541103Y-83871980D02*
X127493484Y-83776742D01*
X127493484Y-83776742D02*
X127493484Y-83491028D01*
X127493484Y-83491028D02*
X127541103Y-83395790D01*
X127541103Y-83395790D02*
X127588722Y-83348171D01*
X127588722Y-83348171D02*
X127683960Y-83300552D01*
X127683960Y-83300552D02*
X127826817Y-83300552D01*
X127826817Y-83300552D02*
X127922055Y-83348171D01*
X127922055Y-83348171D02*
X127969674Y-83395790D01*
X127969674Y-83395790D02*
X128017293Y-83491028D01*
X128017293Y-83491028D02*
X128017293Y-83776742D01*
X128017293Y-83776742D02*
X127969674Y-83871980D01*
X127969674Y-83871980D02*
X127922055Y-83919600D01*
X127922055Y-83919600D02*
X127826817Y-83967219D01*
X127826817Y-83967219D02*
X127683960Y-83967219D01*
X128445865Y-83300552D02*
X128445865Y-83967219D01*
X128445865Y-83395790D02*
X128493484Y-83348171D01*
X128493484Y-83348171D02*
X128588722Y-83300552D01*
X128588722Y-83300552D02*
X128731579Y-83300552D01*
X128731579Y-83300552D02*
X128826817Y-83348171D01*
X128826817Y-83348171D02*
X128874436Y-83443409D01*
X128874436Y-83443409D02*
X128874436Y-83967219D01*
X173942742Y-85382707D02*
X172742742Y-85382707D01*
X173314171Y-85382707D02*
X173314171Y-84696993D01*
X173942742Y-84696993D02*
X172742742Y-84696993D01*
D11*
X146722712Y-74540833D02*
X147332236Y-74540833D01*
X147027474Y-74845595D02*
X147027474Y-74236071D01*
X148094140Y-74045595D02*
X147713188Y-74045595D01*
X147713188Y-74045595D02*
X147675092Y-74426547D01*
X147675092Y-74426547D02*
X147713188Y-74388452D01*
X147713188Y-74388452D02*
X147789378Y-74350357D01*
X147789378Y-74350357D02*
X147979854Y-74350357D01*
X147979854Y-74350357D02*
X148056045Y-74388452D01*
X148056045Y-74388452D02*
X148094140Y-74426547D01*
X148094140Y-74426547D02*
X148132235Y-74502738D01*
X148132235Y-74502738D02*
X148132235Y-74693214D01*
X148132235Y-74693214D02*
X148094140Y-74769404D01*
X148094140Y-74769404D02*
X148056045Y-74807500D01*
X148056045Y-74807500D02*
X147979854Y-74845595D01*
X147979854Y-74845595D02*
X147789378Y-74845595D01*
X147789378Y-74845595D02*
X147713188Y-74807500D01*
X147713188Y-74807500D02*
X147675092Y-74769404D01*
X148360807Y-74045595D02*
X148627474Y-74845595D01*
X148627474Y-74845595D02*
X148894140Y-74045595D01*
D13*
X171242742Y-84711279D02*
X171242742Y-85282707D01*
X171242742Y-85282707D02*
X170042742Y-85282707D01*
D11*
X157802712Y-74580833D02*
X158412236Y-74580833D01*
X158107474Y-74885595D02*
X158107474Y-74276071D01*
X159174140Y-74085595D02*
X158793188Y-74085595D01*
X158793188Y-74085595D02*
X158755092Y-74466547D01*
X158755092Y-74466547D02*
X158793188Y-74428452D01*
X158793188Y-74428452D02*
X158869378Y-74390357D01*
X158869378Y-74390357D02*
X159059854Y-74390357D01*
X159059854Y-74390357D02*
X159136045Y-74428452D01*
X159136045Y-74428452D02*
X159174140Y-74466547D01*
X159174140Y-74466547D02*
X159212235Y-74542738D01*
X159212235Y-74542738D02*
X159212235Y-74733214D01*
X159212235Y-74733214D02*
X159174140Y-74809404D01*
X159174140Y-74809404D02*
X159136045Y-74847500D01*
X159136045Y-74847500D02*
X159059854Y-74885595D01*
X159059854Y-74885595D02*
X158869378Y-74885595D01*
X158869378Y-74885595D02*
X158793188Y-74847500D01*
X158793188Y-74847500D02*
X158755092Y-74809404D01*
X159440807Y-74085595D02*
X159707474Y-74885595D01*
X159707474Y-74885595D02*
X159974140Y-74085595D01*
X160240807Y-74885595D02*
X160240807Y-74085595D01*
X160240807Y-74085595D02*
X160545569Y-74085595D01*
X160545569Y-74085595D02*
X160621759Y-74123690D01*
X160621759Y-74123690D02*
X160659854Y-74161785D01*
X160659854Y-74161785D02*
X160697950Y-74237976D01*
X160697950Y-74237976D02*
X160697950Y-74352261D01*
X160697950Y-74352261D02*
X160659854Y-74428452D01*
X160659854Y-74428452D02*
X160621759Y-74466547D01*
X160621759Y-74466547D02*
X160545569Y-74504642D01*
X160545569Y-74504642D02*
X160240807Y-74504642D01*
X175035595Y-83146335D02*
X175035595Y-83527287D01*
X175035595Y-83527287D02*
X174235595Y-83527287D01*
X175015595Y-81877287D02*
X174215595Y-81877287D01*
X174596547Y-81877287D02*
X174596547Y-81420144D01*
X175015595Y-81420144D02*
X174215595Y-81420144D01*
D13*
X167699885Y-84754136D02*
X167642742Y-84868422D01*
X167642742Y-84868422D02*
X167642742Y-85039850D01*
X167642742Y-85039850D02*
X167699885Y-85211279D01*
X167699885Y-85211279D02*
X167814171Y-85325564D01*
X167814171Y-85325564D02*
X167928457Y-85382707D01*
X167928457Y-85382707D02*
X168157028Y-85439850D01*
X168157028Y-85439850D02*
X168328457Y-85439850D01*
X168328457Y-85439850D02*
X168557028Y-85382707D01*
X168557028Y-85382707D02*
X168671314Y-85325564D01*
X168671314Y-85325564D02*
X168785600Y-85211279D01*
X168785600Y-85211279D02*
X168842742Y-85039850D01*
X168842742Y-85039850D02*
X168842742Y-84925564D01*
X168842742Y-84925564D02*
X168785600Y-84754136D01*
X168785600Y-84754136D02*
X168728457Y-84696993D01*
X168728457Y-84696993D02*
X168328457Y-84696993D01*
X168328457Y-84696993D02*
X168328457Y-84925564D01*
D10*
X164546667Y-86237200D02*
X164689524Y-86284819D01*
X164689524Y-86284819D02*
X164927619Y-86284819D01*
X164927619Y-86284819D02*
X165022857Y-86237200D01*
X165022857Y-86237200D02*
X165070476Y-86189580D01*
X165070476Y-86189580D02*
X165118095Y-86094342D01*
X165118095Y-86094342D02*
X165118095Y-85999104D01*
X165118095Y-85999104D02*
X165070476Y-85903866D01*
X165070476Y-85903866D02*
X165022857Y-85856247D01*
X165022857Y-85856247D02*
X164927619Y-85808628D01*
X164927619Y-85808628D02*
X164737143Y-85761009D01*
X164737143Y-85761009D02*
X164641905Y-85713390D01*
X164641905Y-85713390D02*
X164594286Y-85665771D01*
X164594286Y-85665771D02*
X164546667Y-85570533D01*
X164546667Y-85570533D02*
X164546667Y-85475295D01*
X164546667Y-85475295D02*
X164594286Y-85380057D01*
X164594286Y-85380057D02*
X164641905Y-85332438D01*
X164641905Y-85332438D02*
X164737143Y-85284819D01*
X164737143Y-85284819D02*
X164975238Y-85284819D01*
X164975238Y-85284819D02*
X165118095Y-85332438D01*
X165451429Y-85284819D02*
X165689524Y-86284819D01*
X165689524Y-86284819D02*
X165880000Y-85570533D01*
X165880000Y-85570533D02*
X166070476Y-86284819D01*
X166070476Y-86284819D02*
X166308572Y-85284819D01*
X167213333Y-86284819D02*
X166641905Y-86284819D01*
X166927619Y-86284819D02*
X166927619Y-85284819D01*
X166927619Y-85284819D02*
X166832381Y-85427676D01*
X166832381Y-85427676D02*
X166737143Y-85522914D01*
X166737143Y-85522914D02*
X166641905Y-85570533D01*
D11*
X149140476Y-85803595D02*
X149140476Y-86451214D01*
X149140476Y-86451214D02*
X149178571Y-86527404D01*
X149178571Y-86527404D02*
X149216666Y-86565500D01*
X149216666Y-86565500D02*
X149292857Y-86603595D01*
X149292857Y-86603595D02*
X149445238Y-86603595D01*
X149445238Y-86603595D02*
X149521428Y-86565500D01*
X149521428Y-86565500D02*
X149559523Y-86527404D01*
X149559523Y-86527404D02*
X149597619Y-86451214D01*
X149597619Y-86451214D02*
X149597619Y-85803595D01*
X150321428Y-86070261D02*
X150321428Y-86603595D01*
X150130952Y-85765500D02*
X149940475Y-86336928D01*
X149940475Y-86336928D02*
X150435714Y-86336928D01*
X140965476Y-84838595D02*
X140965476Y-85486214D01*
X140965476Y-85486214D02*
X141003571Y-85562404D01*
X141003571Y-85562404D02*
X141041666Y-85600500D01*
X141041666Y-85600500D02*
X141117857Y-85638595D01*
X141117857Y-85638595D02*
X141270238Y-85638595D01*
X141270238Y-85638595D02*
X141346428Y-85600500D01*
X141346428Y-85600500D02*
X141384523Y-85562404D01*
X141384523Y-85562404D02*
X141422619Y-85486214D01*
X141422619Y-85486214D02*
X141422619Y-84838595D01*
X141765475Y-84914785D02*
X141803571Y-84876690D01*
X141803571Y-84876690D02*
X141879761Y-84838595D01*
X141879761Y-84838595D02*
X142070237Y-84838595D01*
X142070237Y-84838595D02*
X142146428Y-84876690D01*
X142146428Y-84876690D02*
X142184523Y-84914785D01*
X142184523Y-84914785D02*
X142222618Y-84990976D01*
X142222618Y-84990976D02*
X142222618Y-85067166D01*
X142222618Y-85067166D02*
X142184523Y-85181452D01*
X142184523Y-85181452D02*
X141727380Y-85638595D01*
X141727380Y-85638595D02*
X142222618Y-85638595D01*
D14*
%TO.C,R3*%
X133437221Y-74040000D02*
X133762779Y-74040000D01*
X133437221Y-75060000D02*
X133762779Y-75060000D01*
%TO.C,R15*%
X165810000Y-81837221D02*
X165810000Y-82162779D01*
X164790000Y-81837221D02*
X164790000Y-82162779D01*
%TO.C,C9*%
X161165000Y-76299420D02*
X161165000Y-76580580D01*
X160145000Y-76299420D02*
X160145000Y-76580580D01*
D15*
%TO.C,G\u002A\u002A\u002A*%
G36*
X144688518Y-84721644D02*
G01*
X144673655Y-84747073D01*
X144659291Y-84750872D01*
X144637762Y-84740139D01*
X144637370Y-84728951D01*
X144655743Y-84704575D01*
X144677863Y-84701475D01*
X144688518Y-84721644D01*
G37*
G36*
X145499062Y-87228263D02*
G01*
X145496800Y-87245429D01*
X145486633Y-87259325D01*
X145474569Y-87245355D01*
X145467796Y-87218180D01*
X145471190Y-87210884D01*
X145489438Y-87207853D01*
X145499062Y-87228263D01*
G37*
G36*
X142764876Y-85873050D02*
G01*
X142768750Y-85886698D01*
X142753961Y-85910666D01*
X142741061Y-85913808D01*
X142716481Y-85904889D01*
X142713372Y-85897323D01*
X142728063Y-85877144D01*
X142741061Y-85870214D01*
X142764876Y-85873050D01*
G37*
G36*
X142765534Y-86113177D02*
G01*
X142768750Y-86126090D01*
X142753974Y-86150563D01*
X142741061Y-86153779D01*
X142716589Y-86139003D01*
X142713372Y-86126090D01*
X142728148Y-86101617D01*
X142741061Y-86098401D01*
X142765534Y-86113177D01*
G37*
G36*
X142765626Y-85997612D02*
G01*
X142768750Y-86006104D01*
X142753799Y-86022481D01*
X142741061Y-86024564D01*
X142716496Y-86014596D01*
X142713372Y-86006104D01*
X142728324Y-85989728D01*
X142741061Y-85987645D01*
X142765626Y-85997612D01*
G37*
G36*
X142822046Y-85818003D02*
G01*
X142824128Y-85830741D01*
X142814161Y-85855306D01*
X142805669Y-85858430D01*
X142789292Y-85843479D01*
X142787210Y-85830741D01*
X142797177Y-85806176D01*
X142805669Y-85803052D01*
X142822046Y-85818003D01*
G37*
G36*
X142822046Y-86168730D02*
G01*
X142824128Y-86181468D01*
X142814161Y-86206033D01*
X142805669Y-86209157D01*
X142789292Y-86194205D01*
X142787210Y-86181468D01*
X142797177Y-86156903D01*
X142805669Y-86153779D01*
X142822046Y-86168730D01*
G37*
G36*
X142823592Y-85946314D02*
G01*
X142824128Y-85950726D01*
X142810081Y-85968649D01*
X142805669Y-85969186D01*
X142787746Y-85955139D01*
X142787210Y-85950726D01*
X142801257Y-85932803D01*
X142805669Y-85932267D01*
X142823592Y-85946314D01*
G37*
G36*
X142823592Y-86057070D02*
G01*
X142824128Y-86061482D01*
X142810081Y-86079405D01*
X142805669Y-86079941D01*
X142787746Y-86065894D01*
X142787210Y-86061482D01*
X142801257Y-86043559D01*
X142805669Y-86043023D01*
X142823592Y-86057070D01*
G37*
G36*
X142877424Y-85762625D02*
G01*
X142879506Y-85775363D01*
X142869539Y-85799928D01*
X142861047Y-85803052D01*
X142844670Y-85788101D01*
X142842588Y-85775363D01*
X142852555Y-85750798D01*
X142861047Y-85747674D01*
X142877424Y-85762625D01*
G37*
G36*
X142877424Y-86113352D02*
G01*
X142879506Y-86126090D01*
X142869539Y-86150655D01*
X142861047Y-86153779D01*
X142844670Y-86138827D01*
X142842588Y-86126090D01*
X142852555Y-86101525D01*
X142861047Y-86098401D01*
X142877424Y-86113352D01*
G37*
G36*
X142877424Y-86224108D02*
G01*
X142879506Y-86236846D01*
X142869539Y-86261411D01*
X142861047Y-86264535D01*
X142844670Y-86249583D01*
X142842588Y-86236846D01*
X142852555Y-86212280D01*
X142861047Y-86209157D01*
X142877424Y-86224108D01*
G37*
G36*
X142878970Y-85890936D02*
G01*
X142879506Y-85895348D01*
X142865459Y-85913271D01*
X142861047Y-85913808D01*
X142843124Y-85899761D01*
X142842588Y-85895348D01*
X142856635Y-85877426D01*
X142861047Y-85876889D01*
X142878970Y-85890936D01*
G37*
G36*
X142878970Y-86001692D02*
G01*
X142879506Y-86006104D01*
X142865459Y-86024027D01*
X142861047Y-86024564D01*
X142843124Y-86010517D01*
X142842588Y-86006104D01*
X142856635Y-85988181D01*
X142861047Y-85987645D01*
X142878970Y-86001692D01*
G37*
G36*
X142932801Y-85707247D02*
G01*
X142934884Y-85719985D01*
X142924917Y-85744550D01*
X142916425Y-85747674D01*
X142900048Y-85732723D01*
X142897965Y-85719985D01*
X142907933Y-85695420D01*
X142916425Y-85692296D01*
X142932801Y-85707247D01*
G37*
G36*
X142932801Y-85818003D02*
G01*
X142934884Y-85830741D01*
X142924917Y-85855306D01*
X142916425Y-85858430D01*
X142900048Y-85843479D01*
X142897965Y-85830741D01*
X142907933Y-85806176D01*
X142916425Y-85803052D01*
X142932801Y-85818003D01*
G37*
G36*
X142932801Y-86168730D02*
G01*
X142934884Y-86181468D01*
X142924917Y-86206033D01*
X142916425Y-86209157D01*
X142900048Y-86194205D01*
X142897965Y-86181468D01*
X142907933Y-86156903D01*
X142916425Y-86153779D01*
X142932801Y-86168730D01*
G37*
G36*
X142934348Y-85946314D02*
G01*
X142934884Y-85950726D01*
X142920837Y-85968649D01*
X142916425Y-85969186D01*
X142898502Y-85955139D01*
X142897965Y-85950726D01*
X142912012Y-85932803D01*
X142916425Y-85932267D01*
X142934348Y-85946314D01*
G37*
G36*
X142934348Y-86057070D02*
G01*
X142934884Y-86061482D01*
X142920837Y-86079405D01*
X142916425Y-86079941D01*
X142898502Y-86065894D01*
X142897965Y-86061482D01*
X142912012Y-86043559D01*
X142916425Y-86043023D01*
X142934348Y-86057070D01*
G37*
G36*
X142934348Y-86297041D02*
G01*
X142934884Y-86301453D01*
X142920837Y-86319376D01*
X142916425Y-86319912D01*
X142898502Y-86305865D01*
X142897965Y-86301453D01*
X142912012Y-86283530D01*
X142916425Y-86282994D01*
X142934348Y-86297041D01*
G37*
G36*
X142981032Y-85870214D02*
G01*
X143005459Y-85888333D01*
X143008721Y-85897323D01*
X142993741Y-85911957D01*
X142981032Y-85913808D01*
X142956553Y-85899328D01*
X142953343Y-85886698D01*
X142965574Y-85868075D01*
X142981032Y-85870214D01*
G37*
G36*
X143005597Y-85997612D02*
G01*
X143008721Y-86006104D01*
X142993770Y-86022481D01*
X142981032Y-86024564D01*
X142956467Y-86014596D01*
X142953343Y-86006104D01*
X142968295Y-85989728D01*
X142981032Y-85987645D01*
X143005597Y-85997612D01*
G37*
G36*
X143060975Y-85942235D02*
G01*
X143064099Y-85950726D01*
X143049148Y-85967103D01*
X143036410Y-85969186D01*
X143011845Y-85959218D01*
X143008721Y-85950726D01*
X143023672Y-85934350D01*
X143036410Y-85932267D01*
X143060975Y-85942235D01*
G37*
G36*
X143060975Y-86052990D02*
G01*
X143064099Y-86061482D01*
X143049148Y-86077859D01*
X143036410Y-86079941D01*
X143011845Y-86069974D01*
X143008721Y-86061482D01*
X143023672Y-86045105D01*
X143036410Y-86043023D01*
X143060975Y-86052990D01*
G37*
G36*
X143060975Y-86292961D02*
G01*
X143064099Y-86301453D01*
X143049148Y-86317830D01*
X143036410Y-86319912D01*
X143011845Y-86309945D01*
X143008721Y-86301453D01*
X143023672Y-86285076D01*
X143036410Y-86282994D01*
X143060975Y-86292961D01*
G37*
G36*
X143116353Y-85997612D02*
G01*
X143119477Y-86006104D01*
X143104526Y-86022481D01*
X143091788Y-86024564D01*
X143067223Y-86014596D01*
X143064099Y-86006104D01*
X143079050Y-85989728D01*
X143091788Y-85987645D01*
X143116353Y-85997612D01*
G37*
G36*
X143170272Y-85191233D02*
G01*
X143174855Y-85221584D01*
X143168536Y-85256275D01*
X143156396Y-85267732D01*
X143142519Y-85251935D01*
X143137936Y-85221584D01*
X143144255Y-85186893D01*
X143156396Y-85175436D01*
X143170272Y-85191233D01*
G37*
G36*
X143172772Y-86168730D02*
G01*
X143174855Y-86181468D01*
X143164887Y-86206033D01*
X143156396Y-86209157D01*
X143140019Y-86194205D01*
X143137936Y-86181468D01*
X143147904Y-86156903D01*
X143156396Y-86153779D01*
X143172772Y-86168730D01*
G37*
G36*
X143174319Y-86057070D02*
G01*
X143174855Y-86061482D01*
X143160808Y-86079405D01*
X143156396Y-86079941D01*
X143138473Y-86065894D01*
X143137936Y-86061482D01*
X143151983Y-86043559D01*
X143156396Y-86043023D01*
X143174319Y-86057070D01*
G37*
G36*
X143174319Y-86297041D02*
G01*
X143174855Y-86301453D01*
X143160808Y-86319376D01*
X143156396Y-86319912D01*
X143138473Y-86305865D01*
X143137936Y-86301453D01*
X143151983Y-86283530D01*
X143156396Y-86282994D01*
X143174319Y-86297041D01*
G37*
G36*
X143228150Y-86113352D02*
G01*
X143230233Y-86126090D01*
X143220265Y-86150655D01*
X143211774Y-86153779D01*
X143195397Y-86138827D01*
X143193314Y-86126090D01*
X143203282Y-86101525D01*
X143211774Y-86098401D01*
X143228150Y-86113352D01*
G37*
G36*
X143228150Y-86224108D02*
G01*
X143230233Y-86236846D01*
X143220265Y-86261411D01*
X143211774Y-86264535D01*
X143195397Y-86249583D01*
X143193314Y-86236846D01*
X143203282Y-86212280D01*
X143211774Y-86209157D01*
X143228150Y-86224108D01*
G37*
G36*
X143229696Y-85134105D02*
G01*
X143230233Y-85138517D01*
X143216186Y-85156440D01*
X143211774Y-85156976D01*
X143193851Y-85142929D01*
X143193314Y-85138517D01*
X143207361Y-85120594D01*
X143211774Y-85120058D01*
X143229696Y-85134105D01*
G37*
G36*
X143283528Y-85061172D02*
G01*
X143285611Y-85073910D01*
X143275643Y-85098475D01*
X143267151Y-85101598D01*
X143250775Y-85086647D01*
X143248692Y-85073910D01*
X143258660Y-85049344D01*
X143267151Y-85046221D01*
X143283528Y-85061172D01*
G37*
G36*
X143283528Y-86168730D02*
G01*
X143285611Y-86181468D01*
X143275643Y-86206033D01*
X143267151Y-86209157D01*
X143250775Y-86194205D01*
X143248692Y-86181468D01*
X143258660Y-86156903D01*
X143267151Y-86153779D01*
X143283528Y-86168730D01*
G37*
G36*
X143346440Y-85188854D02*
G01*
X143350218Y-85193895D01*
X143346034Y-85209698D01*
X143332848Y-85212354D01*
X143307592Y-85202717D01*
X143304070Y-85193895D01*
X143317319Y-85175964D01*
X143321440Y-85175436D01*
X143346440Y-85188854D01*
G37*
G36*
X143411702Y-85130025D02*
G01*
X143414826Y-85138517D01*
X143399875Y-85154894D01*
X143387137Y-85156976D01*
X143362572Y-85147009D01*
X143359448Y-85138517D01*
X143374399Y-85122140D01*
X143387137Y-85120058D01*
X143411702Y-85130025D01*
G37*
G36*
X143514169Y-85054476D02*
G01*
X143525582Y-85073910D01*
X143509071Y-85095892D01*
X143470204Y-85101598D01*
X143426239Y-85093343D01*
X143414826Y-85073910D01*
X143431336Y-85051927D01*
X143470204Y-85046221D01*
X143514169Y-85054476D01*
G37*
G36*
X144033410Y-85055849D02*
G01*
X144042442Y-85073910D01*
X144026395Y-85096179D01*
X143996294Y-85101598D01*
X143959178Y-85091970D01*
X143950146Y-85073910D01*
X143966192Y-85051640D01*
X143996294Y-85046221D01*
X144033410Y-85055849D01*
G37*
G36*
X144095737Y-84655067D02*
G01*
X144097820Y-84667805D01*
X144087853Y-84692370D01*
X144079361Y-84695494D01*
X144062984Y-84680543D01*
X144060901Y-84667805D01*
X144070869Y-84643240D01*
X144079361Y-84640116D01*
X144095737Y-84655067D01*
G37*
G36*
X144097284Y-84783378D02*
G01*
X144097820Y-84787790D01*
X144083773Y-84805713D01*
X144079361Y-84806250D01*
X144061438Y-84792203D01*
X144060901Y-84787790D01*
X144074949Y-84769867D01*
X144079361Y-84769331D01*
X144097284Y-84783378D01*
G37*
G36*
X144097284Y-85134105D02*
G01*
X144097820Y-85138517D01*
X144083773Y-85156440D01*
X144079361Y-85156976D01*
X144061438Y-85142929D01*
X144060901Y-85138517D01*
X144074949Y-85120594D01*
X144079361Y-85120058D01*
X144097284Y-85134105D01*
G37*
G36*
X144168533Y-84834676D02*
G01*
X144171657Y-84843168D01*
X144156706Y-84859545D01*
X144143968Y-84861628D01*
X144119403Y-84851660D01*
X144116279Y-84843168D01*
X144131231Y-84826792D01*
X144143968Y-84824709D01*
X144168533Y-84834676D01*
G37*
G36*
X144168533Y-85185403D02*
G01*
X144171657Y-85193895D01*
X144156706Y-85210272D01*
X144143968Y-85212354D01*
X144119403Y-85202387D01*
X144116279Y-85193895D01*
X144131231Y-85177518D01*
X144143968Y-85175436D01*
X144168533Y-85185403D01*
G37*
G36*
X144223819Y-86223933D02*
G01*
X144227035Y-86236846D01*
X144212259Y-86261318D01*
X144199346Y-86264535D01*
X144174873Y-86249758D01*
X144171657Y-86236846D01*
X144186433Y-86212373D01*
X144199346Y-86209157D01*
X144223819Y-86223933D01*
G37*
G36*
X144279289Y-85130025D02*
G01*
X144282413Y-85138517D01*
X144267462Y-85154894D01*
X144254724Y-85156976D01*
X144230159Y-85147009D01*
X144227035Y-85138517D01*
X144241986Y-85122140D01*
X144254724Y-85120058D01*
X144279289Y-85130025D01*
G37*
G36*
X144333208Y-85191233D02*
G01*
X144337791Y-85221584D01*
X144331472Y-85256275D01*
X144319332Y-85267732D01*
X144305455Y-85251935D01*
X144300872Y-85221584D01*
X144307191Y-85186893D01*
X144319332Y-85175436D01*
X144333208Y-85191233D01*
G37*
G36*
X144335708Y-84544311D02*
G01*
X144337791Y-84557049D01*
X144327824Y-84581614D01*
X144319332Y-84584738D01*
X144302955Y-84569787D01*
X144300872Y-84557049D01*
X144310840Y-84532484D01*
X144319332Y-84529360D01*
X144335708Y-84544311D01*
G37*
G36*
X144391086Y-84599689D02*
G01*
X144393169Y-84612427D01*
X144383201Y-84636992D01*
X144374710Y-84640116D01*
X144358333Y-84625165D01*
X144356250Y-84612427D01*
X144366218Y-84587862D01*
X144374710Y-84584738D01*
X144391086Y-84599689D01*
G37*
G36*
X144519260Y-84373194D02*
G01*
X144522384Y-84381686D01*
X144507433Y-84398062D01*
X144494695Y-84400145D01*
X144470130Y-84390177D01*
X144467006Y-84381686D01*
X144481957Y-84365309D01*
X144494695Y-84363226D01*
X144519260Y-84373194D01*
G37*
G36*
X144574638Y-84428572D02*
G01*
X144577762Y-84437064D01*
X144562811Y-84453440D01*
X144550073Y-84455523D01*
X144525508Y-84445555D01*
X144522384Y-84437064D01*
X144537335Y-84420687D01*
X144550073Y-84418604D01*
X144574638Y-84428572D01*
G37*
G36*
X144627720Y-84785378D02*
G01*
X144633140Y-84815479D01*
X144623512Y-84852595D01*
X144605451Y-84861628D01*
X144583181Y-84845581D01*
X144577762Y-84815479D01*
X144587390Y-84778363D01*
X144605451Y-84769331D01*
X144627720Y-84785378D01*
G37*
G36*
X144630016Y-84373194D02*
G01*
X144633140Y-84381686D01*
X144618189Y-84398062D01*
X144605451Y-84400145D01*
X144580886Y-84390177D01*
X144577762Y-84381686D01*
X144592713Y-84365309D01*
X144605451Y-84363226D01*
X144630016Y-84373194D01*
G37*
G36*
X144685394Y-85130025D02*
G01*
X144688518Y-85138517D01*
X144673567Y-85154894D01*
X144660829Y-85156976D01*
X144636264Y-85147009D01*
X144633140Y-85138517D01*
X144648091Y-85122140D01*
X144660829Y-85120058D01*
X144685394Y-85130025D01*
G37*
G36*
X144741813Y-84655067D02*
G01*
X144743896Y-84667805D01*
X144733928Y-84692370D01*
X144725436Y-84695494D01*
X144709060Y-84680543D01*
X144706977Y-84667805D01*
X144716945Y-84643240D01*
X144725436Y-84640116D01*
X144741813Y-84655067D01*
G37*
G36*
X144797191Y-84599689D02*
G01*
X144799274Y-84612427D01*
X144789306Y-84636992D01*
X144780814Y-84640116D01*
X144764438Y-84625165D01*
X144762355Y-84612427D01*
X144772322Y-84587862D01*
X144780814Y-84584738D01*
X144797191Y-84599689D01*
G37*
G36*
X144845619Y-85461953D02*
G01*
X144854651Y-85480014D01*
X144838605Y-85502284D01*
X144808503Y-85507703D01*
X144771387Y-85498075D01*
X144762355Y-85480014D01*
X144778402Y-85457745D01*
X144808503Y-85452325D01*
X144845619Y-85461953D01*
G37*
G36*
X144852569Y-84544311D02*
G01*
X144854651Y-84557049D01*
X144844684Y-84581614D01*
X144836192Y-84584738D01*
X144819815Y-84569787D01*
X144817733Y-84557049D01*
X144827700Y-84532484D01*
X144836192Y-84529360D01*
X144852569Y-84544311D01*
G37*
G36*
X144854115Y-84838756D02*
G01*
X144854651Y-84843168D01*
X144840604Y-84861091D01*
X144836192Y-84861628D01*
X144818269Y-84847580D01*
X144817733Y-84843168D01*
X144831780Y-84825245D01*
X144836192Y-84824709D01*
X144854115Y-84838756D01*
G37*
G36*
X144925365Y-84483950D02*
G01*
X144928489Y-84492441D01*
X144913537Y-84508818D01*
X144900800Y-84510901D01*
X144876235Y-84500933D01*
X144873111Y-84492441D01*
X144888062Y-84476065D01*
X144900800Y-84473982D01*
X144925365Y-84483950D01*
G37*
G36*
X144925365Y-84890054D02*
G01*
X144928489Y-84898546D01*
X144913537Y-84914923D01*
X144900800Y-84917005D01*
X144876235Y-84907038D01*
X144873111Y-84898546D01*
X144888062Y-84882169D01*
X144900800Y-84880087D01*
X144925365Y-84890054D01*
G37*
G36*
X144980650Y-84950241D02*
G01*
X144983867Y-84963154D01*
X144969091Y-84987626D01*
X144956178Y-84990843D01*
X144931705Y-84976067D01*
X144928489Y-84963154D01*
X144943265Y-84938681D01*
X144956178Y-84935465D01*
X144980650Y-84950241D01*
G37*
G36*
X144980743Y-84428572D02*
G01*
X144983867Y-84437064D01*
X144968915Y-84453440D01*
X144956178Y-84455523D01*
X144931613Y-84445555D01*
X144928489Y-84437064D01*
X144943440Y-84420687D01*
X144956178Y-84418604D01*
X144980743Y-84428572D01*
G37*
G36*
X145094086Y-84783378D02*
G01*
X145094622Y-84787790D01*
X145080575Y-84805713D01*
X145076163Y-84806250D01*
X145058240Y-84792203D01*
X145057704Y-84787790D01*
X145071751Y-84769867D01*
X145076163Y-84769331D01*
X145094086Y-84783378D01*
G37*
G36*
X145140968Y-85055849D02*
G01*
X145150000Y-85073910D01*
X145133954Y-85096179D01*
X145103852Y-85101598D01*
X145066736Y-85091970D01*
X145057704Y-85073910D01*
X145073751Y-85051640D01*
X145103852Y-85046221D01*
X145140968Y-85055849D01*
G37*
G36*
X145140968Y-85295820D02*
G01*
X145150000Y-85313880D01*
X145133954Y-85336150D01*
X145103852Y-85341569D01*
X145066736Y-85331941D01*
X145057704Y-85313880D01*
X145073751Y-85291611D01*
X145103852Y-85286191D01*
X145140968Y-85295820D01*
G37*
G36*
X145147918Y-84544311D02*
G01*
X145150000Y-84557049D01*
X145140033Y-84581614D01*
X145131541Y-84584738D01*
X145115164Y-84569787D01*
X145113082Y-84557049D01*
X145123049Y-84532484D01*
X145131541Y-84529360D01*
X145147918Y-84544311D01*
G37*
G36*
X145149464Y-84838756D02*
G01*
X145150000Y-84843168D01*
X145135953Y-84861091D01*
X145131541Y-84861628D01*
X145113618Y-84847580D01*
X145113082Y-84843168D01*
X145127129Y-84825245D01*
X145131541Y-84824709D01*
X145149464Y-84838756D01*
G37*
G36*
X145149464Y-87109250D02*
G01*
X145150000Y-87113662D01*
X145135953Y-87131585D01*
X145131541Y-87132122D01*
X145113618Y-87118075D01*
X145113082Y-87113662D01*
X145127129Y-87095740D01*
X145131541Y-87095203D01*
X145149464Y-87109250D01*
G37*
G36*
X145203296Y-84599689D02*
G01*
X145205378Y-84612427D01*
X145195411Y-84636992D01*
X145186919Y-84640116D01*
X145170542Y-84625165D01*
X145168460Y-84612427D01*
X145178427Y-84587862D01*
X145186919Y-84584738D01*
X145203296Y-84599689D01*
G37*
G36*
X145203296Y-85005794D02*
G01*
X145205378Y-85018532D01*
X145195411Y-85043097D01*
X145186919Y-85046221D01*
X145170542Y-85031269D01*
X145168460Y-85018532D01*
X145178427Y-84993967D01*
X145186919Y-84990843D01*
X145203296Y-85005794D01*
G37*
G36*
X145204842Y-85244861D02*
G01*
X145205378Y-85249273D01*
X145191331Y-85267196D01*
X145186919Y-85267732D01*
X145168996Y-85253685D01*
X145168460Y-85249273D01*
X145182507Y-85231350D01*
X145186919Y-85230814D01*
X145204842Y-85244861D01*
G37*
G36*
X145204842Y-87164628D02*
G01*
X145205378Y-87169040D01*
X145191331Y-87186963D01*
X145186919Y-87187500D01*
X145168996Y-87173453D01*
X145168460Y-87169040D01*
X145182507Y-87151117D01*
X145186919Y-87150581D01*
X145204842Y-87164628D01*
G37*
G36*
X145260228Y-87219208D02*
G01*
X145260756Y-87223329D01*
X145247338Y-87248329D01*
X145242297Y-87252107D01*
X145226494Y-87247922D01*
X145223838Y-87234737D01*
X145233475Y-87209481D01*
X145242297Y-87205959D01*
X145260228Y-87219208D01*
G37*
G36*
X145269570Y-84652346D02*
G01*
X145267431Y-84667805D01*
X145249312Y-84692232D01*
X145240322Y-84695494D01*
X145225688Y-84680514D01*
X145223838Y-84667805D01*
X145238317Y-84643325D01*
X145250947Y-84640116D01*
X145269570Y-84652346D01*
G37*
G36*
X145323180Y-84943720D02*
G01*
X145334593Y-84963154D01*
X145318083Y-84985136D01*
X145279215Y-84990843D01*
X145235251Y-84982587D01*
X145223838Y-84963154D01*
X145240348Y-84941171D01*
X145279215Y-84935465D01*
X145323180Y-84943720D01*
G37*
G36*
X145331377Y-84710270D02*
G01*
X145334593Y-84723183D01*
X145319817Y-84747656D01*
X145306904Y-84750872D01*
X145282432Y-84736096D01*
X145279215Y-84723183D01*
X145293991Y-84698710D01*
X145306904Y-84695494D01*
X145331377Y-84710270D01*
G37*
G36*
X145331469Y-87160549D02*
G01*
X145334593Y-87169040D01*
X145319642Y-87185417D01*
X145306904Y-87187500D01*
X145282339Y-87177532D01*
X145279215Y-87169040D01*
X145294167Y-87152664D01*
X145306904Y-87150581D01*
X145331469Y-87160549D01*
G37*
G36*
X145362282Y-85113382D02*
G01*
X145386709Y-85131502D01*
X145389971Y-85140492D01*
X145374991Y-85155126D01*
X145362282Y-85156976D01*
X145337803Y-85142497D01*
X145334593Y-85129867D01*
X145346824Y-85111244D01*
X145362282Y-85113382D01*
G37*
G36*
X145386847Y-84890054D02*
G01*
X145389971Y-84898546D01*
X145375020Y-84914923D01*
X145362282Y-84917005D01*
X145337717Y-84907038D01*
X145334593Y-84898546D01*
X145349545Y-84882169D01*
X145362282Y-84880087D01*
X145386847Y-84890054D01*
G37*
G36*
X145489314Y-85054476D02*
G01*
X145500727Y-85073910D01*
X145484217Y-85095892D01*
X145445349Y-85101598D01*
X145401384Y-85093343D01*
X145389971Y-85073910D01*
X145406482Y-85051927D01*
X145445349Y-85046221D01*
X145489314Y-85054476D01*
G37*
G36*
X145554022Y-85005794D02*
G01*
X145556105Y-85018532D01*
X145546137Y-85043097D01*
X145537646Y-85046221D01*
X145521269Y-85031269D01*
X145519186Y-85018532D01*
X145529154Y-84993967D01*
X145537646Y-84990843D01*
X145554022Y-85005794D01*
G37*
G36*
X145554022Y-87276288D02*
G01*
X145556105Y-87289026D01*
X145546137Y-87313591D01*
X145537646Y-87316715D01*
X145521269Y-87301763D01*
X145519186Y-87289026D01*
X145529154Y-87264461D01*
X145537646Y-87261337D01*
X145554022Y-87276288D01*
G37*
G36*
X143329076Y-85874690D02*
G01*
X143331759Y-85876889D01*
X143354700Y-85899008D01*
X143359448Y-85906838D01*
X143344373Y-85913038D01*
X143331759Y-85913808D01*
X143307820Y-85898861D01*
X143304070Y-85883859D01*
X143308925Y-85864271D01*
X143329076Y-85874690D01*
G37*
G36*
X143280112Y-85246854D02*
G01*
X143285609Y-85285503D01*
X143285611Y-85286191D01*
X143280264Y-85325074D01*
X143267381Y-85341565D01*
X143267151Y-85341569D01*
X143254191Y-85325529D01*
X143248694Y-85286880D01*
X143248692Y-85286191D01*
X143254039Y-85247309D01*
X143266922Y-85230818D01*
X143267151Y-85230814D01*
X143280112Y-85246854D01*
G37*
G36*
X143280112Y-85763715D02*
G01*
X143285609Y-85802363D01*
X143285611Y-85803052D01*
X143280264Y-85841935D01*
X143267381Y-85858426D01*
X143267151Y-85858430D01*
X143254191Y-85842389D01*
X143248694Y-85803741D01*
X143248692Y-85803052D01*
X143254039Y-85764169D01*
X143266922Y-85747678D01*
X143267151Y-85747674D01*
X143280112Y-85763715D01*
G37*
G36*
X144138130Y-84366893D02*
G01*
X144167846Y-84376169D01*
X144171657Y-84381686D01*
X144155159Y-84392694D01*
X144113415Y-84399298D01*
X144088590Y-84400145D01*
X144039051Y-84396479D01*
X144009335Y-84387202D01*
X144005524Y-84381686D01*
X144022022Y-84370677D01*
X144063766Y-84364073D01*
X144088590Y-84363226D01*
X144138130Y-84366893D01*
G37*
G36*
X144321296Y-86288341D02*
G01*
X144337787Y-86301223D01*
X144337791Y-86301453D01*
X144321750Y-86314414D01*
X144283102Y-86319911D01*
X144282413Y-86319912D01*
X144243530Y-86314566D01*
X144227039Y-86301683D01*
X144227035Y-86301453D01*
X144243076Y-86288492D01*
X144281724Y-86282995D01*
X144282413Y-86282994D01*
X144321296Y-86288341D01*
G37*
G36*
X144616645Y-85586887D02*
G01*
X144633136Y-85599770D01*
X144633140Y-85600000D01*
X144617099Y-85612960D01*
X144578451Y-85618458D01*
X144577762Y-85618459D01*
X144538879Y-85613112D01*
X144522388Y-85600229D01*
X144522384Y-85600000D01*
X144538425Y-85587039D01*
X144577073Y-85581542D01*
X144577762Y-85581540D01*
X144616645Y-85586887D01*
G37*
G36*
X144727400Y-85531509D02*
G01*
X144743891Y-85544392D01*
X144743896Y-85544622D01*
X144727855Y-85557583D01*
X144689207Y-85563080D01*
X144688518Y-85563081D01*
X144649635Y-85557734D01*
X144633144Y-85544851D01*
X144633140Y-85544622D01*
X144649180Y-85531661D01*
X144687829Y-85526164D01*
X144688518Y-85526162D01*
X144727400Y-85531509D01*
G37*
G36*
X144876728Y-85178238D02*
G01*
X144916724Y-85185559D01*
X144928489Y-85193895D01*
X144911675Y-85203727D01*
X144867751Y-85210394D01*
X144817733Y-85212354D01*
X144758738Y-85209552D01*
X144718742Y-85202231D01*
X144706977Y-85193895D01*
X144723791Y-85184062D01*
X144767715Y-85177396D01*
X144817733Y-85175436D01*
X144876728Y-85178238D01*
G37*
G36*
X145022749Y-85125405D02*
G01*
X145039240Y-85138287D01*
X145039245Y-85138517D01*
X145023204Y-85151478D01*
X144984556Y-85156975D01*
X144983867Y-85156976D01*
X144944984Y-85151630D01*
X144928493Y-85138747D01*
X144928489Y-85138517D01*
X144944529Y-85125556D01*
X144983178Y-85120059D01*
X144983867Y-85120058D01*
X145022749Y-85125405D01*
G37*
G36*
X145318098Y-85180783D02*
G01*
X145334589Y-85193665D01*
X145334593Y-85193895D01*
X145318553Y-85206856D01*
X145279904Y-85212353D01*
X145279215Y-85212354D01*
X145240333Y-85207007D01*
X145223842Y-85194125D01*
X145223838Y-85193895D01*
X145239878Y-85180934D01*
X145278526Y-85175437D01*
X145279215Y-85175436D01*
X145318098Y-85180783D01*
G37*
G36*
X143220103Y-85359220D02*
G01*
X143226198Y-85409028D01*
X143229630Y-85486276D01*
X143230233Y-85544622D01*
X143228628Y-85636240D01*
X143224100Y-85703286D01*
X143217078Y-85741041D01*
X143211774Y-85747674D01*
X143203445Y-85730023D01*
X143197350Y-85680215D01*
X143193917Y-85602967D01*
X143193314Y-85544622D01*
X143194919Y-85453003D01*
X143199447Y-85385957D01*
X143206469Y-85348202D01*
X143211774Y-85341569D01*
X143220103Y-85359220D01*
G37*
G36*
X144980650Y-84654892D02*
G01*
X144983867Y-84667805D01*
X144998643Y-84692278D01*
X145011556Y-84695494D01*
X145036028Y-84710270D01*
X145039245Y-84723183D01*
X145024468Y-84747656D01*
X145011556Y-84750872D01*
X144987083Y-84736096D01*
X144983867Y-84723183D01*
X144969091Y-84698710D01*
X144956178Y-84695494D01*
X144931705Y-84680718D01*
X144928489Y-84667805D01*
X144943265Y-84643332D01*
X144956178Y-84640116D01*
X144980650Y-84654892D01*
G37*
G36*
X145036028Y-85356345D02*
G01*
X145039245Y-85369258D01*
X145024468Y-85393731D01*
X145011556Y-85396947D01*
X144987083Y-85411723D01*
X144983867Y-85424636D01*
X144967356Y-85446619D01*
X144928489Y-85452325D01*
X144884524Y-85444070D01*
X144873111Y-85424636D01*
X144889621Y-85402654D01*
X144928489Y-85396947D01*
X144972454Y-85388692D01*
X144983867Y-85369258D01*
X144998643Y-85344786D01*
X145011556Y-85341569D01*
X145036028Y-85356345D01*
G37*
G36*
X145386755Y-87220735D02*
G01*
X145389971Y-87233648D01*
X145404747Y-87258121D01*
X145417660Y-87261337D01*
X145442133Y-87276113D01*
X145445349Y-87289026D01*
X145434707Y-87313287D01*
X145411696Y-87313506D01*
X145389689Y-87292105D01*
X145384137Y-87277939D01*
X145368831Y-87252267D01*
X145354295Y-87251339D01*
X145337462Y-87247872D01*
X145334593Y-87234737D01*
X145348892Y-87209572D01*
X145362282Y-87205959D01*
X145386755Y-87220735D01*
G37*
G36*
X146078117Y-86285284D02*
G01*
X146126739Y-86291484D01*
X146146673Y-86300587D01*
X146146803Y-86301453D01*
X146129624Y-86310754D01*
X146083123Y-86317237D01*
X146014850Y-86319895D01*
X146008358Y-86319912D01*
X145938599Y-86317622D01*
X145889977Y-86311422D01*
X145870043Y-86302319D01*
X145869913Y-86301453D01*
X145887092Y-86292152D01*
X145933593Y-86285669D01*
X146001866Y-86283011D01*
X146008358Y-86282994D01*
X146078117Y-86285284D01*
G37*
G36*
X143458359Y-84943715D02*
G01*
X143471286Y-84962383D01*
X143454322Y-84982344D01*
X143410211Y-84994288D01*
X143368297Y-85004692D01*
X143354761Y-85022752D01*
X143354833Y-85023146D01*
X143344467Y-85043376D01*
X143331759Y-85046221D01*
X143307286Y-85031444D01*
X143304070Y-85018532D01*
X143318846Y-84994059D01*
X143331759Y-84990843D01*
X143356232Y-84976067D01*
X143359448Y-84963154D01*
X143375958Y-84941171D01*
X143414826Y-84935465D01*
X143458359Y-84943715D01*
G37*
G36*
X144304263Y-84422271D02*
G01*
X144333979Y-84431547D01*
X144337791Y-84437064D01*
X144322840Y-84453440D01*
X144310102Y-84455523D01*
X144285629Y-84470299D01*
X144282413Y-84483212D01*
X144267637Y-84507685D01*
X144254724Y-84510901D01*
X144230251Y-84496125D01*
X144227035Y-84483212D01*
X144212259Y-84458739D01*
X144199346Y-84455523D01*
X144174781Y-84445555D01*
X144171657Y-84437064D01*
X144188156Y-84426055D01*
X144229900Y-84419451D01*
X144254724Y-84418604D01*
X144304263Y-84422271D01*
G37*
G36*
X144383417Y-85303683D02*
G01*
X144389671Y-85352376D01*
X144392875Y-85426603D01*
X144393169Y-85461555D01*
X144393169Y-85636918D01*
X144457776Y-85636918D01*
X144500480Y-85641555D01*
X144521826Y-85652955D01*
X144522384Y-85655378D01*
X144505885Y-85666386D01*
X144464142Y-85672990D01*
X144439317Y-85673837D01*
X144356250Y-85673837D01*
X144356250Y-85480014D01*
X144357927Y-85391295D01*
X144362639Y-85326754D01*
X144369909Y-85291392D01*
X144374710Y-85286191D01*
X144383417Y-85303683D01*
G37*
G36*
X143826374Y-84991692D02*
G01*
X143883952Y-84994806D01*
X143916558Y-85001037D01*
X143930152Y-85011236D01*
X143931686Y-85018532D01*
X143925744Y-85031176D01*
X143903945Y-85039401D01*
X143860328Y-85044059D01*
X143788934Y-85046001D01*
X143737864Y-85046221D01*
X143649354Y-85045372D01*
X143591775Y-85042257D01*
X143559169Y-85036026D01*
X143545575Y-85025827D01*
X143544041Y-85018532D01*
X143549983Y-85005887D01*
X143571783Y-84997662D01*
X143615400Y-84993004D01*
X143686793Y-84991062D01*
X143737864Y-84990843D01*
X143826374Y-84991692D01*
G37*
G36*
X144568323Y-84890958D02*
G01*
X144576636Y-84927922D01*
X144577762Y-84963154D01*
X144581386Y-85017904D01*
X144593707Y-85042843D01*
X144605451Y-85046221D01*
X144629924Y-85060997D01*
X144633140Y-85073910D01*
X144618364Y-85098382D01*
X144605451Y-85101598D01*
X144580978Y-85086822D01*
X144577762Y-85073910D01*
X144562986Y-85049437D01*
X144550073Y-85046221D01*
X144531823Y-85035350D01*
X144523510Y-84998386D01*
X144522384Y-84963154D01*
X144526008Y-84908403D01*
X144538329Y-84883464D01*
X144550073Y-84880087D01*
X144568323Y-84890958D01*
G37*
G36*
X146652250Y-86106656D02*
G01*
X146663663Y-86126090D01*
X146647153Y-86148072D01*
X146608285Y-86153779D01*
X146564320Y-86162034D01*
X146552907Y-86181468D01*
X146542036Y-86199718D01*
X146505072Y-86208031D01*
X146469840Y-86209157D01*
X146415090Y-86205533D01*
X146390151Y-86193212D01*
X146386774Y-86181468D01*
X146397645Y-86163217D01*
X146434608Y-86154905D01*
X146469840Y-86153779D01*
X146524591Y-86150155D01*
X146549530Y-86137834D01*
X146552907Y-86126090D01*
X146569418Y-86104107D01*
X146608285Y-86098401D01*
X146652250Y-86106656D01*
G37*
G36*
X144446464Y-84433556D02*
G01*
X144448547Y-84446293D01*
X144463936Y-84468843D01*
X144485465Y-84473982D01*
X144515461Y-84481712D01*
X144522384Y-84492441D01*
X144507318Y-84508540D01*
X144492967Y-84510901D01*
X144464993Y-84526398D01*
X144453895Y-84547819D01*
X144439285Y-84577744D01*
X144427935Y-84584738D01*
X144414680Y-84569259D01*
X144411628Y-84547819D01*
X144400086Y-84517753D01*
X144383939Y-84510901D01*
X144359374Y-84500933D01*
X144356250Y-84492441D01*
X144371202Y-84476065D01*
X144383939Y-84473982D01*
X144408412Y-84459206D01*
X144411628Y-84446293D01*
X144421596Y-84421728D01*
X144430088Y-84418604D01*
X144446464Y-84433556D01*
G37*
G36*
X146080012Y-86106656D02*
G01*
X146091425Y-86126090D01*
X146107935Y-86148072D01*
X146146803Y-86153779D01*
X146190767Y-86162034D01*
X146202181Y-86181468D01*
X146213052Y-86199718D01*
X146250015Y-86208031D01*
X146285247Y-86209157D01*
X146339998Y-86212780D01*
X146364937Y-86225102D01*
X146368314Y-86236846D01*
X146359808Y-86252923D01*
X146329656Y-86261555D01*
X146270903Y-86264480D01*
X146257558Y-86264535D01*
X146193248Y-86262408D01*
X146158719Y-86254870D01*
X146147021Y-86240182D01*
X146146803Y-86236846D01*
X146132027Y-86212373D01*
X146119114Y-86209157D01*
X146094641Y-86194381D01*
X146091425Y-86181468D01*
X146074914Y-86159485D01*
X146036047Y-86153779D01*
X145992082Y-86145523D01*
X145980669Y-86126090D01*
X145997179Y-86104107D01*
X146036047Y-86098401D01*
X146080012Y-86106656D01*
G37*
G36*
X146930696Y-84477606D02*
G01*
X146955634Y-84489927D01*
X146959012Y-84501671D01*
X146973788Y-84526144D01*
X146986701Y-84529360D01*
X147011174Y-84544136D01*
X147014390Y-84557049D01*
X147029166Y-84581522D01*
X147042079Y-84584738D01*
X147060329Y-84595609D01*
X147068642Y-84632573D01*
X147069768Y-84667805D01*
X147068068Y-84718922D01*
X147058786Y-84743136D01*
X147035643Y-84750439D01*
X147017587Y-84750872D01*
X146981568Y-84746977D01*
X146970679Y-84727587D01*
X146973534Y-84695494D01*
X146975170Y-84656242D01*
X146959931Y-84641575D01*
X146942648Y-84640116D01*
X146910947Y-84629056D01*
X146903634Y-84612427D01*
X146887124Y-84590445D01*
X146848256Y-84584738D01*
X146809032Y-84580164D01*
X146794575Y-84558588D01*
X146792878Y-84529360D01*
X146795286Y-84495307D01*
X146809189Y-84479179D01*
X146844607Y-84474295D01*
X146875945Y-84473982D01*
X146930696Y-84477606D01*
G37*
G36*
X143116261Y-86113177D02*
G01*
X143119477Y-86126090D01*
X143104701Y-86150563D01*
X143091788Y-86153779D01*
X143067315Y-86168555D01*
X143064099Y-86181468D01*
X143078875Y-86205940D01*
X143091788Y-86209157D01*
X143116261Y-86223933D01*
X143119477Y-86236846D01*
X143104701Y-86261318D01*
X143091788Y-86264535D01*
X143067315Y-86249758D01*
X143064099Y-86236846D01*
X143049323Y-86212373D01*
X143036410Y-86209157D01*
X143011937Y-86223933D01*
X143008721Y-86236846D01*
X142993945Y-86261318D01*
X142981032Y-86264535D01*
X142956560Y-86249758D01*
X142953343Y-86236846D01*
X142968119Y-86212373D01*
X142981032Y-86209157D01*
X143005505Y-86194381D01*
X143008721Y-86181468D01*
X142993945Y-86156995D01*
X142981032Y-86153779D01*
X142956560Y-86139003D01*
X142953343Y-86126090D01*
X142968119Y-86101617D01*
X142981032Y-86098401D01*
X143005505Y-86113177D01*
X143008721Y-86126090D01*
X143023497Y-86150563D01*
X143036410Y-86153779D01*
X143060883Y-86139003D01*
X143064099Y-86126090D01*
X143078875Y-86101617D01*
X143091788Y-86098401D01*
X143116261Y-86113177D01*
G37*
G36*
X144040360Y-84839660D02*
G01*
X144042442Y-84852398D01*
X144057218Y-84876871D01*
X144070131Y-84880087D01*
X144094604Y-84894863D01*
X144097820Y-84907776D01*
X144113210Y-84930326D01*
X144134739Y-84935465D01*
X144164805Y-84923923D01*
X144171657Y-84907776D01*
X144186433Y-84883303D01*
X144199346Y-84880087D01*
X144221329Y-84896597D01*
X144227035Y-84935465D01*
X144218780Y-84979430D01*
X144199346Y-84990843D01*
X144174873Y-85005619D01*
X144171657Y-85018532D01*
X144186433Y-85043004D01*
X144199346Y-85046221D01*
X144223819Y-85060997D01*
X144227035Y-85073910D01*
X144212259Y-85098382D01*
X144199346Y-85101598D01*
X144174873Y-85086822D01*
X144171657Y-85073910D01*
X144156881Y-85049437D01*
X144143968Y-85046221D01*
X144119496Y-85031444D01*
X144116279Y-85018532D01*
X144099769Y-84996549D01*
X144060901Y-84990843D01*
X144020367Y-84985041D01*
X144006095Y-84963454D01*
X144005524Y-84953924D01*
X144003660Y-84939530D01*
X143994350Y-84929458D01*
X143972017Y-84922941D01*
X143931086Y-84919208D01*
X143865980Y-84917490D01*
X143771122Y-84917019D01*
X143737864Y-84917005D01*
X143627510Y-84915772D01*
X143543928Y-84912222D01*
X143490418Y-84906583D01*
X143470279Y-84899084D01*
X143470204Y-84898546D01*
X143488095Y-84890936D01*
X143539570Y-84885171D01*
X143621327Y-84881481D01*
X143730066Y-84880092D01*
X143737864Y-84880087D01*
X143844179Y-84879560D01*
X143918794Y-84877619D01*
X143966919Y-84873727D01*
X143993762Y-84867343D01*
X144004532Y-84857929D01*
X144005524Y-84852398D01*
X144015491Y-84827833D01*
X144023983Y-84824709D01*
X144040360Y-84839660D01*
G37*
G36*
X146930696Y-84182257D02*
G01*
X146955634Y-84194578D01*
X146959012Y-84206322D01*
X146975522Y-84228305D01*
X147014390Y-84234011D01*
X147058355Y-84242266D01*
X147069768Y-84261700D01*
X147084544Y-84286173D01*
X147097457Y-84289389D01*
X147122005Y-84300419D01*
X147125146Y-84309861D01*
X147138365Y-84339581D01*
X147169413Y-84376335D01*
X147205370Y-84406927D01*
X147231287Y-84418285D01*
X147251737Y-84433472D01*
X147254361Y-84446293D01*
X147269137Y-84470766D01*
X147282050Y-84473982D01*
X147304032Y-84490493D01*
X147309739Y-84529360D01*
X147317994Y-84573325D01*
X147337428Y-84584738D01*
X147355678Y-84595609D01*
X147363991Y-84632573D01*
X147365117Y-84667805D01*
X147363511Y-84718884D01*
X147354242Y-84743077D01*
X147330631Y-84750402D01*
X147309739Y-84750872D01*
X147270515Y-84746298D01*
X147256057Y-84724722D01*
X147254361Y-84695494D01*
X147246106Y-84651529D01*
X147226672Y-84640116D01*
X147206193Y-84626106D01*
X147199033Y-84581393D01*
X147198983Y-84575508D01*
X147192979Y-84527724D01*
X147173816Y-84511018D01*
X147171294Y-84510901D01*
X147146821Y-84496125D01*
X147143605Y-84483212D01*
X147128829Y-84458739D01*
X147115916Y-84455523D01*
X147091443Y-84440747D01*
X147088227Y-84427834D01*
X147073451Y-84403361D01*
X147060538Y-84400145D01*
X147036065Y-84385369D01*
X147032849Y-84372456D01*
X147018839Y-84351977D01*
X146974126Y-84344817D01*
X146968242Y-84344767D01*
X146920457Y-84338763D01*
X146903751Y-84319600D01*
X146903634Y-84317078D01*
X146887124Y-84295096D01*
X146848256Y-84289389D01*
X146809032Y-84284815D01*
X146794575Y-84263239D01*
X146792878Y-84234011D01*
X146795286Y-84199959D01*
X146809189Y-84183830D01*
X146844607Y-84178946D01*
X146875945Y-84178633D01*
X146930696Y-84182257D01*
G37*
G36*
X144223819Y-84544136D02*
G01*
X144227035Y-84557049D01*
X144241811Y-84581522D01*
X144254724Y-84584738D01*
X144279197Y-84599514D01*
X144282413Y-84612427D01*
X144267637Y-84636900D01*
X144254724Y-84640116D01*
X144230251Y-84654892D01*
X144227035Y-84667805D01*
X144242425Y-84690355D01*
X144263954Y-84695494D01*
X144294020Y-84683952D01*
X144300872Y-84667805D01*
X144310840Y-84643240D01*
X144319332Y-84640116D01*
X144332293Y-84656156D01*
X144337790Y-84694805D01*
X144337791Y-84695494D01*
X144329536Y-84739459D01*
X144310102Y-84750872D01*
X144288120Y-84767382D01*
X144282413Y-84806250D01*
X144274158Y-84850214D01*
X144254724Y-84861628D01*
X144230251Y-84846851D01*
X144227035Y-84833939D01*
X144212259Y-84809466D01*
X144199346Y-84806250D01*
X144174781Y-84796282D01*
X144171657Y-84787790D01*
X144186609Y-84771414D01*
X144199346Y-84769331D01*
X144221896Y-84753942D01*
X144227035Y-84732412D01*
X144215493Y-84702346D01*
X144199346Y-84695494D01*
X144174873Y-84710270D01*
X144171657Y-84723183D01*
X144156881Y-84747656D01*
X144143968Y-84750872D01*
X144119496Y-84736096D01*
X144116279Y-84723183D01*
X144131055Y-84698710D01*
X144143968Y-84695494D01*
X144168441Y-84680718D01*
X144171657Y-84667805D01*
X144156881Y-84643332D01*
X144143968Y-84640116D01*
X144119496Y-84625340D01*
X144116279Y-84612427D01*
X144171657Y-84612427D01*
X144186433Y-84636900D01*
X144199346Y-84640116D01*
X144223819Y-84625340D01*
X144227035Y-84612427D01*
X144212259Y-84587954D01*
X144199346Y-84584738D01*
X144174873Y-84599514D01*
X144171657Y-84612427D01*
X144116279Y-84612427D01*
X144131055Y-84587954D01*
X144143968Y-84584738D01*
X144168441Y-84569962D01*
X144171657Y-84557049D01*
X144186433Y-84532576D01*
X144199346Y-84529360D01*
X144223819Y-84544136D01*
G37*
G36*
X146965493Y-83884632D02*
G01*
X146998919Y-83890549D01*
X147012354Y-83903851D01*
X147014390Y-83920203D01*
X147023092Y-83947226D01*
X147055473Y-83956741D01*
X147069768Y-83957122D01*
X147113733Y-83965377D01*
X147125146Y-83984811D01*
X147139156Y-84005290D01*
X147183869Y-84012450D01*
X147189753Y-84012500D01*
X147237538Y-84018504D01*
X147254244Y-84037667D01*
X147254361Y-84040189D01*
X147269137Y-84064661D01*
X147282050Y-84067878D01*
X147306523Y-84082654D01*
X147309739Y-84095566D01*
X147324515Y-84120039D01*
X147337428Y-84123255D01*
X147361900Y-84138031D01*
X147365117Y-84150944D01*
X147379893Y-84175417D01*
X147392806Y-84178633D01*
X147417278Y-84193409D01*
X147420495Y-84206322D01*
X147435271Y-84230795D01*
X147448183Y-84234011D01*
X147472656Y-84248787D01*
X147475872Y-84261700D01*
X147490648Y-84286173D01*
X147503561Y-84289389D01*
X147524041Y-84303399D01*
X147531200Y-84348113D01*
X147531250Y-84353997D01*
X147535380Y-84398526D01*
X147551502Y-84416492D01*
X147568169Y-84418604D01*
X147595192Y-84427307D01*
X147604707Y-84459687D01*
X147605088Y-84473982D01*
X147613343Y-84517947D01*
X147632776Y-84529360D01*
X147648854Y-84537866D01*
X147657486Y-84568019D01*
X147660411Y-84626771D01*
X147660465Y-84640116D01*
X147660465Y-84750872D01*
X147605088Y-84750872D01*
X147571035Y-84748464D01*
X147554906Y-84734560D01*
X147550023Y-84699143D01*
X147549710Y-84667805D01*
X147546086Y-84613054D01*
X147533765Y-84588116D01*
X147522021Y-84584738D01*
X147501541Y-84570728D01*
X147494382Y-84526015D01*
X147494332Y-84520130D01*
X147488327Y-84472346D01*
X147469165Y-84455640D01*
X147466643Y-84455523D01*
X147444660Y-84439012D01*
X147438954Y-84400145D01*
X147430699Y-84356180D01*
X147411265Y-84344767D01*
X147386792Y-84329991D01*
X147383576Y-84317078D01*
X147368186Y-84294528D01*
X147346657Y-84289389D01*
X147316591Y-84277847D01*
X147309739Y-84261700D01*
X147294963Y-84237227D01*
X147282050Y-84234011D01*
X147259500Y-84218622D01*
X147254361Y-84197093D01*
X147242819Y-84167026D01*
X147226672Y-84160174D01*
X147202199Y-84145398D01*
X147198983Y-84132485D01*
X147182472Y-84110503D01*
X147143605Y-84104796D01*
X147099640Y-84096541D01*
X147088227Y-84077107D01*
X147074217Y-84056628D01*
X147029504Y-84049468D01*
X147023619Y-84049418D01*
X146977094Y-84043592D01*
X146963550Y-84026755D01*
X146963627Y-84026344D01*
X146949598Y-84009417D01*
X146899816Y-83999207D01*
X146880560Y-83997644D01*
X146827634Y-83992636D01*
X146801876Y-83982124D01*
X146793553Y-83959450D01*
X146792878Y-83937651D01*
X146794405Y-83907557D01*
X146804788Y-83891314D01*
X146832728Y-83884650D01*
X146886926Y-83883295D01*
X146903634Y-83883285D01*
X146965493Y-83884632D01*
G37*
G36*
X143102955Y-85291365D02*
G01*
X143110735Y-85310410D01*
X143115693Y-85348617D01*
X143118398Y-85411275D01*
X143119415Y-85503674D01*
X143119477Y-85544622D01*
X143118923Y-85648849D01*
X143116882Y-85721458D01*
X143112789Y-85767739D01*
X143106075Y-85792980D01*
X143096175Y-85802472D01*
X143091788Y-85803052D01*
X143067315Y-85817828D01*
X143064099Y-85830741D01*
X143079489Y-85853291D01*
X143101018Y-85858430D01*
X143131084Y-85846888D01*
X143137936Y-85830741D01*
X143147904Y-85806176D01*
X143156396Y-85803052D01*
X143168597Y-85819279D01*
X143174696Y-85859181D01*
X143174855Y-85867660D01*
X143180859Y-85915444D01*
X143200022Y-85932150D01*
X143202544Y-85932267D01*
X143227017Y-85947043D01*
X143230233Y-85959956D01*
X143245009Y-85984429D01*
X143257922Y-85987645D01*
X143282395Y-86002421D01*
X143285611Y-86015334D01*
X143301000Y-86037884D01*
X143322529Y-86043023D01*
X143349553Y-86034320D01*
X143359067Y-86001940D01*
X143359448Y-85987645D01*
X143364022Y-85948421D01*
X143385598Y-85933964D01*
X143414826Y-85932267D01*
X143454403Y-85937234D01*
X143468881Y-85958347D01*
X143470204Y-85978415D01*
X143460576Y-86015531D01*
X143442515Y-86024564D01*
X143425102Y-86034444D01*
X143416598Y-86068654D01*
X143414826Y-86116860D01*
X143411862Y-86174902D01*
X143401599Y-86203250D01*
X143387137Y-86209157D01*
X143362664Y-86194381D01*
X143359448Y-86181468D01*
X143344672Y-86156995D01*
X143331759Y-86153779D01*
X143309209Y-86138389D01*
X143304070Y-86116860D01*
X143292528Y-86086794D01*
X143276381Y-86079941D01*
X143251908Y-86065165D01*
X143248692Y-86052253D01*
X143233916Y-86027780D01*
X143221003Y-86024564D01*
X143196530Y-86009788D01*
X143193314Y-85996875D01*
X143178538Y-85972402D01*
X143165625Y-85969186D01*
X143141153Y-85954410D01*
X143137936Y-85941497D01*
X143122547Y-85918947D01*
X143101018Y-85913808D01*
X143070951Y-85902266D01*
X143064099Y-85886119D01*
X143049323Y-85861646D01*
X143036410Y-85858430D01*
X143011937Y-85843654D01*
X143008721Y-85830741D01*
X142993945Y-85806268D01*
X142981032Y-85803052D01*
X142956560Y-85788276D01*
X142953343Y-85775363D01*
X143008721Y-85775363D01*
X143023497Y-85799836D01*
X143036410Y-85803052D01*
X143060883Y-85788276D01*
X143064099Y-85775363D01*
X143049323Y-85750890D01*
X143036410Y-85747674D01*
X143011937Y-85762450D01*
X143008721Y-85775363D01*
X142953343Y-85775363D01*
X142968119Y-85750890D01*
X142981032Y-85747674D01*
X143005505Y-85732898D01*
X143008721Y-85719985D01*
X143023497Y-85695512D01*
X143036410Y-85692296D01*
X143048804Y-85686496D01*
X143056965Y-85665195D01*
X143061690Y-85622542D01*
X143063778Y-85552685D01*
X143064099Y-85489244D01*
X143064890Y-85398355D01*
X143067795Y-85338510D01*
X143073611Y-85303857D01*
X143083137Y-85288545D01*
X143091788Y-85286191D01*
X143102955Y-85291365D01*
G37*
G36*
X143810890Y-85176886D02*
G01*
X143853755Y-85182128D01*
X143873136Y-85192495D01*
X143876308Y-85203125D01*
X143892819Y-85225107D01*
X143931686Y-85230814D01*
X143975651Y-85239069D01*
X143987064Y-85258503D01*
X144001840Y-85282975D01*
X144014753Y-85286191D01*
X144036736Y-85302702D01*
X144042442Y-85341569D01*
X144050697Y-85385534D01*
X144070131Y-85396947D01*
X144084338Y-85403903D01*
X144092864Y-85429140D01*
X144096939Y-85479213D01*
X144097820Y-85544622D01*
X144098591Y-85618199D01*
X144102141Y-85662296D01*
X144110327Y-85684339D01*
X144125005Y-85691753D01*
X144134739Y-85692296D01*
X144164805Y-85703838D01*
X144171657Y-85719985D01*
X144186433Y-85744458D01*
X144199346Y-85747674D01*
X144211740Y-85741874D01*
X144219901Y-85720573D01*
X144224626Y-85677920D01*
X144226714Y-85608063D01*
X144227035Y-85544622D01*
X144226244Y-85453733D01*
X144223340Y-85393888D01*
X144217523Y-85359235D01*
X144207997Y-85343923D01*
X144199346Y-85341569D01*
X144177364Y-85325059D01*
X144171657Y-85286191D01*
X144179913Y-85242227D01*
X144199346Y-85230814D01*
X144221329Y-85247324D01*
X144227035Y-85286191D01*
X144235290Y-85330156D01*
X144254724Y-85341569D01*
X144266453Y-85347016D01*
X144274421Y-85367057D01*
X144279292Y-85407246D01*
X144281734Y-85473134D01*
X144282413Y-85570274D01*
X144282413Y-85572311D01*
X144282413Y-85803052D01*
X144227035Y-85803052D01*
X144183070Y-85794797D01*
X144171657Y-85775363D01*
X144165381Y-85762164D01*
X144142427Y-85753811D01*
X144096605Y-85749327D01*
X144021728Y-85747735D01*
X143996294Y-85747674D01*
X143912700Y-85748665D01*
X143859798Y-85752289D01*
X143831400Y-85759524D01*
X143821316Y-85771347D01*
X143820931Y-85775363D01*
X143811050Y-85792776D01*
X143776840Y-85801280D01*
X143728634Y-85803052D01*
X143670592Y-85806016D01*
X143642244Y-85816279D01*
X143636338Y-85830741D01*
X143619827Y-85852723D01*
X143580960Y-85858430D01*
X143536995Y-85866685D01*
X143525582Y-85886119D01*
X143510806Y-85910592D01*
X143497893Y-85913808D01*
X143475910Y-85897297D01*
X143470204Y-85858430D01*
X143461949Y-85814465D01*
X143442515Y-85803052D01*
X143422036Y-85789042D01*
X143414876Y-85744329D01*
X143414826Y-85738444D01*
X143408822Y-85690660D01*
X143389659Y-85673954D01*
X143387137Y-85673837D01*
X143372532Y-85666585D01*
X143363959Y-85640377D01*
X143360082Y-85588538D01*
X143359448Y-85535392D01*
X143360898Y-85462366D01*
X143360997Y-85461555D01*
X143580960Y-85461555D01*
X143583817Y-85504857D01*
X143599939Y-85522615D01*
X143640650Y-85526154D01*
X143645567Y-85526162D01*
X143688869Y-85523305D01*
X143706628Y-85507183D01*
X143710167Y-85466472D01*
X143710175Y-85461555D01*
X143707317Y-85418253D01*
X143691195Y-85400494D01*
X143650485Y-85396955D01*
X143645567Y-85396947D01*
X143602265Y-85399805D01*
X143584507Y-85415927D01*
X143580968Y-85456637D01*
X143580960Y-85461555D01*
X143360997Y-85461555D01*
X143366140Y-85419501D01*
X143376508Y-85400119D01*
X143387137Y-85396947D01*
X143409119Y-85380437D01*
X143414826Y-85341569D01*
X143423081Y-85297605D01*
X143442515Y-85286191D01*
X143466988Y-85271415D01*
X143470204Y-85258503D01*
X143484214Y-85238023D01*
X143528927Y-85230864D01*
X143534811Y-85230814D01*
X143582596Y-85224809D01*
X143599302Y-85205646D01*
X143599419Y-85203125D01*
X143606671Y-85188519D01*
X143632879Y-85179946D01*
X143684718Y-85176070D01*
X143737864Y-85175436D01*
X143810890Y-85176886D01*
G37*
G36*
X144283270Y-84123528D02*
G01*
X144389831Y-84124522D01*
X144467829Y-84126506D01*
X144521439Y-84129745D01*
X144554836Y-84134506D01*
X144572198Y-84141056D01*
X144577700Y-84149661D01*
X144577762Y-84150944D01*
X144585014Y-84165550D01*
X144611222Y-84174123D01*
X144663061Y-84177999D01*
X144716207Y-84178633D01*
X144789233Y-84180084D01*
X144832098Y-84185325D01*
X144851479Y-84195693D01*
X144854651Y-84206322D01*
X144864532Y-84223735D01*
X144898742Y-84232239D01*
X144946948Y-84234011D01*
X145004990Y-84236975D01*
X145033338Y-84247238D01*
X145039245Y-84261700D01*
X145055755Y-84283683D01*
X145094622Y-84289389D01*
X145135157Y-84295191D01*
X145149429Y-84316778D01*
X145150000Y-84326308D01*
X145159097Y-84353714D01*
X145192504Y-84362989D01*
X145203403Y-84363226D01*
X145246655Y-84372096D01*
X145267431Y-84390915D01*
X145292101Y-84415471D01*
X145306325Y-84418604D01*
X145331168Y-84433123D01*
X145334593Y-84446293D01*
X145349369Y-84470766D01*
X145362282Y-84473982D01*
X145386755Y-84488758D01*
X145389971Y-84501671D01*
X145404747Y-84526144D01*
X145417660Y-84529360D01*
X145442133Y-84544136D01*
X145445349Y-84557049D01*
X145460125Y-84581522D01*
X145473038Y-84584738D01*
X145495021Y-84601248D01*
X145500727Y-84640116D01*
X145508982Y-84684081D01*
X145528416Y-84695494D01*
X145548895Y-84709504D01*
X145556055Y-84754217D01*
X145556105Y-84760101D01*
X145562109Y-84807886D01*
X145581272Y-84824592D01*
X145583794Y-84824709D01*
X145608267Y-84839485D01*
X145611483Y-84852398D01*
X145625493Y-84872877D01*
X145670206Y-84880037D01*
X145676090Y-84880087D01*
X145723875Y-84874083D01*
X145740581Y-84854920D01*
X145740698Y-84852398D01*
X145754708Y-84831919D01*
X145799421Y-84824759D01*
X145805306Y-84824709D01*
X145853090Y-84818705D01*
X145869796Y-84799542D01*
X145869913Y-84797020D01*
X145886424Y-84775038D01*
X145925291Y-84769331D01*
X145965826Y-84763529D01*
X145980098Y-84741943D01*
X145980669Y-84732412D01*
X145982586Y-84717803D01*
X145992120Y-84707657D01*
X146014943Y-84701164D01*
X146056731Y-84697514D01*
X146123155Y-84695895D01*
X146219891Y-84695498D01*
X146239099Y-84695494D01*
X146341364Y-84695768D01*
X146412385Y-84697130D01*
X146457835Y-84700390D01*
X146483389Y-84706360D01*
X146494719Y-84715849D01*
X146497499Y-84729668D01*
X146497529Y-84732412D01*
X146502964Y-84755484D01*
X146525533Y-84766393D01*
X146574629Y-84769317D01*
X146580596Y-84769331D01*
X146635347Y-84772955D01*
X146660286Y-84785276D01*
X146663663Y-84797020D01*
X146678439Y-84821493D01*
X146691352Y-84824709D01*
X146707430Y-84833215D01*
X146716062Y-84863368D01*
X146718986Y-84922120D01*
X146719041Y-84935465D01*
X146716915Y-84999776D01*
X146709376Y-85034304D01*
X146694688Y-85046002D01*
X146691352Y-85046221D01*
X146666879Y-85060997D01*
X146663663Y-85073910D01*
X146648887Y-85098382D01*
X146635974Y-85101598D01*
X146611501Y-85116375D01*
X146608285Y-85129287D01*
X146593509Y-85153760D01*
X146580596Y-85156976D01*
X146556123Y-85171752D01*
X146552907Y-85184665D01*
X146538131Y-85209138D01*
X146525218Y-85212354D01*
X146500721Y-85226024D01*
X146497529Y-85237890D01*
X146482064Y-85262685D01*
X146460611Y-85273081D01*
X146430589Y-85293280D01*
X146423692Y-85312152D01*
X146409659Y-85337717D01*
X146396003Y-85341569D01*
X146371530Y-85356345D01*
X146368314Y-85369258D01*
X146353538Y-85393731D01*
X146340625Y-85396947D01*
X146316153Y-85411723D01*
X146312936Y-85424636D01*
X146298160Y-85449109D01*
X146285247Y-85452325D01*
X146260775Y-85467101D01*
X146257558Y-85480014D01*
X146242782Y-85504487D01*
X146229870Y-85507703D01*
X146205397Y-85522479D01*
X146202181Y-85535392D01*
X146187404Y-85559865D01*
X146174492Y-85563081D01*
X146150019Y-85577857D01*
X146146803Y-85590770D01*
X146132027Y-85615243D01*
X146119114Y-85618459D01*
X146094641Y-85633235D01*
X146091425Y-85646148D01*
X146076516Y-85670211D01*
X146062008Y-85673837D01*
X146034033Y-85689334D01*
X146022936Y-85710755D01*
X146004394Y-85740755D01*
X145987746Y-85747674D01*
X145965153Y-85762497D01*
X145962210Y-85775363D01*
X145947434Y-85799836D01*
X145934521Y-85803052D01*
X145910048Y-85817828D01*
X145906832Y-85830741D01*
X145892056Y-85855214D01*
X145879143Y-85858430D01*
X145854670Y-85873206D01*
X145851454Y-85886119D01*
X145836678Y-85910592D01*
X145823765Y-85913808D01*
X145801215Y-85929197D01*
X145796076Y-85950726D01*
X145797254Y-85961811D01*
X145803547Y-85970422D01*
X145819090Y-85976870D01*
X145848020Y-85981469D01*
X145894473Y-85984531D01*
X145962586Y-85986366D01*
X146056494Y-85987289D01*
X146180334Y-85987610D01*
X146285247Y-85987645D01*
X146434118Y-85987878D01*
X146550016Y-85988726D01*
X146636888Y-85990411D01*
X146698678Y-85993158D01*
X146739332Y-85997190D01*
X146762793Y-86002729D01*
X146773008Y-86010000D01*
X146774419Y-86015334D01*
X146789808Y-86037884D01*
X146811338Y-86043023D01*
X146830214Y-86046293D01*
X146841289Y-86061203D01*
X146846604Y-86095404D01*
X146848198Y-86156547D01*
X146848256Y-86181468D01*
X146847384Y-86252253D01*
X146843408Y-86293785D01*
X146834288Y-86313716D01*
X146817983Y-86319695D01*
X146811338Y-86319912D01*
X146781271Y-86331454D01*
X146774419Y-86347601D01*
X146759643Y-86372074D01*
X146746730Y-86375290D01*
X146722257Y-86390066D01*
X146719041Y-86402979D01*
X146704265Y-86427452D01*
X146691352Y-86430668D01*
X146668802Y-86446058D01*
X146663663Y-86467587D01*
X146652121Y-86497653D01*
X146635974Y-86504505D01*
X146611501Y-86519281D01*
X146608285Y-86532194D01*
X146591775Y-86554177D01*
X146552907Y-86559883D01*
X146508942Y-86568139D01*
X146497529Y-86587572D01*
X146487649Y-86604985D01*
X146453439Y-86613489D01*
X146405233Y-86615261D01*
X146347191Y-86618225D01*
X146318842Y-86628488D01*
X146312936Y-86642950D01*
X146302065Y-86661200D01*
X146265101Y-86669513D01*
X146229870Y-86670639D01*
X146175119Y-86674263D01*
X146150180Y-86686584D01*
X146146803Y-86698328D01*
X146136922Y-86715741D01*
X146102712Y-86724245D01*
X146054506Y-86726017D01*
X145996464Y-86728981D01*
X145968116Y-86739244D01*
X145962210Y-86753706D01*
X145953704Y-86769784D01*
X145923551Y-86778416D01*
X145864799Y-86781340D01*
X145851454Y-86781395D01*
X145740698Y-86781395D01*
X145740698Y-86846003D01*
X145734694Y-86893787D01*
X145715531Y-86910493D01*
X145713009Y-86910610D01*
X145697478Y-86918620D01*
X145688846Y-86947243D01*
X145685523Y-87003365D01*
X145685320Y-87030596D01*
X145687169Y-87097897D01*
X145693774Y-87135304D01*
X145706725Y-87149702D01*
X145713009Y-87150581D01*
X145731259Y-87161452D01*
X145739572Y-87198416D01*
X145740698Y-87233648D01*
X145739093Y-87284727D01*
X145729824Y-87308920D01*
X145706212Y-87316245D01*
X145685320Y-87316715D01*
X145644785Y-87310913D01*
X145630513Y-87289326D01*
X145629942Y-87279796D01*
X145618400Y-87249730D01*
X145602253Y-87242878D01*
X145577780Y-87228101D01*
X145574564Y-87215189D01*
X145559788Y-87190716D01*
X145546875Y-87187500D01*
X145522403Y-87172724D01*
X145519186Y-87159811D01*
X145503797Y-87137261D01*
X145482268Y-87132122D01*
X145452201Y-87143664D01*
X145445349Y-87159811D01*
X145430573Y-87184283D01*
X145417660Y-87187500D01*
X145393187Y-87172724D01*
X145389971Y-87159811D01*
X145375195Y-87135338D01*
X145362282Y-87132122D01*
X145337810Y-87117346D01*
X145334593Y-87104433D01*
X145319204Y-87081883D01*
X145297675Y-87076744D01*
X145267608Y-87088286D01*
X145260756Y-87104433D01*
X145250789Y-87128998D01*
X145242297Y-87132122D01*
X145225920Y-87117170D01*
X145223838Y-87104433D01*
X145209061Y-87079960D01*
X145196149Y-87076744D01*
X145171676Y-87061968D01*
X145168460Y-87049055D01*
X145153070Y-87026505D01*
X145131541Y-87021366D01*
X145101475Y-87032908D01*
X145094622Y-87049055D01*
X145084655Y-87073620D01*
X145076163Y-87076744D01*
X145063202Y-87060703D01*
X145057705Y-87022055D01*
X145057704Y-87021366D01*
X145062278Y-86982142D01*
X145083853Y-86967685D01*
X145113082Y-86965988D01*
X145157047Y-86957733D01*
X145168460Y-86938299D01*
X145184970Y-86916317D01*
X145223838Y-86910610D01*
X145267802Y-86902355D01*
X145279215Y-86882921D01*
X145289096Y-86865509D01*
X145323306Y-86857004D01*
X145371512Y-86855232D01*
X145429554Y-86852268D01*
X145457902Y-86842005D01*
X145463808Y-86827543D01*
X145472314Y-86811466D01*
X145502467Y-86802833D01*
X145561219Y-86799909D01*
X145574564Y-86799854D01*
X145638875Y-86797728D01*
X145673403Y-86790190D01*
X145685102Y-86775502D01*
X145685320Y-86772165D01*
X145693330Y-86756634D01*
X145721953Y-86748002D01*
X145778075Y-86744679D01*
X145805306Y-86744476D01*
X145872607Y-86742628D01*
X145910014Y-86736023D01*
X145924412Y-86723071D01*
X145925291Y-86716787D01*
X145936162Y-86698537D01*
X145973126Y-86690224D01*
X146008358Y-86689098D01*
X146060268Y-86686683D01*
X146084815Y-86676653D01*
X146091393Y-86654832D01*
X146091425Y-86652180D01*
X146096284Y-86630036D01*
X146116910Y-86618992D01*
X146162373Y-86615419D01*
X146183721Y-86615261D01*
X146241763Y-86612297D01*
X146270112Y-86602034D01*
X146276018Y-86587572D01*
X146286889Y-86569322D01*
X146323853Y-86561009D01*
X146359085Y-86559883D01*
X146413835Y-86556260D01*
X146438774Y-86543938D01*
X146442151Y-86532194D01*
X146458662Y-86510212D01*
X146497529Y-86504505D01*
X146541494Y-86496250D01*
X146552907Y-86476816D01*
X146568297Y-86454267D01*
X146589826Y-86449128D01*
X146619892Y-86437585D01*
X146626745Y-86421439D01*
X146641521Y-86396966D01*
X146654433Y-86393750D01*
X146678906Y-86378974D01*
X146682122Y-86366061D01*
X146696898Y-86341588D01*
X146709811Y-86338372D01*
X146734284Y-86323596D01*
X146737500Y-86310683D01*
X146752276Y-86286210D01*
X146765189Y-86282994D01*
X146781887Y-86273879D01*
X146790484Y-86241896D01*
X146792878Y-86181468D01*
X146791948Y-86123427D01*
X146785854Y-86093217D01*
X146769639Y-86081751D01*
X146738347Y-86079942D01*
X146737500Y-86079941D01*
X146693535Y-86071686D01*
X146682122Y-86052253D01*
X146677583Y-86042594D01*
X146660926Y-86035424D01*
X146627596Y-86030393D01*
X146573037Y-86027149D01*
X146492692Y-86025344D01*
X146382005Y-86024626D01*
X146322166Y-86024564D01*
X146196601Y-86024913D01*
X146103393Y-86026194D01*
X146037987Y-86028758D01*
X145995826Y-86032955D01*
X145972354Y-86039135D01*
X145963015Y-86047650D01*
X145962210Y-86052253D01*
X145953704Y-86068330D01*
X145923551Y-86076962D01*
X145864799Y-86079887D01*
X145851454Y-86079941D01*
X145787143Y-86077815D01*
X145752615Y-86070277D01*
X145740916Y-86055589D01*
X145740698Y-86052253D01*
X145734898Y-86039859D01*
X145713597Y-86031698D01*
X145670944Y-86026972D01*
X145601087Y-86024884D01*
X145537646Y-86024564D01*
X145446757Y-86025354D01*
X145386912Y-86028259D01*
X145352259Y-86034076D01*
X145336947Y-86043601D01*
X145334593Y-86052253D01*
X145319685Y-86076316D01*
X145305176Y-86079941D01*
X145277202Y-86095438D01*
X145266105Y-86116860D01*
X145247562Y-86146859D01*
X145230914Y-86153779D01*
X145208322Y-86168601D01*
X145205378Y-86181468D01*
X145190602Y-86205940D01*
X145177689Y-86209157D01*
X145157210Y-86223167D01*
X145150050Y-86267880D01*
X145150000Y-86273764D01*
X145150000Y-86338372D01*
X145500727Y-86338372D01*
X145632130Y-86339322D01*
X145734882Y-86342094D01*
X145806683Y-86346565D01*
X145845235Y-86352615D01*
X145851454Y-86356831D01*
X145833132Y-86361959D01*
X145778699Y-86366285D01*
X145688954Y-86369788D01*
X145564696Y-86372449D01*
X145406725Y-86374249D01*
X145215840Y-86375168D01*
X145103852Y-86375290D01*
X144896169Y-86374838D01*
X144720985Y-86373494D01*
X144579099Y-86371278D01*
X144471310Y-86368210D01*
X144398418Y-86364309D01*
X144361221Y-86359596D01*
X144356250Y-86356831D01*
X144373429Y-86347530D01*
X144419930Y-86341047D01*
X144488203Y-86338389D01*
X144494695Y-86338372D01*
X144567721Y-86336921D01*
X144610586Y-86331680D01*
X144629968Y-86321312D01*
X144633140Y-86310683D01*
X144643021Y-86293270D01*
X144677230Y-86284766D01*
X144725436Y-86282994D01*
X144780796Y-86281050D01*
X144808406Y-86272800D01*
X144817338Y-86254614D01*
X144817733Y-86246075D01*
X144826435Y-86219052D01*
X144858816Y-86209537D01*
X144873111Y-86209157D01*
X144917076Y-86200901D01*
X144928489Y-86181468D01*
X144942058Y-86161273D01*
X144985781Y-86153896D01*
X144995071Y-86153779D01*
X145039055Y-86150314D01*
X145053290Y-86137708D01*
X145051028Y-86126090D01*
X145054030Y-86103325D01*
X145076742Y-86098401D01*
X145106351Y-86086722D01*
X145113082Y-86070712D01*
X145127858Y-86046239D01*
X145140771Y-86043023D01*
X145165243Y-86028247D01*
X145168460Y-86015334D01*
X145183236Y-85990861D01*
X145196149Y-85987645D01*
X145220621Y-85972869D01*
X145223838Y-85959956D01*
X145238614Y-85935483D01*
X145251526Y-85932267D01*
X145274076Y-85916878D01*
X145279215Y-85895348D01*
X145290758Y-85865282D01*
X145306904Y-85858430D01*
X145331377Y-85843654D01*
X145334593Y-85830741D01*
X145349369Y-85806268D01*
X145362282Y-85803052D01*
X145386755Y-85788276D01*
X145389971Y-85775363D01*
X145405361Y-85752813D01*
X145426890Y-85747674D01*
X145456956Y-85736132D01*
X145463808Y-85719985D01*
X145478585Y-85695512D01*
X145491497Y-85692296D01*
X145515970Y-85677520D01*
X145519186Y-85664607D01*
X145533962Y-85640134D01*
X145546875Y-85636918D01*
X145571348Y-85622142D01*
X145574564Y-85609229D01*
X145589340Y-85584756D01*
X145602253Y-85581540D01*
X145626726Y-85566764D01*
X145629942Y-85553851D01*
X145644718Y-85529379D01*
X145657631Y-85526162D01*
X145680181Y-85510773D01*
X145685320Y-85489244D01*
X145696862Y-85459177D01*
X145713009Y-85452325D01*
X145737482Y-85437549D01*
X145740698Y-85424636D01*
X145756271Y-85402134D01*
X145779592Y-85396947D01*
X145807910Y-85388821D01*
X145807860Y-85369258D01*
X145810861Y-85346493D01*
X145833574Y-85341569D01*
X145863183Y-85329890D01*
X145869913Y-85313880D01*
X145884689Y-85289408D01*
X145897602Y-85286191D01*
X145922075Y-85271415D01*
X145925291Y-85258503D01*
X145940067Y-85234030D01*
X145952980Y-85230814D01*
X145977453Y-85216038D01*
X145980669Y-85203125D01*
X145995445Y-85178652D01*
X146008358Y-85175436D01*
X146032831Y-85160660D01*
X146036047Y-85147747D01*
X146052557Y-85125764D01*
X146091425Y-85120058D01*
X146131960Y-85114256D01*
X146146231Y-85092669D01*
X146146803Y-85083139D01*
X146154030Y-85057694D01*
X146182244Y-85047427D01*
X146211410Y-85046221D01*
X146259195Y-85040216D01*
X146275901Y-85021053D01*
X146276018Y-85018532D01*
X146286889Y-85000281D01*
X146323853Y-84991969D01*
X146359085Y-84990843D01*
X146413835Y-84987219D01*
X146438774Y-84974898D01*
X146442151Y-84963154D01*
X146450162Y-84947623D01*
X146478784Y-84938990D01*
X146534906Y-84935667D01*
X146562137Y-84935465D01*
X146627071Y-84934314D01*
X146663274Y-84929189D01*
X146678902Y-84917579D01*
X146682122Y-84898546D01*
X146670580Y-84868480D01*
X146654433Y-84861628D01*
X146629961Y-84846851D01*
X146626745Y-84833939D01*
X146616864Y-84816526D01*
X146582654Y-84808021D01*
X146534448Y-84806250D01*
X146476406Y-84803285D01*
X146448058Y-84793023D01*
X146442151Y-84778561D01*
X146436480Y-84766402D01*
X146415635Y-84758306D01*
X146373868Y-84753523D01*
X146305433Y-84751305D01*
X146229870Y-84750872D01*
X146136651Y-84751611D01*
X146074582Y-84754330D01*
X146037917Y-84759778D01*
X146020907Y-84768705D01*
X146017588Y-84778561D01*
X146001077Y-84800543D01*
X145962210Y-84806250D01*
X145918245Y-84814505D01*
X145906832Y-84833939D01*
X145890321Y-84855921D01*
X145851454Y-84861628D01*
X145807489Y-84869883D01*
X145796076Y-84889316D01*
X145779671Y-84911362D01*
X145742851Y-84917005D01*
X145698226Y-84926653D01*
X145679972Y-84953924D01*
X145655971Y-84984482D01*
X145622441Y-84990843D01*
X145590121Y-84986302D01*
X145576880Y-84965379D01*
X145574564Y-84926235D01*
X145574564Y-84861628D01*
X145482268Y-84861628D01*
X145429618Y-84858307D01*
X145396200Y-84849818D01*
X145389971Y-84843168D01*
X145405432Y-84828170D01*
X145426890Y-84824709D01*
X145449034Y-84819850D01*
X145460078Y-84799224D01*
X145463650Y-84753760D01*
X145463808Y-84732412D01*
X145461865Y-84677053D01*
X145453614Y-84649443D01*
X145435429Y-84640511D01*
X145426890Y-84640116D01*
X145396824Y-84628574D01*
X145389971Y-84612427D01*
X145375195Y-84587954D01*
X145362282Y-84584738D01*
X145339733Y-84569349D01*
X145334593Y-84547819D01*
X145323051Y-84517753D01*
X145306904Y-84510901D01*
X145282432Y-84496125D01*
X145279215Y-84483212D01*
X145264439Y-84458739D01*
X145251526Y-84455523D01*
X145227054Y-84440747D01*
X145223838Y-84427834D01*
X145215827Y-84412303D01*
X145187205Y-84403670D01*
X145131083Y-84400348D01*
X145103852Y-84400145D01*
X144983867Y-84400145D01*
X144983867Y-84344767D01*
X144983867Y-84289389D01*
X144845422Y-84289389D01*
X144772396Y-84287939D01*
X144729531Y-84282697D01*
X144710149Y-84272329D01*
X144706977Y-84261700D01*
X144691588Y-84239150D01*
X144670058Y-84234011D01*
X144639992Y-84245553D01*
X144633140Y-84261700D01*
X144647916Y-84286173D01*
X144660829Y-84289389D01*
X144685302Y-84304165D01*
X144688518Y-84317078D01*
X144673742Y-84341551D01*
X144660829Y-84344767D01*
X144636356Y-84329991D01*
X144633140Y-84317078D01*
X144618364Y-84292605D01*
X144605451Y-84289389D01*
X144580978Y-84304165D01*
X144577762Y-84317078D01*
X144562986Y-84341551D01*
X144550073Y-84344767D01*
X144525600Y-84329991D01*
X144522384Y-84317078D01*
X144537160Y-84292605D01*
X144550073Y-84289389D01*
X144574546Y-84274613D01*
X144577762Y-84261700D01*
X144562986Y-84237227D01*
X144550073Y-84234011D01*
X144527523Y-84218622D01*
X144522384Y-84197093D01*
X144520959Y-84184686D01*
X144513550Y-84175423D01*
X144495459Y-84168845D01*
X144461985Y-84164493D01*
X144408431Y-84161909D01*
X144330095Y-84160634D01*
X144222280Y-84160210D01*
X144143968Y-84160174D01*
X144016801Y-84160313D01*
X143921854Y-84161036D01*
X143854426Y-84162801D01*
X143809818Y-84166067D01*
X143783332Y-84171291D01*
X143770268Y-84178934D01*
X143765926Y-84189452D01*
X143765553Y-84197093D01*
X143761813Y-84217072D01*
X143745156Y-84228212D01*
X143707423Y-84233020D01*
X143645567Y-84234011D01*
X143578266Y-84235860D01*
X143540859Y-84242465D01*
X143526460Y-84255416D01*
X143525582Y-84261700D01*
X143531028Y-84273429D01*
X143551070Y-84281397D01*
X143591258Y-84286268D01*
X143657146Y-84288710D01*
X143754286Y-84289389D01*
X143756323Y-84289389D01*
X143854067Y-84290043D01*
X143920460Y-84292448D01*
X143961056Y-84297270D01*
X143981406Y-84305177D01*
X143987063Y-84316834D01*
X143987064Y-84317078D01*
X143982482Y-84326848D01*
X143965662Y-84334068D01*
X143931993Y-84339102D01*
X143876864Y-84342314D01*
X143795663Y-84344068D01*
X143683779Y-84344727D01*
X143636338Y-84344767D01*
X143512581Y-84345129D01*
X143421128Y-84346457D01*
X143357365Y-84349115D01*
X143316683Y-84353467D01*
X143294470Y-84359878D01*
X143286115Y-84368711D01*
X143285611Y-84372456D01*
X143269100Y-84394438D01*
X143230233Y-84400145D01*
X143186268Y-84408400D01*
X143174855Y-84427834D01*
X143158344Y-84449816D01*
X143119477Y-84455523D01*
X143075512Y-84463778D01*
X143064099Y-84483212D01*
X143049323Y-84507685D01*
X143036410Y-84510901D01*
X143013860Y-84526290D01*
X143008721Y-84547819D01*
X142995669Y-84578671D01*
X142971803Y-84584738D01*
X142941736Y-84596280D01*
X142934884Y-84612427D01*
X142920108Y-84636900D01*
X142907195Y-84640116D01*
X142882722Y-84654892D01*
X142879506Y-84667805D01*
X142864730Y-84692278D01*
X142851817Y-84695494D01*
X142827344Y-84710270D01*
X142824128Y-84723183D01*
X142809352Y-84747656D01*
X142796439Y-84750872D01*
X142774457Y-84767382D01*
X142768750Y-84806250D01*
X142760495Y-84850214D01*
X142741061Y-84861628D01*
X142720582Y-84875638D01*
X142713422Y-84920351D01*
X142713372Y-84926235D01*
X142707368Y-84974020D01*
X142688205Y-84990726D01*
X142685683Y-84990843D01*
X142667433Y-84979972D01*
X142659120Y-84943008D01*
X142657995Y-84907776D01*
X142661618Y-84853025D01*
X142673939Y-84828087D01*
X142685683Y-84824709D01*
X142707363Y-84808721D01*
X142713372Y-84767603D01*
X142721448Y-84721824D01*
X142748903Y-84701219D01*
X142750291Y-84700842D01*
X142780290Y-84682300D01*
X142787210Y-84665652D01*
X142802032Y-84643059D01*
X142814899Y-84640116D01*
X142839371Y-84625340D01*
X142842588Y-84612427D01*
X142857364Y-84587954D01*
X142870276Y-84584738D01*
X142894749Y-84569962D01*
X142897965Y-84557049D01*
X142912741Y-84532576D01*
X142925654Y-84529360D01*
X142950127Y-84514584D01*
X142953343Y-84501671D01*
X142968119Y-84477198D01*
X142981032Y-84473982D01*
X143005505Y-84459206D01*
X143008721Y-84446293D01*
X143025054Y-84424413D01*
X143064678Y-84418604D01*
X143109951Y-84409944D01*
X143131261Y-84390915D01*
X143156295Y-84370254D01*
X143195289Y-84363226D01*
X143234933Y-84356938D01*
X143248348Y-84333843D01*
X143248692Y-84326308D01*
X143260234Y-84296241D01*
X143276381Y-84289389D01*
X143300854Y-84274613D01*
X143304070Y-84261700D01*
X143314941Y-84243450D01*
X143351905Y-84235137D01*
X143387137Y-84234011D01*
X143441887Y-84230388D01*
X143466826Y-84218066D01*
X143470204Y-84206322D01*
X143478214Y-84190791D01*
X143506837Y-84182159D01*
X143562959Y-84178836D01*
X143590189Y-84178633D01*
X143657491Y-84176785D01*
X143694897Y-84170180D01*
X143709296Y-84157228D01*
X143710175Y-84150944D01*
X143714441Y-84142053D01*
X143730025Y-84135251D01*
X143761101Y-84130272D01*
X143811847Y-84126851D01*
X143886438Y-84124719D01*
X143989049Y-84123611D01*
X144123857Y-84123259D01*
X144143968Y-84123255D01*
X144283270Y-84123528D01*
G37*
D14*
%TO.C,D2*%
X157907500Y-72163000D02*
X157907500Y-73633000D01*
X157907500Y-73633000D02*
X160192500Y-73633000D01*
X160192500Y-72163000D02*
X157907500Y-72163000D01*
%TO.C,SW1*%
X161439000Y-86250000D02*
X161439000Y-84210000D01*
X160490000Y-84210000D02*
X161439000Y-84210000D01*
X160490000Y-84210000D02*
X160490000Y-77890000D01*
X162351000Y-84210000D02*
X164090000Y-84210000D01*
X164090000Y-84210000D02*
X164090000Y-77890000D01*
X160490000Y-77890000D02*
X162229000Y-77890000D01*
X162351000Y-77890000D02*
X164090000Y-77890000D01*
%TO.C,U4*%
X149810000Y-74990000D02*
X149810000Y-75245000D01*
X149810000Y-75245000D02*
X147995000Y-75245000D01*
X149810000Y-85510000D02*
X149810000Y-85255000D01*
X151670000Y-74990000D02*
X149810000Y-74990000D01*
X151670000Y-85510000D02*
X149810000Y-85510000D01*
X155670000Y-74990000D02*
X157530000Y-74990000D01*
X155670000Y-85510000D02*
X157530000Y-85510000D01*
X157530000Y-74990000D02*
X157530000Y-75245000D01*
X157530000Y-85510000D02*
X157530000Y-85255000D01*
%TO.C,R4*%
X133437221Y-72490000D02*
X133762779Y-72490000D01*
X133437221Y-73510000D02*
X133762779Y-73510000D01*
%TO.C,D1*%
X149440000Y-73760000D02*
X149440000Y-72290000D01*
X149440000Y-72290000D02*
X147155000Y-72290000D01*
X147155000Y-73760000D02*
X149440000Y-73760000D01*
%TO.C,J1*%
X175370000Y-79645000D02*
X176700000Y-79645000D01*
X175370000Y-80975000D02*
X175370000Y-79645000D01*
X175370000Y-82245000D02*
X175370000Y-87385000D01*
X175370000Y-82245000D02*
X178030000Y-82245000D01*
X175370000Y-87385000D02*
X178030000Y-87385000D01*
X178030000Y-82245000D02*
X178030000Y-87385000D01*
%TO.C,R1*%
X144617221Y-72515000D02*
X144942779Y-72515000D01*
X144617221Y-73535000D02*
X144942779Y-73535000D01*
%TO.C,R2*%
X162722779Y-73398000D02*
X162397221Y-73398000D01*
X162722779Y-72378000D02*
X162397221Y-72378000D01*
%TO.C,C4*%
X143659420Y-74875000D02*
X143940580Y-74875000D01*
X143659420Y-75895000D02*
X143940580Y-75895000D01*
D15*
%TO.C,G\u002A\u002A\u002A*%
G36*
X126292153Y-78954744D02*
G01*
X126292153Y-79464598D01*
X126211040Y-79464598D01*
X126129927Y-79464598D01*
X126129927Y-78954744D01*
X126129927Y-78444890D01*
X126211040Y-78444890D01*
X126292153Y-78444890D01*
X126292153Y-78954744D01*
G37*
G36*
X127265511Y-78526004D02*
G01*
X127265511Y-78607117D01*
X127126983Y-78607117D01*
X126988455Y-78607117D01*
X126982138Y-79030064D01*
X126975821Y-79453011D01*
X126888914Y-79460204D01*
X126802007Y-79467396D01*
X126802007Y-79037257D01*
X126802007Y-78607117D01*
X126662956Y-78607117D01*
X126523905Y-78607117D01*
X126523905Y-78526004D01*
X126523905Y-78444890D01*
X126894708Y-78444890D01*
X127265511Y-78444890D01*
X127265511Y-78526004D01*
G37*
G36*
X117902737Y-78526004D02*
G01*
X117902737Y-78607117D01*
X117763686Y-78607117D01*
X117624635Y-78607117D01*
X117624635Y-79035858D01*
X117624635Y-79464598D01*
X117547385Y-79464598D01*
X117489808Y-79460099D01*
X117454837Y-79449176D01*
X117453779Y-79448244D01*
X117448634Y-79420803D01*
X117444503Y-79354828D01*
X117441631Y-79258125D01*
X117440264Y-79138503D01*
X117440463Y-79025296D01*
X117443503Y-78618704D01*
X117302317Y-78611805D01*
X117161132Y-78604905D01*
X117161132Y-78524898D01*
X117161132Y-78444890D01*
X117531934Y-78444890D01*
X117902737Y-78444890D01*
X117902737Y-78526004D01*
G37*
G36*
X116118248Y-78524441D02*
G01*
X116118248Y-78605377D01*
X115905381Y-78612041D01*
X115692513Y-78618704D01*
X115689665Y-78722993D01*
X115688988Y-78798819D01*
X115697722Y-78846337D01*
X115724468Y-78872163D01*
X115777824Y-78882911D01*
X115866389Y-78885195D01*
X115900564Y-78885219D01*
X116095073Y-78885219D01*
X116095073Y-78965430D01*
X116095073Y-79045641D01*
X115892524Y-79052337D01*
X115689975Y-79059033D01*
X115689741Y-79256022D01*
X115689507Y-79453011D01*
X115602145Y-79460231D01*
X115514782Y-79467451D01*
X115521031Y-78961964D01*
X115527281Y-78456478D01*
X115822765Y-78449992D01*
X116118248Y-78443506D01*
X116118248Y-78524441D01*
G37*
G36*
X116975730Y-78526004D02*
G01*
X116975730Y-78607117D01*
X116755566Y-78607117D01*
X116535402Y-78607117D01*
X116535402Y-78733678D01*
X116535402Y-78860239D01*
X116738184Y-78866935D01*
X116940967Y-78873631D01*
X116948161Y-78948028D01*
X116955354Y-79022425D01*
X116751172Y-79029141D01*
X116546989Y-79035858D01*
X116540064Y-79168262D01*
X116533139Y-79300666D01*
X116760229Y-79307313D01*
X116987318Y-79313960D01*
X116987318Y-79383485D01*
X116987318Y-79453011D01*
X116680247Y-79459477D01*
X116373175Y-79465944D01*
X116373175Y-78955417D01*
X116373175Y-78444890D01*
X116674453Y-78444890D01*
X116975730Y-78444890D01*
X116975730Y-78526004D01*
G37*
G36*
X119322217Y-73815402D02*
G01*
X120324544Y-73821441D01*
X120331097Y-74082162D01*
X120337650Y-74342883D01*
X119606872Y-74342883D01*
X118876095Y-74342883D01*
X118876095Y-74783212D01*
X118876095Y-75223540D01*
X119542922Y-75223540D01*
X120209749Y-75223540D01*
X120208945Y-75472673D01*
X120208141Y-75721806D01*
X119542118Y-75727956D01*
X118876095Y-75734105D01*
X118876095Y-76185665D01*
X118876095Y-76637226D01*
X119617701Y-76637226D01*
X120359307Y-76637226D01*
X120359307Y-76903741D01*
X120359307Y-77170255D01*
X119339599Y-77170255D01*
X118319891Y-77170255D01*
X118319891Y-75489808D01*
X118319891Y-73809362D01*
X119322217Y-73815402D01*
G37*
G36*
X122672500Y-78531797D02*
G01*
X122679762Y-78607117D01*
X122458129Y-78607117D01*
X122236497Y-78607117D01*
X122236497Y-78734580D01*
X122236497Y-78862044D01*
X122433486Y-78862044D01*
X122630475Y-78862044D01*
X122630475Y-78943157D01*
X122630475Y-79024270D01*
X122433486Y-79024270D01*
X122236497Y-79024270D01*
X122236497Y-79163321D01*
X122236497Y-79302372D01*
X122456661Y-79302372D01*
X122676825Y-79302372D01*
X122676825Y-79383485D01*
X122676825Y-79464598D01*
X122374820Y-79464598D01*
X122240890Y-79463267D01*
X122147987Y-79458941D01*
X122090858Y-79451125D01*
X122064248Y-79439322D01*
X122061459Y-79435004D01*
X122058319Y-79403720D01*
X122056127Y-79333530D01*
X122054957Y-79231873D01*
X122054884Y-79106186D01*
X122055984Y-78963904D01*
X122056393Y-78930943D01*
X122062683Y-78456478D01*
X122363960Y-78456478D01*
X122665237Y-78456478D01*
X122672500Y-78531797D01*
G37*
G36*
X118343066Y-78665055D02*
G01*
X118392076Y-78754417D01*
X118432841Y-78826341D01*
X118460546Y-78872480D01*
X118470111Y-78885219D01*
X118483645Y-78866143D01*
X118514108Y-78814486D01*
X118556693Y-78738603D01*
X118596804Y-78665055D01*
X118715491Y-78444890D01*
X118809312Y-78444890D01*
X118865686Y-78448802D01*
X118894457Y-78458605D01*
X118895408Y-78463020D01*
X118881634Y-78488610D01*
X118848996Y-78546687D01*
X118801828Y-78629610D01*
X118744464Y-78729740D01*
X118719663Y-78772848D01*
X118551642Y-79064546D01*
X118551642Y-79264572D01*
X118551642Y-79464598D01*
X118470529Y-79464598D01*
X118389416Y-79464598D01*
X118389416Y-79266701D01*
X118389416Y-79068803D01*
X118215602Y-78766319D01*
X118155066Y-78660372D01*
X118103703Y-78569345D01*
X118065531Y-78500445D01*
X118044565Y-78460880D01*
X118041788Y-78454363D01*
X118062351Y-78448386D01*
X118113609Y-78445106D01*
X118132907Y-78444890D01*
X118224026Y-78444890D01*
X118343066Y-78665055D01*
G37*
G36*
X128228139Y-78446837D02*
G01*
X128259898Y-78451692D01*
X128262044Y-78453555D01*
X128250987Y-78475535D01*
X128220538Y-78530280D01*
X128174781Y-78610589D01*
X128117800Y-78709260D01*
X128088230Y-78760056D01*
X127914416Y-79057892D01*
X127914416Y-79261245D01*
X127914416Y-79464598D01*
X127833303Y-79464598D01*
X127752190Y-79464598D01*
X127752190Y-79265902D01*
X127752190Y-79067205D01*
X127578376Y-78769343D01*
X127517450Y-78664087D01*
X127465853Y-78573332D01*
X127427685Y-78504415D01*
X127407043Y-78464675D01*
X127404562Y-78458186D01*
X127425082Y-78449702D01*
X127476075Y-78445141D01*
X127493194Y-78444890D01*
X127532674Y-78446208D01*
X127562866Y-78454883D01*
X127590504Y-78477996D01*
X127622318Y-78522631D01*
X127665040Y-78595870D01*
X127704809Y-78667531D01*
X127827791Y-78890171D01*
X127867728Y-78823963D01*
X127898742Y-78770640D01*
X127942663Y-78692813D01*
X127990323Y-78606735D01*
X127993288Y-78601323D01*
X128037697Y-78522322D01*
X128070044Y-78475719D01*
X128100000Y-78452974D01*
X128137238Y-78445548D01*
X128170477Y-78444890D01*
X128228139Y-78446837D01*
G37*
G36*
X124252737Y-78822911D02*
G01*
X124253189Y-78965142D01*
X124255077Y-79068535D01*
X124259197Y-79140595D01*
X124266348Y-79188831D01*
X124277327Y-79220750D01*
X124292932Y-79243858D01*
X124298066Y-79249586D01*
X124355435Y-79291267D01*
X124411541Y-79313208D01*
X124488281Y-79314563D01*
X124565538Y-79291979D01*
X124627465Y-79252397D01*
X124657655Y-79205405D01*
X124662473Y-79163829D01*
X124667238Y-79085649D01*
X124671509Y-78980610D01*
X124674842Y-78858456D01*
X124675861Y-78804106D01*
X124681478Y-78456478D01*
X124762591Y-78456478D01*
X124843705Y-78456478D01*
X124843705Y-78838868D01*
X124843184Y-78983477D01*
X124841070Y-79089855D01*
X124836535Y-79166114D01*
X124828754Y-79220367D01*
X124816898Y-79260727D01*
X124800140Y-79295307D01*
X124796534Y-79301552D01*
X124719251Y-79389951D01*
X124613833Y-79450345D01*
X124492056Y-79478294D01*
X124365697Y-79469357D01*
X124357026Y-79467246D01*
X124247784Y-79426852D01*
X124170738Y-79366235D01*
X124135708Y-79318274D01*
X124119082Y-79286483D01*
X124107082Y-79248888D01*
X124098972Y-79197770D01*
X124094018Y-79125409D01*
X124091483Y-79024086D01*
X124090633Y-78886080D01*
X124090598Y-78844662D01*
X124090511Y-78444890D01*
X124171624Y-78444890D01*
X124252737Y-78444890D01*
X124252737Y-78822911D01*
G37*
G36*
X115114602Y-78919982D02*
G01*
X115165396Y-79059892D01*
X115211349Y-79186741D01*
X115249906Y-79293449D01*
X115278509Y-79372937D01*
X115294603Y-79418129D01*
X115296644Y-79424042D01*
X115298284Y-79450261D01*
X115272952Y-79462054D01*
X115217909Y-79464598D01*
X115159673Y-79461420D01*
X115126960Y-79443753D01*
X115104276Y-79399404D01*
X115092747Y-79366104D01*
X115059915Y-79267609D01*
X114843613Y-79267609D01*
X114627312Y-79267609D01*
X114594480Y-79366104D01*
X114571108Y-79427133D01*
X114544987Y-79455750D01*
X114500801Y-79464157D01*
X114470879Y-79464598D01*
X114413649Y-79463288D01*
X114382517Y-79460021D01*
X114380593Y-79458805D01*
X114388280Y-79436332D01*
X114409570Y-79376488D01*
X114442238Y-79285464D01*
X114484057Y-79169452D01*
X114511414Y-79093796D01*
X114689529Y-79093796D01*
X114845228Y-79093796D01*
X115000927Y-79093796D01*
X114928064Y-78885366D01*
X114895606Y-78795744D01*
X114867984Y-78725408D01*
X114849068Y-78683908D01*
X114843613Y-78676814D01*
X114831654Y-78697175D01*
X114809001Y-78751995D01*
X114779458Y-78831706D01*
X114760777Y-78885243D01*
X114689529Y-79093796D01*
X114511414Y-79093796D01*
X114532803Y-79034645D01*
X114561756Y-78954744D01*
X114742434Y-78456478D01*
X114844296Y-78456478D01*
X114946157Y-78456478D01*
X115114602Y-78919982D01*
G37*
G36*
X123461834Y-78437659D02*
G01*
X123564440Y-78461423D01*
X123668394Y-78507422D01*
X123756276Y-78566622D01*
X123800467Y-78613261D01*
X123823458Y-78653657D01*
X123813826Y-78681905D01*
X123787380Y-78705611D01*
X123735246Y-78737350D01*
X123693070Y-78744887D01*
X123673572Y-78726321D01*
X123673358Y-78722652D01*
X123652399Y-78687126D01*
X123597983Y-78652707D01*
X123522796Y-78624841D01*
X123439529Y-78608978D01*
X123404477Y-78607203D01*
X123283842Y-78625682D01*
X123187709Y-78676206D01*
X123116691Y-78751113D01*
X123071402Y-78842740D01*
X123052455Y-78943426D01*
X123060464Y-79045507D01*
X123096043Y-79141324D01*
X123159805Y-79223212D01*
X123252365Y-79283511D01*
X123348100Y-79311143D01*
X123427802Y-79311447D01*
X123514609Y-79293167D01*
X123593442Y-79261636D01*
X123649220Y-79222186D01*
X123664523Y-79199266D01*
X123695015Y-79166785D01*
X123745219Y-79175974D01*
X123792460Y-79207703D01*
X123847172Y-79252084D01*
X123789234Y-79314246D01*
X123675885Y-79403334D01*
X123539396Y-79458057D01*
X123390600Y-79475581D01*
X123249064Y-79455568D01*
X123120683Y-79398172D01*
X123018361Y-79309257D01*
X122943970Y-79196846D01*
X122899383Y-79068962D01*
X122886474Y-78933628D01*
X122907115Y-78798865D01*
X122963181Y-78672696D01*
X123043455Y-78575010D01*
X123143703Y-78506513D01*
X123268656Y-78458158D01*
X123398746Y-78436368D01*
X123461834Y-78437659D01*
G37*
G36*
X125579474Y-78455016D02*
G01*
X125663861Y-78475874D01*
X125729539Y-78511398D01*
X125774908Y-78552037D01*
X125842256Y-78652810D01*
X125868134Y-78761915D01*
X125853066Y-78870271D01*
X125797575Y-78968795D01*
X125748091Y-79017048D01*
X125671526Y-79078140D01*
X125757817Y-79219225D01*
X125820429Y-79321684D01*
X125860768Y-79390802D01*
X125880182Y-79433120D01*
X125880016Y-79455178D01*
X125861617Y-79463517D01*
X125826330Y-79464679D01*
X125808318Y-79464598D01*
X125764453Y-79462982D01*
X125731877Y-79453021D01*
X125702384Y-79427051D01*
X125667770Y-79377405D01*
X125619832Y-79296419D01*
X125609891Y-79279197D01*
X125558895Y-79192184D01*
X125522599Y-79137806D01*
X125492811Y-79108397D01*
X125461340Y-79096288D01*
X125419997Y-79093810D01*
X125411849Y-79093796D01*
X125320745Y-79093796D01*
X125313977Y-79273403D01*
X125307208Y-79453011D01*
X125219845Y-79460231D01*
X125132482Y-79467451D01*
X125138732Y-78961964D01*
X125140062Y-78854392D01*
X125313974Y-78854392D01*
X125319434Y-78914637D01*
X125330017Y-78939230D01*
X125364703Y-78942936D01*
X125428696Y-78944212D01*
X125475623Y-78943561D01*
X125564649Y-78934727D01*
X125623838Y-78910809D01*
X125647872Y-78890895D01*
X125689115Y-78822202D01*
X125695685Y-78744466D01*
X125667811Y-78674236D01*
X125644543Y-78649856D01*
X125587338Y-78620801D01*
X125502111Y-78608172D01*
X125457181Y-78607117D01*
X125322599Y-78607117D01*
X125314904Y-78769401D01*
X125313974Y-78854392D01*
X125140062Y-78854392D01*
X125144982Y-78456478D01*
X125318796Y-78449240D01*
X125467434Y-78446811D01*
X125579474Y-78455016D01*
G37*
G36*
X121578255Y-78465093D02*
G01*
X121677737Y-78525450D01*
X121697674Y-78543433D01*
X121752262Y-78603113D01*
X121769017Y-78644846D01*
X121748645Y-78676433D01*
X121711636Y-78697158D01*
X121666099Y-78711924D01*
X121629503Y-78700901D01*
X121588699Y-78666115D01*
X121519673Y-78620291D01*
X121434526Y-78607117D01*
X121351033Y-78617411D01*
X121303771Y-78651625D01*
X121286662Y-78714755D01*
X121286314Y-78728931D01*
X121287600Y-78757045D01*
X121295828Y-78779574D01*
X121317552Y-78800574D01*
X121359327Y-78824101D01*
X121427707Y-78854211D01*
X121529246Y-78894962D01*
X121598624Y-78922212D01*
X121706932Y-78983295D01*
X121778429Y-79063535D01*
X121810781Y-79156542D01*
X121801657Y-79255930D01*
X121754132Y-79348179D01*
X121677024Y-79416824D01*
X121572098Y-79461947D01*
X121453644Y-79479395D01*
X121344252Y-79467246D01*
X121231532Y-79425042D01*
X121147859Y-79359891D01*
X121125885Y-79334156D01*
X121086447Y-79272877D01*
X121084819Y-79230464D01*
X121121924Y-79197717D01*
X121140511Y-79188510D01*
X121187537Y-79172688D01*
X121219239Y-79185925D01*
X121246394Y-79219089D01*
X121308948Y-79274027D01*
X121390463Y-79305036D01*
X121477610Y-79311685D01*
X121557056Y-79293540D01*
X121615473Y-79250169D01*
X121627272Y-79231448D01*
X121641780Y-79178503D01*
X121625048Y-79132117D01*
X121573087Y-79088420D01*
X121481908Y-79043540D01*
X121401891Y-79012682D01*
X121275952Y-78960203D01*
X121190282Y-78905883D01*
X121138979Y-78843794D01*
X121116142Y-78768006D01*
X121113554Y-78722993D01*
X121133434Y-78619054D01*
X121187498Y-78536068D01*
X121267379Y-78476608D01*
X121364709Y-78443243D01*
X121471124Y-78438548D01*
X121578255Y-78465093D01*
G37*
G36*
X113978242Y-78459140D02*
G01*
X114085588Y-78516631D01*
X114146959Y-78581977D01*
X114195565Y-78650238D01*
X114143630Y-78686615D01*
X114096381Y-78715486D01*
X114062028Y-78716570D01*
X114022393Y-78687142D01*
X113999826Y-78665055D01*
X113934041Y-78622326D01*
X113857987Y-78605975D01*
X113783718Y-78613859D01*
X113723286Y-78643836D01*
X113688745Y-78693761D01*
X113684854Y-78721056D01*
X113700744Y-78768928D01*
X113751422Y-78813863D01*
X113841404Y-78859232D01*
X113901112Y-78882607D01*
X113985245Y-78915102D01*
X114060963Y-78946933D01*
X114099383Y-78964975D01*
X114167750Y-79023728D01*
X114206489Y-79105912D01*
X114216045Y-79199684D01*
X114196859Y-79293203D01*
X114149374Y-79374626D01*
X114082064Y-79428164D01*
X114016912Y-79451608D01*
X113932115Y-79469357D01*
X113845932Y-79478929D01*
X113776626Y-79477845D01*
X113754380Y-79472681D01*
X113647945Y-79424924D01*
X113576034Y-79377095D01*
X113527442Y-79321538D01*
X113522993Y-79314551D01*
X113489111Y-79257243D01*
X113481634Y-79225521D01*
X113503102Y-79205234D01*
X113545989Y-79186419D01*
X113597308Y-79170152D01*
X113630969Y-79181657D01*
X113662228Y-79216693D01*
X113741704Y-79282737D01*
X113840845Y-79313455D01*
X113944788Y-79304442D01*
X113951379Y-79302369D01*
X114020962Y-79263475D01*
X114050891Y-79211369D01*
X114042831Y-79153836D01*
X113998448Y-79098663D01*
X113919408Y-79053636D01*
X113896422Y-79045508D01*
X113748316Y-78991705D01*
X113641686Y-78936400D01*
X113571731Y-78875467D01*
X113533651Y-78804775D01*
X113522628Y-78724060D01*
X113542979Y-78614302D01*
X113600799Y-78527705D01*
X113691243Y-78468519D01*
X113809464Y-78440996D01*
X113847080Y-78439542D01*
X113978242Y-78459140D01*
G37*
G36*
X124965374Y-73814955D02*
G01*
X125260858Y-73821441D01*
X125759008Y-74649243D01*
X125889023Y-74864422D01*
X125997459Y-75041850D01*
X126085886Y-75183929D01*
X126155879Y-75293061D01*
X126209009Y-75371649D01*
X126246850Y-75422095D01*
X126270975Y-75446801D01*
X126282475Y-75448787D01*
X126300057Y-75422832D01*
X126338524Y-75361911D01*
X126394935Y-75270815D01*
X126466350Y-75154336D01*
X126549829Y-75017266D01*
X126642431Y-74864396D01*
X126719350Y-74736861D01*
X126820076Y-74569823D01*
X126916596Y-74410293D01*
X127005452Y-74263948D01*
X127083186Y-74136465D01*
X127146338Y-74033519D01*
X127191450Y-73960789D01*
X127210034Y-73931524D01*
X127289160Y-73809854D01*
X127578613Y-73809854D01*
X127868066Y-73809854D01*
X127868066Y-75490055D01*
X127868066Y-77170255D01*
X127590174Y-77170255D01*
X127312282Y-77170255D01*
X127306278Y-75990510D01*
X127300274Y-74810765D01*
X126800658Y-75637031D01*
X126692772Y-75814311D01*
X126591305Y-75978852D01*
X126498931Y-76126479D01*
X126418326Y-76253014D01*
X126352162Y-76354282D01*
X126303115Y-76426105D01*
X126273859Y-76464307D01*
X126267629Y-76469476D01*
X126246394Y-76451200D01*
X126202978Y-76393100D01*
X126137797Y-76295824D01*
X126051267Y-76160017D01*
X125943802Y-75986326D01*
X125815818Y-75775398D01*
X125735949Y-75642274D01*
X125629335Y-75464374D01*
X125529984Y-75299398D01*
X125440420Y-75151478D01*
X125363165Y-75024744D01*
X125300742Y-74923326D01*
X125255675Y-74851354D01*
X125230486Y-74812958D01*
X125226095Y-74807634D01*
X125223967Y-74829835D01*
X125222202Y-74894048D01*
X125220822Y-74995932D01*
X125219845Y-75131151D01*
X125219292Y-75295366D01*
X125219182Y-75484238D01*
X125219535Y-75693429D01*
X125220370Y-75918601D01*
X125220716Y-75988316D01*
X125226926Y-77170255D01*
X124948408Y-77170255D01*
X124669891Y-77170255D01*
X124669891Y-75489362D01*
X124669891Y-73808469D01*
X124965374Y-73814955D01*
G37*
G36*
X122010538Y-73810029D02*
G01*
X122191803Y-73810914D01*
X122365476Y-73813324D01*
X122523999Y-73817035D01*
X122659813Y-73821824D01*
X122765359Y-73827467D01*
X122833077Y-73833738D01*
X122838602Y-73834571D01*
X123044533Y-73889805D01*
X123230422Y-73982325D01*
X123392791Y-74106896D01*
X123528163Y-74258290D01*
X123633061Y-74431272D01*
X123704007Y-74620613D01*
X123737524Y-74821080D01*
X123730134Y-75027441D01*
X123707358Y-75141617D01*
X123637778Y-75330076D01*
X123533990Y-75504684D01*
X123403210Y-75655969D01*
X123252659Y-75774458D01*
X123203423Y-75802880D01*
X123142320Y-75838326D01*
X123102594Y-75867363D01*
X123093978Y-75878981D01*
X123105126Y-75901845D01*
X123136336Y-75958896D01*
X123184261Y-76044320D01*
X123245554Y-76152299D01*
X123316866Y-76277019D01*
X123394849Y-76412663D01*
X123476156Y-76553415D01*
X123557438Y-76693459D01*
X123635348Y-76826980D01*
X123706538Y-76948162D01*
X123767660Y-77051188D01*
X123794334Y-77095625D01*
X123840216Y-77171633D01*
X123532466Y-77165150D01*
X123224717Y-77158668D01*
X122875356Y-76556113D01*
X122525995Y-75953558D01*
X122207432Y-75947110D01*
X121888869Y-75940663D01*
X121888869Y-76555459D01*
X121888869Y-77170255D01*
X121610767Y-77170255D01*
X121332664Y-77170255D01*
X121332664Y-75490055D01*
X121332664Y-74899087D01*
X121888869Y-74899087D01*
X121888869Y-75455292D01*
X122324647Y-75455292D01*
X122477702Y-75455047D01*
X122592385Y-75453736D01*
X122676673Y-75450494D01*
X122738546Y-75444457D01*
X122785979Y-75434761D01*
X122826952Y-75420542D01*
X122869443Y-75400934D01*
X122881499Y-75394958D01*
X123006500Y-75309604D01*
X123098116Y-75199795D01*
X123156615Y-75072950D01*
X123182261Y-74936488D01*
X123175320Y-74797829D01*
X123136059Y-74664393D01*
X123064744Y-74543599D01*
X122961640Y-74442867D01*
X122845011Y-74376788D01*
X122801055Y-74363763D01*
X122736504Y-74354267D01*
X122645184Y-74347894D01*
X122520918Y-74344243D01*
X122357533Y-74342909D01*
X122326367Y-74342883D01*
X121888869Y-74342883D01*
X121888869Y-74899087D01*
X121332664Y-74899087D01*
X121332664Y-74342883D01*
X121332664Y-73809854D01*
X122010538Y-73810029D01*
G37*
G36*
X120114456Y-78463274D02*
G01*
X120206364Y-78524060D01*
X120224712Y-78542362D01*
X120272264Y-78598290D01*
X120285298Y-78634746D01*
X120263958Y-78663029D01*
X120226522Y-78685132D01*
X120179731Y-78704734D01*
X120146825Y-78696303D01*
X120111752Y-78662697D01*
X120052082Y-78623238D01*
X119978565Y-78606566D01*
X119910135Y-78614923D01*
X119877263Y-78634927D01*
X119849168Y-78682667D01*
X119852656Y-78742254D01*
X119889450Y-78818178D01*
X119961270Y-78914932D01*
X120003472Y-78964196D01*
X120069769Y-79036383D01*
X120125554Y-79091693D01*
X120163558Y-79123221D01*
X120175503Y-79127571D01*
X120192818Y-79099059D01*
X120208726Y-79047179D01*
X120224045Y-78995943D01*
X120246349Y-78982471D01*
X120286956Y-79004040D01*
X120311600Y-79022438D01*
X120345321Y-79051051D01*
X120356344Y-79077714D01*
X120346748Y-79119182D01*
X120329277Y-79164968D01*
X120306783Y-79227228D01*
X120303828Y-79267112D01*
X120322564Y-79305210D01*
X120347446Y-79338836D01*
X120404519Y-79413663D01*
X120344952Y-79452693D01*
X120300843Y-79477308D01*
X120269655Y-79473083D01*
X120232010Y-79441580D01*
X120191922Y-79409169D01*
X120157886Y-79405794D01*
X120109177Y-79427355D01*
X119995589Y-79465706D01*
X119869384Y-79476794D01*
X119784207Y-79465839D01*
X119684388Y-79420196D01*
X119611858Y-79346187D01*
X119569002Y-79253808D01*
X119558203Y-79153058D01*
X119559495Y-79147643D01*
X119734122Y-79147643D01*
X119741230Y-79224585D01*
X119776767Y-79282909D01*
X119785084Y-79289470D01*
X119860898Y-79319654D01*
X119946993Y-79321566D01*
X120020805Y-79294946D01*
X120024631Y-79292229D01*
X120046128Y-79272986D01*
X120049260Y-79252492D01*
X120029772Y-79221588D01*
X119983406Y-79171115D01*
X119954612Y-79141591D01*
X119881331Y-79071206D01*
X119829976Y-79034838D01*
X119793869Y-79030029D01*
X119766335Y-79054323D01*
X119757567Y-79069097D01*
X119734122Y-79147643D01*
X119559495Y-79147643D01*
X119581846Y-79053934D01*
X119642315Y-78966434D01*
X119661078Y-78949504D01*
X119701202Y-78911781D01*
X119712317Y-78877797D01*
X119699772Y-78826176D01*
X119695255Y-78812901D01*
X119678540Y-78706775D01*
X119699878Y-78612977D01*
X119751758Y-78535347D01*
X119826668Y-78477723D01*
X119917096Y-78443944D01*
X120015529Y-78437848D01*
X120114456Y-78463274D01*
G37*
G36*
X130530054Y-73873586D02*
G01*
X130542389Y-73906456D01*
X130568526Y-73977764D01*
X130606982Y-74083394D01*
X130656273Y-74219233D01*
X130714916Y-74381163D01*
X130781430Y-74565069D01*
X130854330Y-74766837D01*
X130932135Y-74982351D01*
X131013360Y-75207495D01*
X131096523Y-75438154D01*
X131180142Y-75670213D01*
X131262732Y-75899556D01*
X131342812Y-76122068D01*
X131418898Y-76333633D01*
X131489507Y-76530137D01*
X131553157Y-76707463D01*
X131608364Y-76861497D01*
X131653646Y-76988123D01*
X131687520Y-77083225D01*
X131708502Y-77142689D01*
X131715146Y-77162402D01*
X131693417Y-77165345D01*
X131634012Y-77167786D01*
X131545605Y-77169494D01*
X131436870Y-77170241D01*
X131418618Y-77170255D01*
X131122090Y-77170255D01*
X131007258Y-76834257D01*
X130892427Y-76498259D01*
X130182311Y-76498217D01*
X129472196Y-76498175D01*
X129388461Y-76735721D01*
X129350281Y-76844433D01*
X129314488Y-76947055D01*
X129285997Y-77029459D01*
X129273560Y-77065967D01*
X129242393Y-77158668D01*
X128934875Y-77165153D01*
X128810645Y-77167377D01*
X128725903Y-77167334D01*
X128673807Y-77164208D01*
X128647517Y-77157179D01*
X128640192Y-77145430D01*
X128644062Y-77130391D01*
X128654517Y-77102368D01*
X128679507Y-77034277D01*
X128717757Y-76929623D01*
X128767990Y-76791909D01*
X128828931Y-76624637D01*
X128899304Y-76431311D01*
X128977833Y-76215433D01*
X129063243Y-75980509D01*
X129068826Y-75965146D01*
X129656625Y-75965146D01*
X130176032Y-75965146D01*
X130325594Y-75964770D01*
X130458303Y-75963717D01*
X130567604Y-75962098D01*
X130646943Y-75960026D01*
X130689767Y-75957610D01*
X130695438Y-75956307D01*
X130688143Y-75932685D01*
X130667862Y-75872365D01*
X130637003Y-75782367D01*
X130597973Y-75669713D01*
X130554413Y-75544948D01*
X130473432Y-75313820D01*
X130406327Y-75122322D01*
X130351652Y-74966338D01*
X130307965Y-74841753D01*
X130273820Y-74744451D01*
X130247775Y-74670317D01*
X130228384Y-74615234D01*
X130214205Y-74575088D01*
X130206613Y-74553689D01*
X130196480Y-74527436D01*
X130186770Y-74514521D01*
X130175071Y-74519635D01*
X130158971Y-74547467D01*
X130136056Y-74602709D01*
X130103913Y-74690050D01*
X130060129Y-74814182D01*
X130033740Y-74889729D01*
X129977243Y-75051440D01*
X129915654Y-75227474D01*
X129854639Y-75401651D01*
X129799866Y-75557788D01*
X129772770Y-75634900D01*
X129656625Y-75965146D01*
X129068826Y-75965146D01*
X129154257Y-75730040D01*
X129247361Y-75473696D01*
X129342496Y-75211927D01*
X129433238Y-74962674D01*
X129518322Y-74729396D01*
X129596478Y-74515546D01*
X129666439Y-74324583D01*
X129726938Y-74159961D01*
X129776705Y-74025136D01*
X129814473Y-73923565D01*
X129838974Y-73858703D01*
X129848912Y-73834052D01*
X129878275Y-73823818D01*
X129948983Y-73816137D01*
X130056083Y-73811366D01*
X130184140Y-73809854D01*
X130504413Y-73809854D01*
X130530054Y-73873586D01*
G37*
G36*
X116293796Y-73812080D02*
G01*
X116371213Y-73814257D01*
X116424996Y-73817941D01*
X116459686Y-73823339D01*
X116479828Y-73830656D01*
X116489962Y-73840098D01*
X116494632Y-73851872D01*
X116494748Y-73852312D01*
X116501375Y-73901774D01*
X116506278Y-73984680D01*
X116509357Y-74088338D01*
X116510513Y-74200059D01*
X116509647Y-74307151D01*
X116506660Y-74396923D01*
X116501451Y-74456684D01*
X116499561Y-74466390D01*
X116484480Y-74526479D01*
X115731645Y-74533175D01*
X114978810Y-74539872D01*
X114911212Y-74615557D01*
X114871340Y-74667107D01*
X114851000Y-74718837D01*
X114844034Y-74789987D01*
X114843613Y-74826802D01*
X114856589Y-74945975D01*
X114897637Y-75030975D01*
X114969934Y-75086726D01*
X115024275Y-75106737D01*
X115075288Y-75114544D01*
X115163189Y-75121324D01*
X115278520Y-75126619D01*
X115411821Y-75129976D01*
X115527281Y-75130961D01*
X115721036Y-75133169D01*
X115876737Y-75140722D01*
X116002558Y-75155600D01*
X116106675Y-75179783D01*
X116197260Y-75215254D01*
X116282488Y-75263992D01*
X116370534Y-75327979D01*
X116383889Y-75338536D01*
X116516182Y-75469821D01*
X116625450Y-75629592D01*
X116699687Y-75798973D01*
X116736401Y-75962107D01*
X116750576Y-76138559D01*
X116742238Y-76311927D01*
X116711413Y-76465810D01*
X116698549Y-76503719D01*
X116602395Y-76697432D01*
X116472770Y-76865206D01*
X116315039Y-77001414D01*
X116134568Y-77100430D01*
X116126213Y-77103835D01*
X116089937Y-77117901D01*
X116054743Y-77129358D01*
X116015534Y-77138523D01*
X115967214Y-77145709D01*
X115904686Y-77151232D01*
X115822854Y-77155407D01*
X115716619Y-77158548D01*
X115580886Y-77160971D01*
X115410558Y-77162991D01*
X115200539Y-77164921D01*
X115127509Y-77165543D01*
X114264234Y-77172841D01*
X114264234Y-76813478D01*
X114264234Y-76454115D01*
X115046396Y-76447176D01*
X115261887Y-76445022D01*
X115435954Y-76442605D01*
X115573523Y-76439660D01*
X115679520Y-76435923D01*
X115758872Y-76431129D01*
X115816504Y-76425015D01*
X115857342Y-76417316D01*
X115886314Y-76407768D01*
X115899366Y-76401419D01*
X115969680Y-76343472D01*
X116010656Y-76259443D01*
X116025395Y-76142580D01*
X116025548Y-76126647D01*
X116019432Y-76044902D01*
X115995454Y-75984779D01*
X115957967Y-75936543D01*
X115890387Y-75860858D01*
X115384382Y-75847233D01*
X115204829Y-75841808D01*
X115063777Y-75835531D01*
X114953378Y-75827127D01*
X114865786Y-75815323D01*
X114793154Y-75798843D01*
X114727633Y-75776415D01*
X114661376Y-75746764D01*
X114611846Y-75721798D01*
X114525544Y-75664967D01*
X114429963Y-75583272D01*
X114340414Y-75491142D01*
X114272207Y-75403004D01*
X114270170Y-75399814D01*
X114194092Y-75247069D01*
X114138668Y-75067900D01*
X114109960Y-74887500D01*
X114114814Y-74679463D01*
X114162410Y-74479274D01*
X114249164Y-74293207D01*
X114371496Y-74127536D01*
X114525822Y-73988533D01*
X114674746Y-73898353D01*
X114830898Y-73821441D01*
X115656926Y-73814326D01*
X115874309Y-73812533D01*
X116049886Y-73811424D01*
X116188201Y-73811204D01*
X116293796Y-73812080D01*
G37*
G36*
X117434264Y-75182409D02*
G01*
X117427646Y-76950091D01*
X117367456Y-77077555D01*
X117290462Y-77205661D01*
X117189815Y-77322996D01*
X117078597Y-77415382D01*
X117028095Y-77445289D01*
X116990816Y-77463109D01*
X116951397Y-77478581D01*
X116906453Y-77491870D01*
X116852598Y-77503140D01*
X116786446Y-77512557D01*
X116704610Y-77520285D01*
X116603706Y-77526488D01*
X116480348Y-77531332D01*
X116331148Y-77534980D01*
X116152723Y-77537598D01*
X115941685Y-77539350D01*
X115694648Y-77540401D01*
X115408228Y-77540915D01*
X115079038Y-77541058D01*
X115058794Y-77541058D01*
X114736064Y-77540908D01*
X114456879Y-77540422D01*
X114218434Y-77539549D01*
X114017924Y-77538238D01*
X113852544Y-77536436D01*
X113719490Y-77534093D01*
X113615956Y-77531156D01*
X113539139Y-77527574D01*
X113486232Y-77523295D01*
X113454431Y-77518268D01*
X113440933Y-77512441D01*
X113440216Y-77511268D01*
X113438464Y-77483823D01*
X113436959Y-77413682D01*
X113435712Y-77304496D01*
X113434733Y-77159921D01*
X113434033Y-76983608D01*
X113433621Y-76779212D01*
X113433509Y-76550384D01*
X113433707Y-76300779D01*
X113434225Y-76034049D01*
X113435073Y-75753848D01*
X113435150Y-75732573D01*
X113435226Y-75712150D01*
X113546312Y-75712150D01*
X113546437Y-75987262D01*
X113546958Y-76248793D01*
X113547845Y-76493056D01*
X113549064Y-76716365D01*
X113550583Y-76915033D01*
X113552369Y-77085374D01*
X113554391Y-77223701D01*
X113556615Y-77326327D01*
X113559009Y-77389566D01*
X113561253Y-77409732D01*
X113586454Y-77412336D01*
X113654198Y-77414802D01*
X113760677Y-77417094D01*
X113902084Y-77419173D01*
X114074610Y-77421005D01*
X114274449Y-77422551D01*
X114497793Y-77423774D01*
X114740834Y-77424638D01*
X114999765Y-77425107D01*
X115156134Y-77425182D01*
X115472532Y-77425062D01*
X115745944Y-77424653D01*
X115979739Y-77423886D01*
X116177280Y-77422690D01*
X116341933Y-77420996D01*
X116477065Y-77418734D01*
X116586041Y-77415833D01*
X116672226Y-77412224D01*
X116738986Y-77407836D01*
X116789686Y-77402599D01*
X116827693Y-77396444D01*
X116854625Y-77389825D01*
X117008952Y-77320421D01*
X117140494Y-77212749D01*
X117239874Y-77077555D01*
X117311770Y-76950091D01*
X117318278Y-75240921D01*
X117324786Y-73531752D01*
X115684428Y-73531978D01*
X114044069Y-73532204D01*
X113928194Y-73587146D01*
X113790943Y-73675160D01*
X113674188Y-73794641D01*
X113593930Y-73925730D01*
X113584977Y-73946671D01*
X113577235Y-73969269D01*
X113570614Y-73996866D01*
X113565026Y-74032801D01*
X113560382Y-74080416D01*
X113556592Y-74143050D01*
X113553568Y-74224044D01*
X113551220Y-74326739D01*
X113549460Y-74454475D01*
X113548198Y-74610593D01*
X113547346Y-74798433D01*
X113546813Y-75021336D01*
X113546512Y-75282642D01*
X113546354Y-75585691D01*
X113546312Y-75712150D01*
X113435226Y-75712150D01*
X113436356Y-75406416D01*
X113437502Y-75123337D01*
X113438688Y-74880060D01*
X113440013Y-74673315D01*
X113441576Y-74499826D01*
X113443478Y-74356321D01*
X113445816Y-74239527D01*
X113448692Y-74146171D01*
X113452204Y-74072979D01*
X113456452Y-74016678D01*
X113461535Y-73973994D01*
X113467553Y-73941655D01*
X113474605Y-73916388D01*
X113482791Y-73894919D01*
X113491594Y-73875308D01*
X113578109Y-73735031D01*
X113696765Y-73608247D01*
X113833362Y-73509469D01*
X113866976Y-73491669D01*
X113997719Y-73427463D01*
X115719300Y-73421095D01*
X117440882Y-73414727D01*
X117434264Y-75182409D01*
G37*
D14*
%TO.C,C3*%
X143940580Y-81610000D02*
X143659420Y-81610000D01*
X143940580Y-80590000D02*
X143659420Y-80590000D01*
%TO.C,U2*%
X137925000Y-84405000D02*
X141375000Y-84405000D01*
X137925000Y-84405000D02*
X135975000Y-84405000D01*
X137925000Y-75535000D02*
X139875000Y-75535000D01*
X137925000Y-75535000D02*
X135975000Y-75535000D01*
%TO.C,C1*%
X137459420Y-84850000D02*
X137740580Y-84850000D01*
X137459420Y-85870000D02*
X137740580Y-85870000D01*
%TO.C,D3*%
X140475000Y-75075000D02*
X140475000Y-74275000D01*
X140475000Y-75075000D02*
X139575000Y-75075000D01*
X140375000Y-72475000D02*
X135475000Y-72475000D01*
X135475000Y-75075000D02*
X138575000Y-75075000D01*
%TO.C,C7*%
X147260320Y-76299420D02*
X147260320Y-76580580D01*
X146240320Y-76299420D02*
X146240320Y-76580580D01*
%TD*%
M02*
