%TF.GenerationSoftware,KiCad,Pcbnew,8.0.4*%
%TF.CreationDate,2024-11-04T15:39:35+01:00*%
%TF.ProjectId,Flipper_Zero_CAN_Module,466c6970-7065-4725-9f5a-65726f5f4341,rev?*%
%TF.SameCoordinates,Original*%
%TF.FileFunction,Profile,NP*%
%FSLAX46Y46*%
G04 Gerber Fmt 4.6, Leading zero omitted, Abs format (unit mm)*
G04 Created by KiCad (PCBNEW 8.0.4) date 2024-11-04 15:39:35*
%MOMM*%
%LPD*%
G01*
G04 APERTURE LIST*
%TA.AperFunction,Profile*%
%ADD10C,0.100000*%
%TD*%
%TA.AperFunction,Profile*%
%ADD11C,0.200000*%
%TD*%
G04 APERTURE END LIST*
D10*
X153500000Y-74000000D02*
G75*
G02*
X154000000Y-74000000I250000J0D01*
G01*
X154000000Y-74000000D02*
X154000000Y-86250000D01*
X154000000Y-86250000D02*
G75*
G02*
X153500000Y-86250000I-250000J0D01*
G01*
X153500000Y-74000000D02*
X153500000Y-86250000D01*
D11*
%TO.C,U7*%
X111403530Y-87852922D02*
X111403530Y-72867136D01*
X111549976Y-88206476D02*
X112257084Y-88913583D01*
X112257084Y-71806474D02*
X111549976Y-72513582D01*
X113903530Y-89060029D02*
X112610638Y-89060029D01*
X114403530Y-89560029D02*
X114403530Y-91160028D01*
X114903530Y-91660028D02*
X134603527Y-91660028D01*
X135103527Y-89560029D02*
X135103527Y-91160028D01*
X149463528Y-89060029D02*
X135603527Y-89060029D01*
X149963528Y-91160028D02*
X149963528Y-89560029D01*
X150463528Y-91660028D02*
X175243526Y-91660028D01*
X175743526Y-89560029D02*
X175743526Y-91160028D01*
X177536419Y-71660028D02*
X112610638Y-71660028D01*
X177536419Y-89060029D02*
X176243526Y-89060029D01*
X177889980Y-71806474D02*
X178597088Y-72513582D01*
X178597088Y-88206476D02*
X177889980Y-88913583D01*
X178743526Y-72867136D02*
X178743526Y-87852922D01*
X111403530Y-72867136D02*
G75*
G02*
X111549977Y-72513583I500020J-9D01*
G01*
X111549977Y-88206475D02*
G75*
G02*
X111403530Y-87852922I353545J353551D01*
G01*
X112257085Y-71806475D02*
G75*
G02*
X112610638Y-71660028I353567J-353584D01*
G01*
X112610638Y-89060029D02*
G75*
G02*
X112257085Y-88913582I-7J499981D01*
G01*
X113903530Y-89060029D02*
G75*
G02*
X114403530Y-89560029I-8J-500008D01*
G01*
X114903530Y-91660028D02*
G75*
G02*
X114403530Y-91160028I-12J499988D01*
G01*
X135103527Y-89560029D02*
G75*
G02*
X135603527Y-89060029I500018J-18D01*
G01*
X135103527Y-91160028D02*
G75*
G02*
X134603527Y-91660028I-499981J-19D01*
G01*
X149463528Y-89060029D02*
G75*
G02*
X149963483Y-89560029I-16J-499971D01*
G01*
X150463528Y-91660028D02*
G75*
G02*
X149963484Y-91160028I-16J500028D01*
G01*
X175743526Y-89560029D02*
G75*
G02*
X176243526Y-89060014I499986J29D01*
G01*
X175743526Y-91160028D02*
G75*
G02*
X175243526Y-91660114I-499214J-872D01*
G01*
X177536419Y-71660028D02*
G75*
G02*
X177889963Y-71806484I-7J-499972D01*
G01*
X177889972Y-88913582D02*
G75*
G02*
X177536419Y-89060054I-353560J353482D01*
G01*
X178597079Y-72513583D02*
G75*
G02*
X178743549Y-72867136I-353867J-353717D01*
G01*
X178743526Y-87852922D02*
G75*
G02*
X178597071Y-88206467I-500014J22D01*
G01*
%TD*%
M02*
