M48
; DRILL file {KiCad 8.0.4} date 2024-11-04T15:39:27+0100
; FORMAT={-:-/ absolute / metric / decimal}
; #@! TF.CreationDate,2024-11-04T15:39:27+01:00
; #@! TF.GenerationSoftware,Kicad,Pcbnew,8.0.4
; #@! TF.FileFunction,Plated,1,2,PTH
FMAT,2
METRIC
; #@! TA.AperFunction,Plated,PTH,ViaDrill
T1C0.400
; #@! TA.AperFunction,Plated,PTH,ComponentDrill
T2C1.000
%
G90
G05
T1
X125.12Y-79.959
X131.115Y-84.557
X131.891Y-78.7
X133.525Y-77.125
X137.45Y-83.8
X137.9Y-73.874
X137.9Y-77.4
X138.1Y-79.985
X140.325Y-85.375
X141.475Y-74.475
X142.04Y-81.1
X142.672Y-83.845
X142.773Y-73.025
X145.75Y-78.2
X146.761Y-78.638
X156.286Y-82.169
X156.972Y-72.898
X160.05Y-83.65
X160.158Y-79.615
X161.0Y-83.0
X161.1Y-78.5
X163.11Y-74.94
X163.11Y-74.94
X165.3Y-80.239
X165.75Y-84.75
X165.75Y-84.75
T2
X115.874Y-87.82
X118.414Y-87.82
X120.954Y-87.82
X123.494Y-87.82
X126.034Y-87.82
X128.574Y-87.82
X131.114Y-87.82
X133.654Y-87.82
X151.434Y-87.82
X153.974Y-87.82
X156.514Y-87.82
X159.054Y-87.82
X161.594Y-87.82
X164.134Y-87.82
X166.674Y-87.82
X169.214Y-87.82
X171.754Y-87.82
X174.294Y-87.82
X176.7Y-80.975
X176.7Y-83.515
X176.7Y-86.055
M30
