%TF.GenerationSoftware,KiCad,Pcbnew,8.0.4*%
%TF.CreationDate,2024-11-04T15:39:35+01:00*%
%TF.ProjectId,Flipper_Zero_CAN_Module,466c6970-7065-4725-9f5a-65726f5f4341,rev?*%
%TF.SameCoordinates,Original*%
%TF.FileFunction,Soldermask,Top*%
%TF.FilePolarity,Negative*%
%FSLAX46Y46*%
G04 Gerber Fmt 4.6, Leading zero omitted, Abs format (unit mm)*
G04 Created by KiCad (PCBNEW 8.0.4) date 2024-11-04 15:39:35*
%MOMM*%
%LPD*%
G01*
G04 APERTURE LIST*
G04 Aperture macros list*
%AMRoundRect*
0 Rectangle with rounded corners*
0 $1 Rounding radius*
0 $2 $3 $4 $5 $6 $7 $8 $9 X,Y pos of 4 corners*
0 Add a 4 corners polygon primitive as box body*
4,1,4,$2,$3,$4,$5,$6,$7,$8,$9,$2,$3,0*
0 Add four circle primitives for the rounded corners*
1,1,$1+$1,$2,$3*
1,1,$1+$1,$4,$5*
1,1,$1+$1,$6,$7*
1,1,$1+$1,$8,$9*
0 Add four rect primitives between the rounded corners*
20,1,$1+$1,$2,$3,$4,$5,0*
20,1,$1+$1,$4,$5,$6,$7,0*
20,1,$1+$1,$6,$7,$8,$9,0*
20,1,$1+$1,$8,$9,$2,$3,0*%
G04 Aperture macros list end*
%ADD10C,0.150000*%
%ADD11C,1.700000*%
%ADD12RoundRect,0.218750X-0.218750X-0.256250X0.218750X-0.256250X0.218750X0.256250X-0.218750X0.256250X0*%
%ADD13RoundRect,0.218750X-0.256250X0.218750X-0.256250X-0.218750X0.256250X-0.218750X0.256250X0.218750X0*%
%ADD14RoundRect,0.225000X-0.250000X0.225000X-0.250000X-0.225000X0.250000X-0.225000X0.250000X0.225000X0*%
%ADD15R,1.100000X1.500000*%
%ADD16R,2.300000X5.600000*%
%ADD17R,1.400000X3.400000*%
%ADD18RoundRect,0.150000X-0.875000X-0.150000X0.875000X-0.150000X0.875000X0.150000X-0.875000X0.150000X0*%
%ADD19RoundRect,0.218750X0.218750X0.256250X-0.218750X0.256250X-0.218750X-0.256250X0.218750X-0.256250X0*%
%ADD20R,1.700000X1.700000*%
%ADD21O,1.700000X1.700000*%
%ADD22RoundRect,0.225000X-0.225000X-0.250000X0.225000X-0.250000X0.225000X0.250000X-0.225000X0.250000X0*%
%ADD23R,1.050000X1.300000*%
%ADD24C,1.000000*%
%ADD25RoundRect,0.225000X0.225000X0.250000X-0.225000X0.250000X-0.225000X-0.250000X0.225000X-0.250000X0*%
%ADD26RoundRect,0.150000X0.825000X0.150000X-0.825000X0.150000X-0.825000X-0.150000X0.825000X-0.150000X0*%
%ADD27R,1.600000X0.800000*%
%ADD28O,1.600000X0.800000*%
G04 APERTURE END LIST*
D10*
X152000000Y-73260000D02*
X155500000Y-73260000D01*
X155500000Y-86500000D01*
X152000000Y-86500000D01*
X152000000Y-73260000D01*
G36*
X152000000Y-73260000D02*
G01*
X155500000Y-73260000D01*
X155500000Y-86500000D01*
X152000000Y-86500000D01*
X152000000Y-73260000D01*
G37*
D11*
%TO.C,U7*%
X115873531Y-87820024D03*
X118413531Y-87820024D03*
X120953531Y-87820024D03*
X123493531Y-87820024D03*
X126033531Y-87820024D03*
X128573531Y-87820024D03*
X131113531Y-87820024D03*
X133653531Y-87820024D03*
X151433531Y-87820024D03*
X153973531Y-87820024D03*
X156513531Y-87820024D03*
X159053531Y-87820024D03*
X161593531Y-87820024D03*
X164133531Y-87820024D03*
X166673531Y-87820024D03*
X169213531Y-87820024D03*
X171753531Y-87820024D03*
X174293531Y-87820024D03*
%TD*%
D12*
%TO.C,R3*%
X132812500Y-74550000D03*
X134387500Y-74550000D03*
%TD*%
D13*
%TO.C,R15*%
X165300000Y-81212500D03*
X165300000Y-82787500D03*
%TD*%
D14*
%TO.C,C9*%
X160655000Y-75665000D03*
X160655000Y-77215000D03*
%TD*%
D12*
%TO.C,D2*%
X158605000Y-72898000D03*
X160180000Y-72898000D03*
%TD*%
D15*
%TO.C,SW1*%
X162290000Y-85500000D03*
X162290000Y-76600000D03*
%TD*%
D16*
%TO.C,J6*%
X175950000Y-75800000D03*
X165500000Y-75800000D03*
D17*
X173300000Y-82400000D03*
X170800000Y-82400000D03*
X168300000Y-82400000D03*
%TD*%
D18*
%TO.C,U4*%
X149020000Y-75805000D03*
X149020000Y-77075000D03*
X149020000Y-78345000D03*
X149020000Y-79615000D03*
X149020000Y-80885000D03*
X149020000Y-82155000D03*
X149020000Y-83425000D03*
X149020000Y-84695000D03*
X158320000Y-84695000D03*
X158320000Y-83425000D03*
X158320000Y-82155000D03*
X158320000Y-80885000D03*
X158320000Y-79615000D03*
X158320000Y-78345000D03*
X158320000Y-77075000D03*
X158320000Y-75805000D03*
%TD*%
D12*
%TO.C,R4*%
X132812500Y-73000000D03*
X134387500Y-73000000D03*
%TD*%
D19*
%TO.C,D1*%
X148742500Y-73025000D03*
X147167500Y-73025000D03*
%TD*%
D20*
%TO.C,J1*%
X176700000Y-80975000D03*
D21*
X176700000Y-83515000D03*
X176700000Y-86055000D03*
%TD*%
D12*
%TO.C,R1*%
X143992500Y-73025000D03*
X145567500Y-73025000D03*
%TD*%
D19*
%TO.C,R2*%
X163347500Y-72888000D03*
X161772500Y-72888000D03*
%TD*%
D22*
%TO.C,C4*%
X143025000Y-75385000D03*
X144575000Y-75385000D03*
%TD*%
D23*
%TO.C,Y1*%
X144675000Y-79360000D03*
X144675000Y-77060000D03*
X142820000Y-77060000D03*
X142820000Y-79360000D03*
%TD*%
D24*
%TO.C,FID1*%
X113000000Y-73000000D03*
%TD*%
D25*
%TO.C,C3*%
X144575000Y-81100000D03*
X143025000Y-81100000D03*
%TD*%
D26*
%TO.C,U2*%
X140400000Y-83780000D03*
X140400000Y-82510000D03*
X140400000Y-81240000D03*
X140400000Y-79970000D03*
X140400000Y-78700000D03*
X140400000Y-77430000D03*
X140400000Y-76160000D03*
X135450000Y-76160000D03*
X135450000Y-77430000D03*
X135450000Y-78700000D03*
X135450000Y-79970000D03*
X135450000Y-81240000D03*
X135450000Y-82510000D03*
X135450000Y-83780000D03*
%TD*%
D22*
%TO.C,C1*%
X136825000Y-85360000D03*
X138375000Y-85360000D03*
%TD*%
D27*
%TO.C,D3*%
X136275000Y-74475000D03*
D28*
X139475000Y-74475000D03*
X136275000Y-73075000D03*
X139475000Y-73075000D03*
%TD*%
D14*
%TO.C,C7*%
X146750320Y-75665000D03*
X146750320Y-77215000D03*
%TD*%
M02*
